<svg xmlns="http://www.w3.org/2000/svg" viewBox="0 0 257.03 187.27"><defs><style>.cls-1{fill:#353535;}</style></defs><g id="Layer_2" data-name="Layer 2"><g id="Layer_1-2" data-name="Layer 1"><path d="M66.42,120.81c-3.76-7.9-7.62-14.07-11.47-18.35-.52-.58-1.05-1.13-1.58-1.66a1.78,1.78,0,0,1,.6-2.93c1.14-.45,2.27-.94,3.36-1.46a44.66,44.66,0,0,0,13.43-9.73,42.89,42.89,0,0,0,8.8-14.37,53.37,53.37,0,0,0,3.1-18.72C82.66,44,81,35.72,77.72,29A42.71,42.71,0,0,0,63.5,12.31a59.62,59.62,0,0,0-21.75-9A134.67,134.67,0,0,0,14.38.77H2.45A2.45,2.45,0,0,0,0,3.22V33.86a2.45,2.45,0,0,0,2.45,2.45h8.27c10.18,0,17.78,1.68,22.62,5,4.44,3.06,6.59,8.14,6.59,15.52a20.23,20.23,0,0,1-2,9.3,18.32,18.32,0,0,1-5.72,6.7,28.06,28.06,0,0,1-9.47,4.26A53,53,0,0,1,9.64,78.6H2.45A2.46,2.46,0,0,0,0,81.06v28.86a2.45,2.45,0,0,0,2.45,2.45h0a22.41,22.41,0,0,1,12.72,3.51,23,23,0,0,1,8.41,10.58l25,57.13a3.54,3.54,0,0,0,3.26,2.13H91.75A3.55,3.55,0,0,0,95,180.63Z"/><path d="M149.46,70.71l-36.2-59a6.9,6.9,0,0,1,5.82-10.52L248.65,0a6.91,6.91,0,0,1,6,10.43L219.41,70l-9.56,16.18a25.73,25.73,0,0,0-47.73-7.41,4.39,4.39,0,0,1-7.58.19Z"/><path d="M250.17,186.12,120.6,187.27a6.91,6.91,0,0,1-6-10.43l35.26-59.61,5.72-9.68a5,5,0,0,1,7.85-1l3,3a25.71,25.71,0,0,0,42.74-10.38l10.66,17.38,36.21,59A6.91,6.91,0,0,1,250.17,186.12Z"/><path class="cls-1" d="M234.34,101.68,219.8,116.57l-26,26.58a12.23,12.23,0,0,1-17.23.2l-26.73-26.12,5.72-9.68a5,5,0,0,1,7.85-1l3,3a25.83,25.83,0,1,0-4.28-30.76,4.39,4.39,0,0,1-7.58.19l-5.08-8.29,26-26.6a12.24,12.24,0,0,1,17.23-.2L219.41,70l14.74,14.42A12.2,12.2,0,0,1,234.34,101.68Z"/><path d="M198.45,89.82a2.82,2.82,0,0,1,0,4.89l-9.35,5.4-9.35,5.39a2.82,2.82,0,0,1-4.23-2.44V81.47A2.82,2.82,0,0,1,179.75,79l9.35,5.4Z"/></g></g></svg>