<?xml version="1.0" encoding="utf-8"?>
<!-- Generator: Adobe Illustrator 27.5.0, SVG Export Plug-In . SVG Version: 6.00 Build 0)  -->
<svg version="1.1" id="Layer_1" xmlns="http://www.w3.org/2000/svg" xmlns:xlink="http://www.w3.org/1999/xlink" x="0px" y="0px"
	 viewBox="0 0 279.82 189.15" style="enable-background:new 0 0 279.82 189.15;" xml:space="preserve">
<style type="text/css">
	.st0{fill:#7F7F7F;}
</style>
<g>
	<path class="st0" d="M100.37,88.49c4.6-4.16,13.45-2.93,16.91,1.98c0.28-0.31,0.55-0.64,0.84-0.93c1.85-1.87,4.14-2.88,6.7-3.33
		c2.71-0.48,5.38-0.34,7.96,0.67c3.13,1.23,5.23,3.51,6.55,6.56c0.95,2.19,1.4,4.51,1.42,6.89c0.03,4.9,0.02,9.81,0.05,14.71
		c0,0.4-0.11,0.47-0.48,0.47c-2.38-0.02-4.76-0.02-7.15,0c-0.38,0-0.5-0.07-0.5-0.48c0.02-4.64,0.01-9.29,0.01-13.93
		c0-1.35-0.23-2.66-0.87-3.86c-2.04-3.84-7.15-4.21-9.81-0.72c-1.02,1.34-1.49,2.86-1.49,4.54c0,4.67,0,9.35,0.01,14.02
		c0,0.37-0.1,0.45-0.46,0.44c-2.44-0.02-4.88-0.01-7.32,0c-0.32,0-0.41-0.07-0.41-0.4c0.01-4.67,0.01-9.35,0.01-14.02
		c0-1.06-0.11-2.11-0.44-3.13c-0.72-2.21-2.45-3.51-4.75-3.81c-3.55-0.46-5.69,2.24-6.4,4.59c-0.25,0.84-0.36,1.7-0.36,2.57
		c0,4.59,0,9.17,0.01,13.76c0,0.36-0.08,0.45-0.45,0.45c-2.44-0.02-4.88-0.02-7.32,0c-0.34,0-0.4-0.1-0.4-0.41
		c0.01-9.37,0.01-18.75,0-28.12c0-0.29,0.05-0.4,0.37-0.39c2.48,0.01,4.97,0.01,7.46,0c0.26,0,0.35,0.05,0.34,0.33
		C100.36,87.43,100.38,87.95,100.37,88.49L100.37,88.49z"/>
	<path class="st0" d="M168.15,116.27c-1.11-2.31-2.18-4.56-3.27-6.82c-1.08-2.25-2.16-4.5-3.26-6.8c-2.18,4.55-4.34,9.04-6.53,13.61
		c-5.25-9.92-10.47-19.77-15.72-29.68c0.2,0,0.32,0,0.45,0c2.73,0,5.46,0,8.2-0.01c0.31,0,0.45,0.11,0.58,0.37
		c2.17,4.37,4.35,8.73,6.52,13.09c0.06,0.12,0.12,0.23,0.21,0.41c0.4-0.84,0.76-1.63,1.14-2.41c0.44-0.94,0.88-1.89,1.34-2.82
		c0.11-0.22,0.12-0.41,0-0.65c-1.2-2.52-2.38-5.05-3.56-7.58c-0.06-0.12-0.11-0.23-0.16-0.35c0.09-0.11,0.2-0.07,0.29-0.07
		c2.38,0,4.76,0,7.15-0.01c0.27,0,0.4,0.09,0.51,0.34c2.12,4.44,4.25,8.87,6.37,13.3c0.02,0.04,0.05,0.07,0.11,0.15
		c0.34-0.77,0.67-1.51,0.99-2.25c1.63-3.72,3.26-7.44,4.89-11.17c0.13-0.29,0.27-0.37,0.57-0.37c2.38,0.01,4.76,0.01,7.15,0.01
		c0.13,0,0.25,0,0.44,0C177.74,96.5,172.96,106.35,168.15,116.27L168.15,116.27z"/>
	<path class="st0" d="M222.65,94.16c0,6.95,0,13.9,0.01,20.85c0,0.38-0.07,0.51-0.48,0.5c-2.44-0.02-4.88-0.02-7.32,0
		c-0.31,0-0.38-0.08-0.38-0.38c0.01-13.96,0.01-27.91,0-41.87c0-0.35,0.11-0.42,0.44-0.42c2.43,0.01,4.85,0.02,7.28,0
		c0.4,0,0.47,0.1,0.47,0.48C222.65,80.27,222.66,87.21,222.65,94.16L222.65,94.16z"/>
	<path class="st0" d="M210.53,87.09c0-0.07-0.01-0.14,0-0.22c0.03-0.22-0.06-0.3-0.29-0.29c-2.53,0.01-5.05,0.01-7.58,0
		c-0.23,0-0.3,0.06-0.29,0.29c0.02,0.53,0,1.07,0,1.65c-1.88-1.58-4.03-2.39-6.38-2.52c-4.29-0.24-7.91,1.36-10.78,4.51
		c-3.58,3.93-4.78,8.59-3.77,13.78c1.17,6.03,6.05,11.14,12.53,11.78c2.42,0.24,4.74-0.15,6.89-1.35c0.54-0.31,1.02-0.71,1.5-1.21
		c0,0.6,0.02,1.11-0.01,1.62c-0.01,0.3,0.07,0.38,0.37,0.38c2.43-0.01,4.85-0.02,7.28,0c0.42,0,0.52-0.09,0.52-0.52
		C210.52,105.68,210.52,96.38,210.53,87.09L210.53,87.09z M202.16,104.04c-1.01,2.49-3.31,4.01-6.02,4.01
		c-4.31-0.07-7.15-3.61-6.69-7.75c0.34-3.09,2.22-5.26,5.02-5.98c3.94-1.02,7.73,1.6,8.19,5.64
		C202.81,101.36,202.7,102.73,202.16,104.04L202.16,104.04z"/>
	<path class="st0" d="M88.41,87.09c0-0.07-0.01-0.14,0-0.22c0.03-0.23-0.06-0.29-0.29-0.29c-2.54,0.01-5.09,0.01-7.63,0
		c-0.26,0-0.27,0.11-0.27,0.31c0.01,0.52,0,1.04,0,1.62c-1.88-1.56-4.03-2.37-6.37-2.5c-4.11-0.24-7.64,1.23-10.45,4.17
		c-4.21,4.42-5.41,9.7-3.73,15.52c1.81,6.27,7.47,10.64,13.85,10.42c2.49-0.08,4.79-0.73,6.7-2.55c0,0.54,0.02,1.04-0.01,1.54
		c-0.02,0.32,0.06,0.41,0.4,0.41c2.43-0.02,4.85-0.02,7.28,0c0.41,0,0.53-0.07,0.53-0.51C88.4,105.7,88.4,96.4,88.41,87.09
		L88.41,87.09z M79.92,104.28c-1.17,2.49-3.19,3.68-5.74,3.77c-3.66,0-6.51-2.58-6.86-6.05c-0.32-3.1,0.97-5.76,3.51-7.1
		c3.82-2.03,8.87-0.15,9.66,4.92C80.72,101.36,80.58,102.87,79.92,104.28L79.92,104.28z"/>
</g>
</svg>
