<?xml version="1.0" encoding="utf-8"?>
<!-- Generator: Adobe Illustrator 27.5.0, SVG Export Plug-In . SVG Version: 6.00 Build 0)  -->
<svg version="1.1" id="Layer_1" xmlns="http://www.w3.org/2000/svg" xmlns:xlink="http://www.w3.org/1999/xlink" x="0px" y="0px"
	 viewBox="0 0 189.15 189.15" style="enable-background:new 0 0 189.15 189.15;" xml:space="preserve">
<style type="text/css">
	.st0{fill-rule:evenodd;clip-rule:evenodd;fill:#7F7F7F;}
	.st1{fill:#7F7F7F;}
</style>
<g>
	<g id="Layer_1_00000129202454113931896660000003987849855296499873_">
		<g>
			<path class="st0" d="M90.93,129.47h-0.58v-0.56h2.67c1.12,0,1.95,0.74,1.95,1.9c0,1.17-0.83,1.93-1.95,1.93h-1.45v2.48h-0.63
				V129.47L90.93,129.47z M92.94,132.19c0.84,0,1.38-0.51,1.38-1.37c0-0.86-0.55-1.35-1.37-1.35h-1.38v2.72L92.94,132.19
				L92.94,132.19z"/>
			<path class="st1" d="M96.85,129.64c0-0.05-0.01-0.11-0.05-0.15c-0.04-0.04-0.09-0.06-0.15-0.05h-0.38v-0.53h0.64
				c0.39,0,0.55,0.16,0.55,0.55v5.03c-0.01,0.05,0.01,0.11,0.05,0.15c0.04,0.04,0.09,0.06,0.15,0.05h0.38v0.53h-0.64
				c-0.39,0-0.55-0.16-0.55-0.55L96.85,129.64L96.85,129.64z"/>
			<path class="st1" d="M99.94,131.43c0-0.06-0.01-0.11-0.05-0.15c-0.04-0.04-0.09-0.06-0.15-0.05h-0.38v-0.53H100
				c0.39,0,0.55,0.16,0.55,0.53v2.18c0,0.71,0.12,1.34,0.99,1.34c1.02,0,1.66-0.91,1.66-1.89v-2.16h0.62v3.79
				c-0.01,0.05,0.01,0.11,0.05,0.15c0.04,0.04,0.09,0.06,0.15,0.05h0.38v0.53h-0.62c-0.38,0-0.55-0.16-0.55-0.5v-0.21
				c0-0.11,0.01-0.22,0.02-0.32h-0.02c-0.31,0.69-1,1.14-1.76,1.14c-1.07,0-1.52-0.57-1.52-1.75L99.94,131.43L99.94,131.43z"/>
			<path class="st1" d="M106.1,134.11c0.34,0.42,0.85,0.67,1.39,0.68c0.5,0,0.95-0.24,0.95-0.72c0-0.99-2.53-0.81-2.53-2.26
				c0-0.82,0.7-1.22,1.61-1.22c0.46,0,1.37,0.18,1.37,0.82v0.39h-0.58v-0.21c0-0.33-0.48-0.46-0.78-0.46
				c-0.63,0-1.01,0.21-1.01,0.65c0,1.01,2.53,0.78,2.53,2.28c0,0.75-0.68,1.26-1.58,1.26c-1.17,0-1.73-0.79-1.73-0.79L106.1,134.11
				L106.1,134.11z"/>
			<polygon class="st1" points="114.22,132.84 114.84,132.21 113.6,130.97 112.36,132.21 113.6,133.45 			"/>
			<polygon class="st1" points="86.44,132.84 87.07,132.21 85.83,130.97 84.58,132.21 85.83,133.45 			"/>
		</g>
	</g>
	<g id="Layer_9">
		<path class="st1" d="M106.3,75.45l-1.04-14.4l-5.27,8.38l0.97,13.59c0.02-0.03,0.05-0.06,0.07-0.1c-0.02,0.05-0.04,0.08-0.07,0.1
			l1.12,26.06c0.27-0.21,0.53-0.42,0.79-0.64c1.53-1.26,2.95-2.64,4.25-4.13c0.17-0.2,0.31-0.4,0.47-0.6L106.3,75.45L106.3,75.45z"
			/>
	</g>
	<g id="Layer_8">
		<path class="st1" d="M109.43,98.43l3.11,3.45c0.56-0.58,1.12-1.17,1.68-1.75c1.04-1.09,2.09-2.2,3.13-3.33l-3.11-3.45
			c-0.57,0.59-1.13,1.19-1.7,1.78C111.49,96.22,110.45,97.32,109.43,98.43"/>
	</g>
	<g id="Layer_7">
		<path class="st1" d="M93.96,86.04c-0.39-0.35-0.87-0.75-1.35-0.96c-1.07-0.49-1.59-0.63-2.37,0.19c-0.06,0.06-0.13,0.12-0.18,0.18
			c-1.16,1.31-2.1,2.79-2.8,4.4c-0.72,1.65-1.47,3.25-2.23,4.78c-0.95,1.8-0.92,3.25,0.1,4.36c0.61,0.7,1.56,1.1,2.88,1.2
			c1.25,0.11,2.52,0.02,3.75-0.26c0.47,0.68,0.75,1.7,0.85,3.07c0.1,1.37,0.16,2.54,0.16,3.49c-1.3,1.21-3.17,2.46-5.62,3.74
			c-2.44,1.28-4.89,2.15-7.35,2.62c-2.45,0.47-4.65,0.3-6.58-0.49c-1.93-0.79-3.03-2.67-3.28-5.62c-0.19-1.84-0.08-3.79,0.33-5.87
			c0.41-2.07,0.65-3.92,0.72-5.55c0-0.81-0.43-1.17-1.29-1.08c-0.21,0-1.08,1.9-1.22,2.15c-1.22,2.14-2.44,4.28-3.68,6.41
			c-0.8,1.39,2.02,0.12,2.25,1.24c0.08,0.38,0.14,0.77,0.17,1.15c0.01,1.35-0.12,2.69-0.38,4.02c-0.86,4.52-0.46,7.88,1.2,10.11
			c1.66,2.22,3.88,3.46,6.63,3.72c2.76,0.26,5.71-0.39,8.85-1.94s5.79-3.86,7.93-6.93c2.42-3.51,4.27-8.24,5.55-14.18
			C98.28,94.07,97.26,89.42,93.96,86.04L93.96,86.04z"/>
	</g>
	<g id="Layer_6_00000097471805394267907200000015499395947391219845_">
		<path class="st1" d="M113.01,104.96c-0.7,0.7-1.44,1.37-2.21,2.03c-2.8,2.37-5.96,4.29-9.11,6.15c-1.46,0.86-2.94,1.7-4.44,2.54
			c-4.32,2.39-7.16,4.16-8.52,5.33c-0.22,0.19-0.41,0.37-0.57,0.54c-0.59,0.61-0.84,1.08-0.74,1.39c0.05,0.16,0.17,0.29,0.32,0.36
			c0.18,0.08,0.36,0.14,0.55,0.17c0.36-0.04,0.74-0.08,1.16-0.14c2.35-0.32,5.09-0.81,8.22-1.48l0.74-0.17
			c3.71-0.87,6.69-2.09,8.96-3.66c2.43-1.66,4.25-3.64,5.45-5.94c0.85-1.57,1.44-3.75,1.8-6.54c0.1-0.78,0.17-1.54,0.23-2.3
			c0.02-0.21,0.02-0.41,0.03-0.62C114.34,103.47,113.71,104.25,113.01,104.96"/>
	</g>
	<g id="Layer_5">
		<path class="st1" d="M119.55,66.7c0.5,0.03,1,0.03,1.51,0c0.55-0.03,1.06-0.03,1.54-0.01c0.09,0,0.17,0.05,0.22,0.12
			c0.07,0.14,0.01,0.39-0.18,0.72c-0.69,1.01-1.42,1.98-2.21,2.91c-0.8,0.95-1.57,1.89-2.33,2.82c1.05-0.76,2.08-1.5,3.08-2.22
			c1.01-0.72,1.82-1.69,2.46-2.92c0.75-1.42,1.07-2.82,0.97-4.2c-0.02-0.43-0.13-0.86-0.32-1.25c-0.3-0.6-0.83-0.95-1.58-1.04
			c-0.7-0.06-1.4-0.01-2.08,0.15c-0.73,0.16-1.39,0.12-1.98-0.13c0.14-0.91,0.47-1.66,0.98-2.25c0.49-0.54,0.75-1.24,0.72-1.97
			l-0.09-3.59c-0.58,0.71-0.98,1.29-1.19,1.74c-0.53,1.07-1.09,3.19-1.69,6.33c-0.32,1.64-0.27,2.86,0.13,3.65
			C117.87,66.31,118.56,66.69,119.55,66.7"/>
	</g>
	<g id="Layer_4">
		<polygon class="st1" points="124.7,70.35 119.16,78.55 120.18,116.38 126,108.75 		"/>
	</g>
	<g id="v">
		<path class="st1" d="M99.16,91.75c0.03,0.01,0.07,0.03,0.1,0.03c0.56,0.08,1.5-0.22,2.8-0.91c5.25-2.78,10.27-6.7,12.99-12.1
			c3.28-6.51,2.05-13.93-0.93-20.31c-0.17-0.19-0.35-0.24-0.53-0.13l-0.03,0.02c-0.17,0.13-0.22,0.33-0.14,0.63
			c0.59,2.67,0.44,5.25-0.43,7.75c-0.96,2.67-2.22,5.21-3.77,7.59c-0.71,1.11-1.44,2.21-2.2,3.31c-0.92,1.36-1.88,2.71-2.86,4.06
			c-0.95,1.31-1.78,2.47-2.47,3.51c-1.21,1.8-2.03,3.18-2.47,4.14c-0.18,0.4-0.32,0.81-0.41,1.24c-0.1,0.46-0.08,0.79,0.06,0.98
			C98.95,91.64,99.05,91.71,99.16,91.75"/>
	</g>
	<g id="Layer_2_00000094588429945098033820000015953628490463972784_">
		<path class="st1" d="M91.61,86.43l-1.28-1.24l-3.25-3.05c-0.18,0.21-0.35,0.44-0.52,0.65l-2.93,3.63l-5.03-4.71
			c0.95-1.23,1.92-2.45,2.91-3.66c0.99-1.21,1.97-2.43,2.95-3.67l4.57,4.28c0.17-0.21,0.33-0.41,0.49-0.62
			c0.99-1.21,1.97-2.43,2.95-3.67l5.03,4.71c-0.98,1.26-1.95,2.49-2.93,3.7c-0.65,0.8-1.93,2.4-1.93,2.4L91.61,86.43"/>
	</g>
</g>
</svg>
