<?xml version="1.0" encoding="utf-8"?>
<!-- Generator: Adobe Illustrator 27.5.0, SVG Export Plug-In . SVG Version: 6.00 Build 0)  -->
<svg version="1.1" id="Layer_1" xmlns="http://www.w3.org/2000/svg" xmlns:xlink="http://www.w3.org/1999/xlink" x="0px" y="0px"
	 viewBox="0 0 279.82 189.15" style="enable-background:new 0 0 279.82 189.15;" xml:space="preserve">
<style type="text/css">
	.st0{fill:#7F7F7F;}
</style>
<g>
	<path class="st0" d="M164.41,119.83c0-0.11-0.01-0.21-0.02-0.32c-0.01-0.1-0.02-0.19-0.03-0.29c-0.01-0.12-0.03-0.24-0.04-0.36
		c-0.03-0.21-0.06-0.42-0.11-0.63c-0.02-0.12-0.05-0.24-0.08-0.36c-0.37-1.54-1.07-2.94-2.03-4.13c-0.03-0.03-0.05-0.07-0.08-0.1
		c-0.07-0.09-0.14-0.17-0.22-0.26c-0.05-0.05-0.09-0.11-0.14-0.16c-0.07-0.07-0.14-0.15-0.21-0.22c0,0-0.01-0.01-0.01-0.01
		c-0.05-0.05-0.09-0.1-0.14-0.14c-0.07-0.07-0.15-0.14-0.22-0.21c-0.03-0.03-0.06-0.05-0.09-0.08c-0.02-0.02-0.04-0.03-0.05-0.05
		c-0.07-0.07-0.15-0.13-0.22-0.19c-0.05-0.04-0.09-0.08-0.14-0.12c-0.07-0.06-0.15-0.12-0.22-0.18c-0.05-0.04-0.09-0.07-0.14-0.11
		c-0.07-0.05-0.15-0.11-0.22-0.16c-0.05-0.03-0.09-0.07-0.14-0.1c-0.07-0.05-0.15-0.1-0.22-0.15c-0.05-0.03-0.09-0.06-0.14-0.09
		c-0.07-0.05-0.15-0.09-0.22-0.14c-0.05-0.03-0.09-0.06-0.14-0.08c-0.05-0.03-0.1-0.05-0.14-0.08c-0.03-0.01-0.05-0.03-0.08-0.04
		c-0.05-0.03-0.09-0.05-0.14-0.08c-0.07-0.04-0.15-0.08-0.22-0.11c-0.05-0.02-0.09-0.05-0.14-0.07c-0.03-0.02-0.06-0.03-0.1-0.04
		c-0.04-0.02-0.08-0.04-0.12-0.06c-0.05-0.02-0.09-0.04-0.14-0.06c-0.07-0.03-0.15-0.06-0.22-0.09c-0.05-0.02-0.09-0.04-0.14-0.06
		c-0.07-0.03-0.15-0.06-0.22-0.08c-0.05-0.02-0.09-0.03-0.14-0.05c-0.07-0.03-0.15-0.05-0.22-0.07v0h-0.01
		c-0.04-0.01-0.09-0.03-0.13-0.04c-0.07-0.02-0.15-0.04-0.22-0.07c-0.05-0.01-0.09-0.03-0.14-0.04c-0.03-0.01-0.05-0.01-0.08-0.02
		c-0.05-0.01-0.09-0.02-0.14-0.03c-0.05-0.01-0.09-0.02-0.14-0.03c-0.07-0.02-0.15-0.03-0.22-0.05c-0.05-0.01-0.09-0.02-0.14-0.03
		c-0.07-0.01-0.15-0.03-0.22-0.04c-0.05-0.01-0.09-0.02-0.14-0.02c-0.07-0.01-0.15-0.02-0.22-0.03c-0.05-0.01-0.09-0.01-0.14-0.02
		c-0.36-0.04-0.72-0.07-1.08-0.08c-0.06,0-0.12,0-0.18,0c-0.02,0-0.03,0-0.05,0h-5.07c-1.12,0-2.21,0.1-3.27,0.3
		c-0.69,0.13-1.37,0.3-2.03,0.51c0,0,0,0,0,0c-0.11,0.03-0.22,0.07-0.32,0.11c-0.6,0.2-1.18,0.43-1.75,0.69
		c-0.11,0.05-0.22,0.1-0.33,0.16c-0.11,0.05-0.21,0.11-0.32,0.16c-0.5,0.25-0.98,0.53-1.45,0.83c-0.11,0.07-0.22,0.14-0.33,0.22
		c-0.62,0.42-1.21,0.87-1.77,1.36c-0.11,0.1-0.22,0.19-0.33,0.29c-0.64,0.58-1.23,1.21-1.77,1.88c-0.11,0.14-0.22,0.28-0.33,0.42
		c-0.32,0.42-0.63,0.86-0.91,1.31c-0.02,0.03-0.04,0.06-0.05,0.08c-0.27,0.44-0.52,0.88-0.75,1.34c-0.11,0.23-0.22,0.46-0.33,0.69
		c-0.98,2.18-1.53,4.61-1.53,7.16v6.56h22.66c1.56,0,3.03-0.33,4.36-0.94c0.25-0.11,0.49-0.23,0.72-0.36
		c0.35-0.19,0.69-0.4,1.01-0.63c0.16-0.12,0.33-0.24,0.48-0.36c0.24-0.19,0.48-0.4,0.71-0.61c0.12-0.12,0.25-0.24,0.36-0.36
		c0.21-0.22,0.41-0.45,0.6-0.69c0.1-0.12,0.19-0.24,0.28-0.36c0.02-0.03,0.05-0.06,0.07-0.09c0.13-0.19,0.26-0.38,0.38-0.57
		c0.07-0.11,0.14-0.22,0.2-0.33h0.03l-0.02-0.02c0,0,0-0.01,0-0.01c0.74-1.29,1.21-2.75,1.34-4.31c0.02-0.29,0.04-0.58,0.04-0.88
		v-3.03c0-0.04,0-0.07,0-0.11C164.42,120.07,164.42,119.95,164.41,119.83L164.41,119.83z M157.67,121.14v1.74
		c0,0.08,0,0.15-0.01,0.23c-0.02,0.38-0.07,0.75-0.16,1.1c-0.01,0.02-0.01,0.04-0.02,0.06c-0.1,0.38-0.25,0.75-0.42,1.09
		c-0.06,0.11-0.12,0.23-0.19,0.33c-0.29,0.47-0.65,0.89-1.07,1.25c-0.94,0.81-2.17,1.3-3.52,1.3h-14.53v-1.03
		c0-1.22,0.19-2.39,0.55-3.49c0.09-0.28,0.19-0.55,0.3-0.82c0.08-0.21,0.17-0.41,0.27-0.61c0.04-0.08,0.08-0.16,0.12-0.24
		c0.1-0.2,0.21-0.4,0.33-0.6c0.08-0.14,0.17-0.28,0.26-0.42c0.04-0.06,0.07-0.11,0.11-0.17c0.28-0.42,0.59-0.82,0.92-1.2l0.22-0.22
		h-0.01l-0.01-0.01c0.09-0.09,0.18-0.19,0.27-0.28c0.11-0.11,0.22-0.21,0.33-0.32c0.07-0.07,0.14-0.13,0.22-0.19
		c0.48-0.42,0.99-0.8,1.53-1.14c0.11-0.07,0.22-0.13,0.33-0.2c1.22-0.71,2.59-1.19,4.04-1.41c0.56-0.08,1.13-0.13,1.71-0.13h3.04
		c1.74,0,3.28,0.82,4.27,2.09c0.09,0.12,0.18,0.24,0.26,0.36c0.13,0.2,0.25,0.41,0.35,0.63c0.06,0.12,0.11,0.24,0.15,0.36
		c0.04,0.1,0.07,0.19,0.1,0.29c0.03,0.11,0.06,0.21,0.09,0.32c0.03,0.12,0.06,0.24,0.08,0.36c0.04,0.22,0.07,0.45,0.08,0.69
		C157.66,120.97,157.66,121.05,157.67,121.14L157.67,121.14z"/>
	<path class="st0" d="M128.2,115.15c-0.61-3.02-3.27-5.29-6.47-5.29h-5.58v17.56c0,0.26,0.02,0.51,0.04,0.76
		c0.07,0.59,0.22,1.16,0.44,1.69c0.03,0.06,0.05,0.12,0.08,0.19c0.07,0.15,0.14,0.3,0.22,0.44c0.04,0.07,0.08,0.14,0.12,0.21
		c0.03,0.05,0.06,0.09,0.08,0.14c0.32,0.5,0.7,0.96,1.14,1.35c0.12,0.11,0.24,0.21,0.37,0.31c0.44,0.34,0.93,0.63,1.45,0.85
		c0.76,0.32,1.6,0.5,2.49,0.5h5.76v-17.39c0-0.07,0-0.14,0-0.21C128.31,115.88,128.27,115.51,128.2,115.15L128.2,115.15z"/>
	<path class="st0" d="M163.62,98.17c-0.13-0.31-0.27-0.6-0.43-0.89c-0.36-0.67-0.79-1.29-1.28-1.86c-0.08-0.1-0.17-0.2-0.26-0.29
		c-0.16-0.17-0.32-0.33-0.48-0.49c-0.1-0.09-0.2-0.18-0.3-0.27c-0.18-0.16-0.36-0.31-0.54-0.45c-0.11-0.09-0.23-0.18-0.35-0.26
		c-0.25-0.18-0.5-0.34-0.76-0.5c-0.16-0.09-0.32-0.18-0.48-0.27c-0.45-0.24-0.92-0.44-1.41-0.62c-0.39-0.14-0.78-0.25-1.19-0.34
		c-0.49-0.11-1-0.19-1.52-0.23c-0.18-0.01-0.36-0.02-0.55-0.03c-0.11,0-0.22-0.01-0.32-0.01h-37.59v1.39
		c0,5.93,4.8,10.73,10.73,10.73h37.59v-1.39c0-0.82-0.09-1.62-0.27-2.38C164.06,99.36,163.86,98.75,163.62,98.17L163.62,98.17z"/>
	<path class="st0" d="M126.52,73.37c-0.44,0.01-0.88,0.06-1.3,0.12c-0.65,0.1-1.29,0.26-1.9,0.48c-0.42,0.15-0.82,0.32-1.21,0.51
		c-0.45,0.23-0.89,0.48-1.3,0.77c-0.04,0.03-0.08,0.05-0.12,0.08c-0.15,0.11-0.3,0.22-0.44,0.33c-0.06,0.04-0.11,0.09-0.17,0.13
		c-0.26,0.21-0.51,0.44-0.75,0.67c-0.14,0.14-0.28,0.29-0.42,0.44c-0.24,0.27-0.47,0.54-0.68,0.83c-0.14,0.19-0.27,0.38-0.4,0.58
		c-0.26,0.41-0.49,0.84-0.7,1.28c-0.15,0.32-0.28,0.66-0.4,1c-0.38,1.1-0.58,2.27-0.58,3.5v1.4h12.08V73.37h-1.34
		C126.77,73.37,126.64,73.37,126.52,73.37L126.52,73.37z"/>
	<path class="st0" d="M158.92,85.51h5.54V73.37h-1.34c-2.32,0-4.46,0.73-6.21,1.98c-0.16,0.11-0.31,0.23-0.46,0.34
		c-0.24,0.19-0.47,0.39-0.69,0.6c-0.12,0.11-0.23,0.23-0.35,0.34c-0.09,0.09-0.18,0.18-0.26,0.28c-0.09,0.1-0.18,0.2-0.27,0.31
		c-0.09,0.11-0.19,0.23-0.28,0.34c-0.17,0.22-0.33,0.44-0.48,0.67c-0.08,0.12-0.16,0.25-0.23,0.37c-0.14,0.24-0.27,0.48-0.4,0.73
		c-0.07,0.14-0.14,0.29-0.2,0.43c-0.26,0.59-0.47,1.22-0.63,1.86c-0.19,0.79-0.29,1.62-0.29,2.48v1.4L158.92,85.51L158.92,85.51z"/>
	<path class="st0" d="M146.34,81.8v-8.44H145c-2.65,0-5.08,0.96-6.95,2.55c0,0,0,0-0.01,0.01c-0.12,0.1-0.23,0.2-0.35,0.31
		c-0.54,0.5-1.02,1.05-1.45,1.65c-0.07,0.1-0.15,0.21-0.22,0.31c-0.35,0.53-0.66,1.1-0.91,1.69c-0.04,0.1-0.09,0.21-0.13,0.31
		c-0.21,0.54-0.38,1.11-0.5,1.69c-0.02,0.1-0.04,0.21-0.06,0.31c-0.1,0.55-0.15,1.11-0.16,1.69c0,0.07,0,0.14,0,0.21v1.4h12.08
		v-1.94l0.01-0.01l-0.01-0.01L146.34,81.8L146.34,81.8z"/>
	<path class="st0" d="M116.26,67.56h26.09c0.62,0,1.23-0.08,1.81-0.23c0.3-0.08,0.59-0.18,0.88-0.29c0.34-0.14,0.67-0.31,0.99-0.5
		c0.15-0.09,0.3-0.19,0.45-0.29c0.24-0.17,0.47-0.36,0.69-0.56c0.1-0.1,0.2-0.19,0.3-0.29c0.02-0.02,0.05-0.05,0.07-0.07
		c0.14-0.15,0.27-0.3,0.4-0.46c0.08-0.1,0.15-0.19,0.22-0.29c0.71-1,1.17-2.2,1.28-3.5c0.02-0.2,0.03-0.4,0.03-0.61v-5.02
		c0-0.06-0.05-0.11-0.11-0.11h-28.2c-0.02,0-0.05,0-0.07,0c-0.18,0-0.35,0.01-0.53,0.03c-0.15,0.02-0.29,0.04-0.44,0.07
		c-0.18,0.04-0.35,0.08-0.53,0.14c-0.15,0.05-0.3,0.11-0.44,0.17c-0.18,0.08-0.36,0.17-0.53,0.27c-0.15,0.09-0.3,0.19-0.44,0.29
		c-0.19,0.14-0.36,0.29-0.53,0.45c-0.16,0.15-0.3,0.32-0.44,0.49c-0.67,0.85-1.07,1.92-1.07,3.09v7.13
		C116.15,67.51,116.2,67.56,116.26,67.56z"/>
	<polygon class="st0" points="153.94,62.98 154.34,63.38 154.74,63.78 154.76,63.8 154.97,64.01 155.1,64.14 155.23,64.27 
		155.31,64.35 155.44,64.48 155.65,64.69 155.78,64.83 155.99,65.03 156.13,65.17 156.34,65.38 156.47,65.51 156.68,65.72 
		156.81,65.85 156.87,65.91 156.92,65.96 157.02,66.06 157.15,66.2 157.36,66.4 157.5,66.54 157.71,66.75 157.84,66.88 
		158.05,67.09 158.18,67.22 158.39,67.43 158.51,67.56 158.52,67.55 158.74,67.33 158.87,67.2 159.08,66.98 159.22,66.85 
		159.43,66.63 159.57,66.5 159.78,66.28 159.92,66.15 160.08,65.99 160.08,65.99 160.13,65.94 160.13,65.94 160.26,65.8 
		160.47,65.59 160.61,65.45 160.82,65.24 160.96,65.1 161.17,64.89 161.31,64.76 161.52,64.54 161.63,64.43 161.65,64.41 
		161.65,64.41 161.74,64.32 161.87,64.18 162,64.04 162.21,63.81 162.25,63.77 162.62,63.38 163.17,62.79 163.28,62.68 
		164.52,61.37 158.47,55.32 152.56,61.6 153.63,62.67 	"/>
</g>
</svg>
