<?xml version="1.0" encoding="utf-8"?>
<!-- Generator: Adobe Illustrator 27.5.0, SVG Export Plug-In . SVG Version: 6.00 Build 0)  -->
<svg version="1.1" id="Layer_1" xmlns="http://www.w3.org/2000/svg" xmlns:xlink="http://www.w3.org/1999/xlink" x="0px" y="0px"
	 viewBox="0 0 279.82 189.15" style="enable-background:new 0 0 279.82 189.15;" xml:space="preserve">
<style type="text/css">
	.st0{fill:#7F7F7F;}
	.st1{clip-path:url(#SVGID_00000059267546407252761440000001719657157308516773_);}
</style>
<path class="st0" d="M145.17,117.94c0-0.01,0-0.01-0.01-0.01L145.17,117.94z M134.24,94.16v0.01h-2.27l2.27,5.57
	c0,1.41,0,2.93,0,4.33l0.01,11.25c0,0.52,0,1.04,0.06,1.51c-1.16,0.41-2.43,0.7-3.59,0.7c-2.21,0-4-1.04-4-4.41l-0.02-18.96
	l-10.89,0.01h-2.33l2.33,5.72l0.01,14.8c0.01,6.15,4.18,9.62,9.63,9.62c0.22,0,9.02-5.62,9.21-5.69c0,0,0,0,0,0h0c0,0,0,0,0,0
	c0,0,0,0,0,0c0.08,0.08,2.38,5.1,2.38,5.1h6.54l-0.01,0.02h3.96l-2.36-5.8c0,0.02-0.01,0.08-0.02,0.15c0-1.39,0-2.89,0-4.29
	l-0.01-19.66L134.24,94.16L134.24,94.16z M191.64,104.78c-0.06-3.59,0.4-8.34,3.77-8.35c3.42,0,3.71,4.81,3.72,8.29l-7.36,2.32
	C191.71,106.29,191.64,105.54,191.64,104.78 M195.6,93.76h-0.02c-9.34,0.01-15.77,5.52-15.76,15.26
	c0.01,10.84,8.31,15.36,15.5,15.35c8.06-0.01,12.64-5.69,13.79-9.41l-0.23-0.17c-3.3,1.86-5.68,2.56-8.52,2.56
	c-5.45,0.01-7.71-3.59-8.41-8.8l17.86-0.01v-0.14C209.75,101.7,206.52,93.76,195.6,93.76L195.6,93.76 M155.02,127.14
	c1.05,0.29,2.26,0.4,3.65,0.4l9.63-0.01c3.07-0.01,4.17,0.57,4.17,1.91c0.01,2.43-5.44,3.08-8.7,3.08h-0.03
	C157.8,132.52,155.54,130.09,155.02,127.14 M159.76,104.23c-0.01-3.65,0.51-7.88,2.95-7.89c2.44,0,3.08,4.23,3.08,7.88
	c0,3.66-0.63,7.95-3.07,7.95C160.28,112.17,159.76,107.88,159.76,104.23 M169.72,95.12c-2.26-0.92-4.76-1.33-7.02-1.33
	c-5.8,0.01-13.45,3.03-13.45,10.39c0.01,4.64,3.02,7.6,6.73,9.16c-4.23,1.05-6.6,3.31-6.6,7.07c0,1.33,0.3,3.13,1.63,4.58
	c-0.98,1.16-1.56,2.56-1.56,4.01c0,5.91,9.98,6.31,13.52,6.31c7.77-0.01,15.83-1.87,15.82-9.47c-0.01-5.45-3.43-8.75-10.04-8.74
	l-9.57,0.01c-2.15,0-3.3-0.12-3.3-1.1c0-0.93,0.99-1.57,2.26-1.98c1.57,0.47,3.14,0.64,4.59,0.64c5.8-0.01,13.56-3.14,13.56-10.51
	c0-3.88-2.09-6.55-4.93-8.18c2.67-0.7,4.99-0.06,6.72,0.92l0.18-0.12l1.44-8.12c-0.57-0.08-1.11-0.12-1.62-0.12
	C173.48,88.55,170.97,91.63,169.72,95.12 M97.53,82.01v0.01h-2.08l2.08,5.09c0,1.51,0,3.21,0,4.81l0.01,6.85l-12.81,5.15v-2.67
	l-0.01-9.32c0-1.55,0-3.19,0-4.66l2.14-5.25h-2.14v-0.01l-9.89,0.01v-0.01h-3.96l2.27,5.56c0,1.39,0,2.91,0,4.36v21.92
	c0,1.43,0,2.93,0,4.31l-2.27,5.57h2.27v0.04l11.58-0.01v-0.02h2.14l-2.14-5.24c0-1.47,0-3.1,0-4.65l0.01-8.37l12.82,0.03l0.01,8.32
	c0,1.59,0,3.26,0,4.76l-2.1,5.14h2.09v0.01l11.58-0.01l0,0h2.3l-2.3-5.65c0-1.37,0-2.85,0-4.27V91.91c0-1.41,0-2.88,0-4.24l2.3-5.65
	h-2.3v-0.03L97.53,82.01L97.53,82.01z M128.11,71.99c0.06-0.02,0.15-0.06,0.25-0.11l7.68-3.52l4.55-1.64l-1.91-1.45l2.12-2.73
	c0.06,0,11.46,9.1,12.69,9.46c-0.47-1.64-12.7-18.13-12.7-18.13S128.58,70.35,128.11,71.99"/>
<g>
	<defs>
		<path id="SVGID_1_" d="M145.17,117.94c0-0.01,0-0.01-0.01-0.01L145.17,117.94z M134.24,94.16v0.01h-2.27l2.27,5.57
			c0,1.41,0,2.93,0,4.33l0.01,11.25c0,0.52,0,1.04,0.06,1.51c-1.16,0.41-2.43,0.7-3.59,0.7c-2.21,0-4-1.04-4-4.41l-0.02-18.96
			l-10.89,0.01h-2.33l2.33,5.72l0.01,14.8c0.01,6.15,4.18,9.62,9.63,9.62c0.22,0,9.02-5.62,9.21-5.69c0,0,0,0,0,0h0c0,0,0,0,0,0
			c0,0,0,0,0,0c0.08,0.08,2.38,5.1,2.38,5.1h6.54l-0.01,0.02h3.96l-2.36-5.8c0,0.02-0.01,0.08-0.02,0.15c0-1.39,0-2.89,0-4.29
			l-0.01-19.66L134.24,94.16L134.24,94.16z M191.64,104.78c-0.06-3.59,0.4-8.34,3.77-8.35c3.42,0,3.71,4.81,3.72,8.29l-7.36,2.32
			C191.71,106.29,191.64,105.54,191.64,104.78 M195.6,93.76h-0.02c-9.34,0.01-15.77,5.52-15.76,15.26
			c0.01,10.84,8.31,15.36,15.5,15.35c8.06-0.01,12.64-5.69,13.79-9.41l-0.23-0.17c-3.3,1.86-5.68,2.56-8.52,2.56
			c-5.45,0.01-7.71-3.59-8.41-8.8l17.86-0.01v-0.14C209.75,101.7,206.52,93.76,195.6,93.76L195.6,93.76 M155.02,127.14
			c1.05,0.29,2.26,0.4,3.65,0.4l9.63-0.01c3.07-0.01,4.17,0.57,4.17,1.91c0.01,2.43-5.44,3.08-8.7,3.08h-0.03
			C157.8,132.52,155.54,130.09,155.02,127.14 M159.76,104.23c-0.01-3.65,0.51-7.88,2.95-7.89c2.44,0,3.08,4.23,3.08,7.88
			c0,3.66-0.63,7.95-3.07,7.95C160.28,112.17,159.76,107.88,159.76,104.23 M169.72,95.12c-2.26-0.92-4.76-1.33-7.02-1.33
			c-5.8,0.01-13.45,3.03-13.45,10.39c0.01,4.64,3.02,7.6,6.73,9.16c-4.23,1.05-6.6,3.31-6.6,7.07c0,1.33,0.3,3.13,1.63,4.58
			c-0.98,1.16-1.56,2.56-1.56,4.01c0,5.91,9.98,6.31,13.52,6.31c7.77-0.01,15.83-1.87,15.82-9.47c-0.01-5.45-3.43-8.75-10.04-8.74
			l-9.57,0.01c-2.15,0-3.3-0.12-3.3-1.1c0-0.93,0.99-1.57,2.26-1.98c1.57,0.47,3.14,0.64,4.59,0.64c5.8-0.01,13.56-3.14,13.56-10.51
			c0-3.88-2.09-6.55-4.93-8.18c2.67-0.7,4.99-0.06,6.72,0.92l0.18-0.12l1.44-8.12c-0.57-0.08-1.11-0.12-1.62-0.12
			C173.48,88.55,170.97,91.63,169.72,95.12 M97.53,82.01v0.01h-2.08l2.08,5.09c0,1.51,0,3.21,0,4.81l0.01,6.85l-12.81,5.15v-2.67
			l-0.01-9.32c0-1.55,0-3.19,0-4.66l2.14-5.25h-2.14v-0.01l-9.89,0.01v-0.01h-3.96l2.27,5.56c0,1.39,0,2.91,0,4.36v21.92
			c0,1.43,0,2.93,0,4.31l-2.27,5.57h2.27v0.04l11.58-0.01v-0.02h2.14l-2.14-5.24c0-1.47,0-3.1,0-4.65l0.01-8.37l12.82,0.03
			l0.01,8.32c0,1.59,0,3.26,0,4.76l-2.1,5.14h2.09v0.01l11.58-0.01l0,0h2.3l-2.3-5.65c0-1.37,0-2.85,0-4.27V91.91
			c0-1.41,0-2.88,0-4.24l2.3-5.65h-2.3v-0.03L97.53,82.01L97.53,82.01z M128.11,71.99c0.06-0.02,0.15-0.06,0.25-0.11l7.68-3.52
			l4.55-1.64l-1.91-1.45l2.12-2.73c0.06,0,11.46,9.1,12.69,9.46c-0.47-1.64-12.7-18.13-12.7-18.13S128.58,70.35,128.11,71.99"/>
	</defs>
	<use xlink:href="#SVGID_1_"  style="overflow:visible;fill:#7F7F7F;"/>
	<clipPath id="SVGID_00000159470948984176030730000004381141408854884480_">
		<use xlink:href="#SVGID_1_"  style="overflow:visible;"/>
	</clipPath>
	<g style="clip-path:url(#SVGID_00000159470948984176030730000004381141408854884480_);">
		<rect x="70.86" y="53.86" class="st0" width="138.94" height="81.44"/>
	</g>
</g>
</svg>
