<?xml version="1.0" encoding="utf-8"?>
<!-- Generator: Adobe Illustrator 27.5.0, SVG Export Plug-In . SVG Version: 6.00 Build 0)  -->
<svg version="1.1" id="Layer_1" xmlns="http://www.w3.org/2000/svg" xmlns:xlink="http://www.w3.org/1999/xlink" x="0px" y="0px"
	 viewBox="0 0 279.82 189.15" style="enable-background:new 0 0 279.82 189.15;" xml:space="preserve">
<style type="text/css">
	.st0{fill-rule:evenodd;clip-rule:evenodd;fill:#7F7F7F;}
</style>
<g>
	<path class="st0" d="M62.41,63.53c1.4,0,2.57,0.45,3.52,1.34c0.95,0.89,1.42,1.99,1.42,3.28c0,1.4-0.47,2.54-1.42,3.43
		c-0.95,0.9-2.13,1.34-3.52,1.34c-1.29,0-2.4-0.44-3.3-1.34c-0.89-0.89-1.35-2.03-1.35-3.43c0-1.29,0.45-2.38,1.35-3.28
		C60.02,63.98,61.12,63.53,62.41,63.53z"/>
	<g id="Desktop_00000044168730359652208800000002157922802982239623_">
		<g>
			
				<g id="Menu---Transparent-Background_00000161601031930119931160000017645535975370372503_" transform="translate(-30.000000, -20.000000)">
				<path id="Logo-white_00000054951988678155552220000004330000396443337384_" class="st0" d="M96.01,103.21v42.05
					c0,1.09,0.15,1.77,0.45,2.01c0.3,0.25,1.25,0.37,2.85,0.37v6.11c-0.8,0.2-1.37,0.3-1.72,0.3h-1.27c-2.3,0-4.12-0.5-5.47-1.49
					c-1.35-0.99-2.03-2.53-2.03-4.62v-44.73H96.01z"/>
			</g>
		</g>
	</g>
	<polygon class="st0" points="81.74,63.38 81.74,105.88 104.21,83.21 113.8,83.21 94.02,103.19 113.95,133.46 105.26,133.46 
		88.93,107.97 81.74,115.28 81.74,133.46 74.54,133.46 74.54,63.38 	"/>
	<path class="st0" d="M125.63,68.6v14.61h9.44v6.26h-9.44v32.66c0,2.19,0.4,3.63,1.2,4.32c0.8,0.7,1.95,1.04,3.45,1.04
		c1.8,0,3.54-0.49,5.24-1.49l2.7,5.52c-1.3,0.8-2.67,1.44-4.12,1.94c-1.45,0.5-3.12,0.75-5.02,0.75c-3.49,0-6.14-0.84-7.94-2.53
		c-1.8-1.69-2.7-4.87-2.7-9.54V68.6H125.63z"/>
	<polygon class="st0" points="146.3,83.21 160.08,124.67 174.17,83.21 181.96,83.21 163.53,133.47 156.79,133.47 138.35,83.21 	"/>
	<path class="st0" d="M220.04,127.05c-0.4-0.4-0.6-1.14-0.6-2.24v-26.4c0-10.74-6.14-16.1-18.43-16.1c-3.89,0-7.29,0.65-10.19,1.94
		c-2.9,1.29-5.39,3.38-7.49,6.26l4.8,4.48c1.6-2.19,3.37-3.75,5.31-4.7c1.95-0.95,4.42-1.42,7.42-1.42c4.1,0,7.02,0.77,8.76,2.31
		c1.75,1.54,2.62,4.1,2.62,7.68v5.07h-12.89c-5.5,0-9.79,1.39-12.89,4.17c-3.1,2.79-4.65,6.51-4.65,11.18c0,4.88,1.5,8.55,4.5,11.03
		c3,2.49,7.29,3.73,12.89,3.73c3,0,5.59-0.42,7.79-1.27c2.2-0.84,4.14-2.26,5.85-4.25c0,1.79,0.65,3.15,1.95,4.1
		c1.3,0.95,3,1.42,5.09,1.42h1.57c0.45,0,0.93-0.1,1.43-0.3v-6.11C221.39,127.65,220.44,127.45,220.04,127.05z M212.25,115.42
		c0,4.28-1.15,7.38-3.45,9.32c-2.3,1.94-5.35,2.91-9.14,2.91c-7.19,0-10.79-2.83-10.79-8.5c0-2.88,0.9-5.12,2.7-6.71
		c1.79-1.59,4.44-2.39,7.94-2.39h12.73V115.42z"/>
	<path class="st0" d="M204.25,55.19c3.32,0,4.59,1.34,4.59,1.34l-1.54,2.44l-0.03-0.02c-0.2-0.16-1.49-1.13-3.31-0.77
		c-1.53,0.3-2.82,1.28-2.82,4.04c0,2.36,1.47,3.46,3.07,3.59c1.93,0.16,3.08-0.76,3.08-0.76l1.54,2.17c0,0-1.31,1.51-4.4,1.51
		c-2.71,0-4.76-1.27-5.53-2.36c-1.77-2.5-1.37-6.4-0.34-7.95C199.77,56.61,201.58,55.19,204.25,55.19z"/>
	<path class="st0" d="M216.01,55.3c-3.72,0-6.73,3-6.73,6.7c0,3.7,3.01,6.7,6.73,6.7c3.72,0,6.73-3,6.73-6.7
		C222.74,58.3,219.72,55.3,216.01,55.3z M216.01,65.69c-2.05,0-3.7-1.65-3.7-3.69s1.66-3.69,3.7-3.69c2.04,0,3.7,1.65,3.7,3.69
		S218.05,65.69,216.01,65.69z"/>
	<path class="st0" d="M162.75,55.49l-0.75,3l-0.04-0.01c-0.34-0.08-2.56-0.55-3.74,0.1c-1.24,0.68-1.46,2.21-1.5,2.89
		c-0.14,1.92,0.03,7.1,0.03,7.1h-3.55l0-0.05c0-0.32,0.03-2.12,0.05-3.95l0.01-0.58c0.01-1.25,0.03-2.46,0.03-3.15
		c0.02-3.59,3.1-4.89,4.17-5.23C159.48,54.96,162.75,55.49,162.75,55.49z"/>
	<path class="st0" d="M147.99,55.68c-1.39-0.46-4.19-0.66-5.97,0.14c-3.14,1.42-3.83,3.64-3.83,6.69c0,3.6,2.78,5.85,6.02,5.9
		c0.95,0.01,2.22,0.02,3.42,0.02h1.82c0.08,0,0.16,0,0.23,0l0.43,0c0.07,0,0.13,0,0.2,0l0.35,0c0.05,0,0.1,0,0.15,0l0.25,0
		c0.04,0,0.07,0,0.1,0l0.18,0v-7.68C151.34,59.47,150.59,56.55,147.99,55.68z M147.82,65.66h-0.05c-0.02,0-0.04,0-0.06,0l-0.31,0
		c-0.04,0-0.09,0-0.14,0h-1.49c-0.48,0-0.96,0-1.34-0.01c-1.55-0.02-2.88-1.31-2.88-3.37c0-1.74,0.33-3.01,1.83-3.82
		c0.85-0.46,2.19-0.35,2.85-0.08c1.24,0.49,1.6,2.16,1.6,2.89V65.66z"/>
	<path class="st0" d="M172.4,55.68c-1.39-0.46-4.19-0.66-5.97,0.14c-3.14,1.42-3.83,3.64-3.83,6.69c0,3.6,2.78,5.85,6.02,5.9
		c0.95,0.01,2.22,0.02,3.42,0.02h1.82c0.08,0,0.16,0,0.23,0l0.43,0c0.07,0,0.13,0,0.2,0l0.35,0c0.05,0,0.1,0,0.15,0l0.25,0
		c0.04,0,0.07,0,0.1,0l0.18,0v-7.68C175.75,59.47,175,56.55,172.4,55.68z M172.23,65.66h-0.05c-0.02,0-0.04,0-0.06,0l-0.31,0
		c-0.04,0-0.09,0-0.14,0h-1.49l-0.41,0c-0.34,0-0.66-0.01-0.93-0.01c-1.55-0.02-2.88-1.31-2.88-3.37c0-1.74,0.33-3.01,1.83-3.82
		c0.85-0.46,2.19-0.35,2.85-0.08c1.24,0.49,1.6,2.16,1.6,2.89V65.66z"/>
	<path class="st0" d="M191.69,55.2c2.44,0.13,4.33,1.56,4.35,3.73c0.03,3.04,0.12,9.5,0.12,9.5h-3.47c0,0,0.25-6.63,0-8.82
		c-0.06-0.53-0.32-1.37-1.54-1.46c-1.3-0.1-2.42,0.3-2.42,0.3v9.98h-3.48l0-0.41c0-0.04,0-0.09,0-0.14l0-0.52c0-0.07,0-0.13,0-0.2
		l0-0.45c0-0.08,0-0.16,0-0.24l0-0.51c0-0.09,0-0.18,0-0.27l0-0.56c0-0.28,0-0.58,0-0.87l0-0.59c0-0.3,0-0.6,0-0.89l0-0.58
		c0-0.09,0-0.19,0-0.28l0-0.54c0-0.09,0-0.18,0-0.26l0-0.72c0-0.07,0-0.15,0-0.22l0-0.57l0,0c0-0.64-0.34-1.46-2.06-1.54
		c-1.03-0.05-2,0.29-2,0.29v10.07h-3.49V56.14c0,0,3.16-0.94,5.16-0.94c2.93,0,3.92,0.78,3.92,0.78S189.04,55.07,191.69,55.2z"/>
</g>
</svg>
