<?xml version="1.0" encoding="utf-8"?>
<!-- Generator: Adobe Illustrator 27.5.0, SVG Export Plug-In . SVG Version: 6.00 Build 0)  -->
<svg version="1.1" id="Layer_1" xmlns="http://www.w3.org/2000/svg" xmlns:xlink="http://www.w3.org/1999/xlink" x="0px" y="0px"
	 viewBox="0 0 279.82 189.15" style="enable-background:new 0 0 279.82 189.15;" xml:space="preserve">
<style type="text/css">
	.st0{fill:#7F7F7F;}
</style>
<g>
	<path class="st0" d="M84.15,61.88c-17.75,2.71-31.36,8.6-43.01,16.65c-0.21,0.14-0.29,0.47-0.19,0.73c0.1,0.26,0.36,0.37,0.57,0.26
		c9.32-4.77,16.57-7.02,20.97-8.21c13.45-3.79,26.22-4.42,38.19-4.04c36.74,1.18,65.8,16.99,82.9,21.23
		c2.21,0.55,7.83-5.16,6.18-5.63C165.46,75.94,131.53,54.87,84.15,61.88"/>
	<path class="st0" d="M239.76,72.5c-0.04-0.12-0.15-0.17-0.25-0.13c-8.87,4.02-17.11,4.93-26.53,4.17
		c-16.32-1.32-28.99-8.98-36.52-11.24c-2.24-0.67-8.63,4.63-7.35,5.06c10.7,3.61,25.44,13.72,46.63,11.63
		c10.61-1.1,16.38-4.45,23.92-9.17C239.76,72.77,239.8,72.62,239.76,72.5"/>
	<path class="st0" d="M199.84,85.27c-1.61-0.29-3.12-0.81-4.25-0.89c-1.7-0.11-6.07,5.57-4.88,6.11c0.59,0.27,3.14,0.79,4.33,0.88
		C196.6,91.5,201.35,85.54,199.84,85.27"/>
	<path class="st0" d="M43.56,124.41l3.96-5.35c0.07-0.12,0.1-0.22,0.08-0.3c-0.02-0.08-0.1-0.12-0.23-0.12h-0.91l-3.66,4.75
		c-0.15,0.2-0.27,0.37-0.36,0.52c-0.08,0.15-0.12,0.31-0.12,0.5c0,0.2,0.04,0.36,0.12,0.48c0.08,0.12,0.19,0.26,0.33,0.41l4.3,5.02
		h1.04c0.17,0,0.25-0.04,0.26-0.12c0.01-0.08-0.03-0.17-0.11-0.26C48.23,129.92,46.67,128.08,43.56,124.41"/>
	<path class="st0" d="M41.2,118.71c-0.06,0.05-0.08,0.15-0.08,0.29v11.31h1.17v-11.68h-0.85C41.34,118.64,41.26,118.66,41.2,118.71"
		/>
	<path class="st0" d="M50.94,121.57c0.22,0,0.4-0.08,0.55-0.24c0.15-0.16,0.22-0.37,0.22-0.64c0-0.27-0.08-0.48-0.22-0.63
		c-0.15-0.15-0.33-0.23-0.55-0.23c-0.21,0-0.39,0.08-0.54,0.23c-0.15,0.15-0.23,0.36-0.23,0.63c0,0.27,0.08,0.48,0.23,0.64
		C50.55,121.49,50.73,121.57,50.94,121.57"/>
	<path class="st0" d="M52.22,129.01h-0.21c-0.08,0-0.15-0.01-0.22-0.03c-0.07-0.02-0.12-0.06-0.17-0.12
		c-0.05-0.06-0.07-0.15-0.07-0.28v-5.52c0-0.16-0.03-0.27-0.08-0.31s-0.14-0.06-0.26-0.06h-0.86v5.95c0,0.33,0.04,0.6,0.12,0.82
		c0.08,0.22,0.18,0.39,0.29,0.53c0.12,0.13,0.25,0.23,0.39,0.28c0.14,0.05,0.28,0.08,0.41,0.08h0.93v-0.98
		c0-0.11-0.02-0.19-0.06-0.25C52.38,129.04,52.31,129.01,52.22,129.01"/>
	<path class="st0" d="M60.09,124.16c-0.05-0.17-0.12-0.34-0.2-0.5c-0.08-0.16-0.2-0.33-0.35-0.48c-0.15-0.16-0.37-0.28-0.63-0.37
		c-0.27-0.09-0.67-0.13-1.22-0.13c-0.51,0-0.96,0.05-1.35,0.14c-0.4,0.09-0.75,0.2-1.07,0.33c-0.31,0.12-0.6,0.27-0.86,0.43v6.75
		h0.86c0.13,0,0.23-0.04,0.29-0.11c0.06-0.08,0.09-0.17,0.09-0.29v-5.75c0.21-0.09,0.48-0.19,0.83-0.27
		c0.35-0.09,0.67-0.13,0.96-0.13c0.23,0,0.44,0.01,0.63,0.04c0.2,0.03,0.37,0.1,0.51,0.2c0.14,0.1,0.26,0.25,0.35,0.45
		c0.09,0.19,0.13,0.45,0.13,0.78v5.09h0.9c0.1,0,0.18-0.04,0.22-0.11c0.05-0.08,0.07-0.17,0.07-0.29v-4.54
		c0-0.22-0.01-0.44-0.04-0.65C60.18,124.52,60.14,124.33,60.09,124.16"/>
	<path class="st0" d="M66.68,122.68c-0.36-0.09-0.75-0.14-1.16-0.14c-0.47,0-0.88,0.07-1.23,0.21c-0.35,0.14-0.64,0.33-0.88,0.56
		c-0.24,0.23-0.44,0.49-0.59,0.78c-0.15,0.29-0.27,0.57-0.35,0.86c-0.08,0.29-0.14,0.56-0.17,0.83c-0.03,0.27-0.05,0.49-0.05,0.67
		c0,0.84,0.11,1.51,0.33,2.02c0.22,0.5,0.49,0.89,0.81,1.17c0.33,0.28,0.68,0.46,1.07,0.54c0.39,0.09,0.75,0.13,1.09,0.13
		c0.43,0,0.79-0.04,1.07-0.11c0.28-0.08,0.51-0.15,0.7-0.24v0.63c0,0.27-0.02,0.52-0.06,0.76c-0.04,0.24-0.13,0.45-0.28,0.64
		c-0.14,0.19-0.36,0.33-0.63,0.44c-0.28,0.1-0.65,0.16-1.11,0.16c-0.25,0-0.47-0.01-0.67-0.03c-0.2-0.02-0.38-0.06-0.54-0.1
		c-0.16-0.04-0.31-0.09-0.44-0.13l-0.17,0.88c-0.04,0.2-0.02,0.33,0.07,0.39c0.09,0.06,0.23,0.12,0.42,0.17
		c0.19,0.06,0.41,0.1,0.65,0.13c0.24,0.03,0.47,0.04,0.67,0.04c1.1,0,1.93-0.28,2.48-0.84c0.55-0.56,0.83-1.46,0.83-2.7v-6.94
		c-0.27-0.18-0.55-0.33-0.84-0.45C67.37,122.88,67.05,122.77,66.68,122.68 M67.3,128.81c-0.14,0.06-0.35,0.13-0.62,0.2
		c-0.27,0.08-0.62,0.11-1.05,0.11c-0.4,0-0.74-0.06-1.01-0.19c-0.27-0.13-0.49-0.31-0.65-0.55c-0.16-0.24-0.27-0.52-0.34-0.85
		c-0.07-0.33-0.1-0.7-0.1-1.1c0-0.98,0.18-1.68,0.53-2.11c0.36-0.42,0.91-0.63,1.68-0.63c0.34,0,0.63,0.03,0.86,0.09
		c0.23,0.06,0.47,0.13,0.7,0.23V128.81z"/>
	<path class="st0" d="M74.06,130.32h0.83c0.11,0,0.2-0.02,0.26-0.08c0.06-0.05,0.1-0.15,0.1-0.31v-5.1h3.4
		c0.11,0,0.2-0.02,0.26-0.06c0.06-0.04,0.09-0.13,0.09-0.28v-0.98h-3.75v-3.59h4.97c0.15,0,0.24-0.04,0.28-0.1
		c0.04-0.06,0.06-0.16,0.06-0.29v-0.9h-6.5V130.32z"/>
	<path class="st0" d="M86.33,123.07c-0.26-0.19-0.57-0.33-0.91-0.41c-0.35-0.08-0.71-0.12-1.1-0.12c-0.36,0-0.68,0.02-0.94,0.06
		c-0.27,0.04-0.51,0.09-0.73,0.15c-0.22,0.06-0.44,0.13-0.64,0.21v0.98c0,0.23,0.11,0.31,0.34,0.23c0.23-0.07,0.51-0.14,0.86-0.22
		c0.35-0.08,0.72-0.11,1.12-0.11c0.32,0,0.59,0.03,0.81,0.1c0.22,0.06,0.4,0.15,0.53,0.26c0.13,0.1,0.23,0.22,0.29,0.35
		c0.06,0.13,0.08,0.25,0.08,0.37v0.7c-0.17,0.02-0.4,0.05-0.71,0.09c-0.31,0.03-0.82,0.1-1.54,0.2c-0.72,0.1-1.29,0.33-1.72,0.68
		c-0.43,0.36-0.64,0.85-0.64,1.46c0,0.46,0.08,0.85,0.25,1.18c0.16,0.33,0.38,0.6,0.64,0.79c0.26,0.19,0.55,0.33,0.87,0.42
		c0.31,0.09,0.69,0.13,1.12,0.13c0.46,0,0.87-0.04,1.23-0.12c0.35-0.08,0.67-0.18,0.93-0.29c0.27-0.11,0.51-0.24,0.73-0.4v-4.68
		c0-0.49-0.08-0.9-0.23-1.23C86.8,123.52,86.59,123.26,86.33,123.07 M86.01,128.97c-0.17,0.09-0.4,0.17-0.66,0.22
		c-0.27,0.05-0.62,0.08-1.07,0.08c-0.53,0-0.94-0.11-1.24-0.32c-0.3-0.21-0.46-0.48-0.46-0.82c0-0.34,0.15-0.58,0.46-0.72
		c0.31-0.14,0.65-0.23,1.04-0.27c0.38-0.04,0.68-0.07,0.88-0.1c0.21-0.02,0.39-0.04,0.56-0.06c0.17-0.02,0.33-0.03,0.49-0.04V128.97
		z"/>
	<path class="st0" d="M92.72,122.67c-0.32,0-0.64,0.04-0.97,0.13c-0.33,0.09-0.64,0.22-0.94,0.39v-4.07c0-0.3-0.14-0.46-0.42-0.46
		h-0.8v11.64h0.93c0.1,0,0.18-0.03,0.22-0.1c0.05-0.06,0.07-0.17,0.07-0.31v-5.72c0.54-0.29,1.18-0.44,1.92-0.44
		c0.91,0,1.36,0.45,1.36,1.35v5.21H95c0.1,0,0.18-0.03,0.23-0.1c0.05-0.06,0.08-0.17,0.08-0.31v-4.77c0-0.8-0.2-1.41-0.61-1.83
		C94.29,122.89,93.63,122.67,92.72,122.67"/>
	<path class="st0" d="M103.15,118.68h-0.73v4.37c-0.3-0.13-0.62-0.22-0.95-0.28c-0.33-0.06-0.67-0.09-1-0.09
		c-0.71,0-1.27,0.15-1.68,0.44c-0.41,0.29-0.71,0.64-0.92,1.04c-0.21,0.4-0.33,0.82-0.39,1.25s-0.08,0.78-0.08,1.05
		c0,0.55,0.05,1.07,0.14,1.55c0.09,0.49,0.26,0.91,0.49,1.28c0.24,0.37,0.59,0.65,1.07,0.85c0.47,0.2,1.01,0.3,1.61,0.3
		c0.43,0,0.82-0.04,1.17-0.12c0.35-0.08,0.65-0.18,0.91-0.28c0.3-0.12,0.57-0.25,0.82-0.4v-10.4c0-0.21-0.03-0.36-0.1-0.44
		C103.46,118.72,103.33,118.68,103.15,118.68 M102.42,129.01c-0.15,0.06-0.34,0.13-0.6,0.21c-0.25,0.08-0.61,0.12-1.06,0.12
		s-0.82-0.07-1.11-0.22c-0.28-0.15-0.5-0.35-0.66-0.6c-0.16-0.26-0.26-0.56-0.32-0.91c-0.06-0.35-0.08-0.73-0.08-1.14
		c0-0.56,0.06-1.02,0.19-1.37c0.12-0.35,0.28-0.62,0.48-0.81c0.2-0.19,0.41-0.33,0.63-0.4c0.23-0.08,0.45-0.11,0.66-0.11
		c0.23,0,0.43,0.01,0.6,0.03c0.18,0.02,0.33,0.05,0.47,0.09c0.14,0.04,0.27,0.09,0.39,0.15c0.12,0.06,0.25,0.12,0.39,0.19V129.01z"
		/>
	<path class="st0" d="M114.81,118.58c-0.36-0.06-0.79-0.1-1.28-0.1c-0.85,0-1.54,0.16-2.09,0.47c-0.55,0.31-0.99,0.74-1.34,1.3
		c-0.35,0.56-0.59,1.2-0.72,1.92c-0.13,0.73-0.2,1.49-0.2,2.3c0,0.83,0.07,1.61,0.2,2.33c0.13,0.72,0.37,1.36,0.72,1.92
		c0.34,0.56,0.79,0.99,1.34,1.3c0.55,0.31,1.24,0.46,2.09,0.46c0.53,0,0.97-0.03,1.32-0.1c0.36-0.06,0.65-0.14,0.89-0.22
		c0.27-0.09,0.49-0.2,0.68-0.33v-0.93c0-0.26-0.11-0.36-0.33-0.3c-0.14,0.03-0.28,0.08-0.42,0.15c-0.13,0.06-0.29,0.13-0.46,0.18
		c-0.18,0.06-0.38,0.11-0.63,0.15c-0.24,0.04-0.54,0.06-0.89,0.06c-1.15,0-2-0.41-2.53-1.24c-0.53-0.82-0.8-2.02-0.8-3.59
		c0-0.69,0.06-1.31,0.17-1.86c0.11-0.55,0.29-1.02,0.54-1.4s0.56-0.7,0.93-0.93c0.37-0.23,0.82-0.35,1.34-0.35
		c0.75,0,1.34,0.08,1.77,0.23c0.43,0.15,0.76,0.27,1,0.37c0.2,0.07,0.29-0.01,0.29-0.23v-1.07c-0.2-0.1-0.42-0.2-0.68-0.28
		C115.47,118.71,115.17,118.64,114.81,118.58"/>
	<path class="st0" d="M122.95,123.07c-0.26-0.19-0.57-0.33-0.91-0.41c-0.35-0.08-0.71-0.12-1.1-0.12c-0.36,0-0.68,0.02-0.94,0.06
		c-0.27,0.04-0.51,0.09-0.73,0.15c-0.22,0.06-0.44,0.13-0.64,0.21v0.98c0,0.23,0.11,0.31,0.34,0.23c0.23-0.07,0.51-0.14,0.86-0.22
		c0.35-0.08,0.72-0.11,1.12-0.11c0.32,0,0.59,0.03,0.81,0.1c0.22,0.06,0.4,0.15,0.53,0.26c0.13,0.1,0.23,0.22,0.29,0.35
		c0.06,0.13,0.08,0.25,0.08,0.37v0.7c-0.17,0.02-0.4,0.05-0.71,0.09c-0.31,0.03-0.82,0.1-1.54,0.2c-0.72,0.1-1.29,0.33-1.72,0.68
		c-0.43,0.36-0.64,0.85-0.64,1.46c0,0.46,0.08,0.85,0.25,1.18c0.16,0.33,0.38,0.6,0.64,0.79c0.26,0.19,0.55,0.33,0.87,0.42
		c0.31,0.09,0.69,0.13,1.12,0.13c0.46,0,0.87-0.04,1.23-0.12c0.35-0.08,0.67-0.18,0.93-0.29c0.27-0.11,0.51-0.24,0.73-0.4v-4.68
		c0-0.49-0.08-0.9-0.23-1.23C123.43,123.52,123.22,123.26,122.95,123.07 M122.64,128.97c-0.17,0.09-0.4,0.17-0.66,0.22
		c-0.27,0.05-0.62,0.08-1.07,0.08c-0.53,0-0.94-0.11-1.24-0.32c-0.3-0.21-0.46-0.48-0.46-0.82c0-0.34,0.15-0.58,0.46-0.72
		c0.31-0.14,0.65-0.23,1.04-0.27c0.38-0.04,0.68-0.07,0.88-0.1c0.21-0.02,0.39-0.04,0.56-0.06c0.17-0.02,0.33-0.03,0.49-0.04V128.97
		z"/>
	<path class="st0" d="M130.51,122.77c-0.06,0.06-0.09,0.17-0.09,0.31v5.63c-0.26,0.15-0.52,0.26-0.79,0.33
		c-0.27,0.07-0.63,0.11-1.08,0.11c-0.47,0-0.85-0.14-1.14-0.41c-0.28-0.28-0.42-0.64-0.42-1.1v-4.96h-0.91
		c-0.1,0-0.18,0.03-0.22,0.1c-0.05,0.06-0.07,0.17-0.07,0.31v4.52c0,0.33,0.05,0.66,0.14,0.99c0.09,0.33,0.24,0.64,0.46,0.91
		c0.21,0.28,0.49,0.5,0.85,0.68c0.36,0.18,0.8,0.26,1.32,0.26c0.49,0,0.93-0.04,1.31-0.13c0.38-0.09,0.71-0.19,1-0.32
		c0.29-0.12,0.55-0.27,0.77-0.45v-6.88h-0.88C130.65,122.67,130.57,122.7,130.51,122.77"/>
	<path class="st0" d="M138.42,126.37c-0.21-0.19-0.48-0.34-0.82-0.45c-0.34-0.1-0.77-0.18-1.29-0.23c-0.52-0.05-0.91-0.12-1.17-0.23
		c-0.26-0.1-0.39-0.33-0.39-0.67c0-0.12,0.01-0.24,0.03-0.36c0.02-0.12,0.08-0.23,0.19-0.33c0.1-0.1,0.26-0.18,0.47-0.24
		c0.21-0.06,0.5-0.09,0.87-0.09c0.43,0,0.8,0.03,1.11,0.08c0.3,0.05,0.53,0.11,0.67,0.17c0.13,0.06,0.23,0.05,0.29-0.02
		c0.06-0.07,0.1-0.16,0.12-0.26l0.11-0.74c-0.18-0.07-0.37-0.13-0.58-0.19c-0.21-0.06-0.45-0.11-0.73-0.15
		c-0.27-0.04-0.58-0.06-0.92-0.06c-0.53,0-0.97,0.06-1.33,0.19c-0.36,0.13-0.65,0.3-0.87,0.53c-0.22,0.22-0.38,0.47-0.47,0.74
		c-0.09,0.28-0.14,0.55-0.14,0.82c-0.01,0.26,0.02,0.5,0.09,0.74c0.07,0.23,0.21,0.44,0.41,0.61c0.2,0.17,0.47,0.32,0.81,0.44
		c0.34,0.12,0.73,0.2,1.18,0.24c0.45,0.05,0.77,0.1,0.98,0.17c0.21,0.06,0.36,0.14,0.47,0.24c0.11,0.09,0.17,0.2,0.2,0.33
		c0.03,0.13,0.04,0.27,0.04,0.44c0,0.16-0.03,0.31-0.08,0.44c-0.05,0.13-0.14,0.24-0.28,0.33c-0.13,0.09-0.32,0.17-0.56,0.22
		c-0.24,0.05-0.54,0.08-0.91,0.08c-0.46,0-0.86-0.03-1.19-0.1c-0.33-0.06-0.6-0.13-0.8-0.18c-0.08-0.02-0.14-0.02-0.18,0
		c-0.04,0.02-0.06,0.06-0.08,0.1c-0.02,0.05-0.03,0.11-0.03,0.18v0.88c0.2,0.08,0.4,0.15,0.63,0.21c0.22,0.06,0.47,0.1,0.73,0.14
		c0.27,0.03,0.57,0.05,0.9,0.05c0.58,0,1.06-0.07,1.44-0.2c0.38-0.13,0.69-0.31,0.93-0.53c0.24-0.22,0.41-0.47,0.51-0.75
		c0.1-0.28,0.15-0.57,0.15-0.88c0-0.3-0.04-0.62-0.11-0.94C138.77,126.82,138.63,126.56,138.42,126.37"/>
	<path class="st0" d="M145.68,123.13c-0.27-0.21-0.56-0.36-0.87-0.46c-0.31-0.09-0.6-0.14-0.86-0.14c-0.26,0-0.57,0.05-0.93,0.14
		c-0.36,0.09-0.71,0.29-1.04,0.59c-0.33,0.3-0.62,0.73-0.86,1.29c-0.24,0.56-0.36,1.32-0.36,2.26c0,0.78,0.12,1.41,0.35,1.88
		c0.23,0.47,0.52,0.84,0.85,1.1s0.69,0.43,1.07,0.52c0.38,0.09,0.71,0.13,1.01,0.13c0.27,0,0.53-0.02,0.78-0.07
		c0.25-0.05,0.48-0.1,0.68-0.17c0.2-0.06,0.39-0.14,0.58-0.24v-0.79c0-0.14-0.04-0.23-0.12-0.26c-0.08-0.03-0.17-0.03-0.26,0.01
		c-0.08,0.03-0.17,0.07-0.26,0.1c-0.09,0.03-0.2,0.06-0.32,0.09c-0.12,0.03-0.27,0.06-0.43,0.08c-0.17,0.02-0.36,0.03-0.59,0.03
		c-0.55,0-1.02-0.14-1.42-0.41c-0.4-0.28-0.63-0.75-0.68-1.43h2.38c0.33,0,0.63-0.04,0.91-0.11c0.28-0.08,0.52-0.2,0.72-0.38
		c0.2-0.18,0.36-0.4,0.46-0.68c0.11-0.27,0.16-0.62,0.16-1.03c0-0.49-0.09-0.91-0.27-1.24
		C146.18,123.62,145.95,123.34,145.68,123.13 M145.14,125.98c-0.24,0.13-0.66,0.19-1.27,0.19h-1.9c0-0.29,0.03-0.59,0.1-0.89
		c0.07-0.3,0.18-0.58,0.33-0.82c0.15-0.24,0.36-0.44,0.61-0.6c0.25-0.15,0.56-0.23,0.93-0.23c0.46,0,0.84,0.14,1.12,0.41
		c0.28,0.27,0.43,0.66,0.43,1.17C145.5,125.59,145.38,125.85,145.14,125.98"/>
	<path class="st0" d="M158.31,122.67h-0.99L155.4,129c0,0-1.08-3.57-1.56-5.14h-1.29L151,129l-1.92-6.33h-0.99
		c-0.14,0-0.22,0.03-0.24,0.1c-0.01,0.06,0,0.16,0.04,0.29l2.04,6.28c0.11,0.29,0.22,0.51,0.32,0.66c0.1,0.15,0.21,0.26,0.33,0.33
		c0.11,0.08,0.26,0.11,0.42,0.11s0.3-0.04,0.42-0.11c0.11-0.08,0.22-0.19,0.33-0.33c0.1-0.15,0.21-0.37,0.32-0.66l1.13-3.49
		l1.13,3.49c0.11,0.29,0.22,0.51,0.33,0.66c0.1,0.15,0.21,0.26,0.32,0.33c0.11,0.08,0.26,0.11,0.42,0.11c0.15,0,0.3-0.04,0.42-0.11
		c0.11-0.08,0.22-0.19,0.32-0.33c0.1-0.15,0.21-0.37,0.33-0.66l2.04-6.28c0.04-0.13,0.05-0.22,0.04-0.29
		C158.53,122.7,158.45,122.67,158.31,122.67"/>
	<path class="st0" d="M164.54,123.07c-0.26-0.19-0.57-0.33-0.91-0.41c-0.35-0.08-0.71-0.12-1.1-0.12c-0.36,0-0.68,0.02-0.94,0.06
		c-0.27,0.04-0.51,0.09-0.73,0.15c-0.22,0.06-0.44,0.13-0.64,0.21v0.98c0,0.23,0.11,0.31,0.34,0.23c0.23-0.07,0.51-0.14,0.86-0.22
		c0.35-0.08,0.72-0.11,1.12-0.11c0.32,0,0.59,0.03,0.81,0.1c0.22,0.06,0.4,0.15,0.53,0.26c0.13,0.1,0.23,0.22,0.29,0.35
		c0.06,0.13,0.08,0.25,0.08,0.37v0.7c-0.17,0.02-0.4,0.05-0.71,0.09c-0.31,0.03-0.82,0.1-1.54,0.2c-0.72,0.1-1.29,0.33-1.72,0.68
		c-0.43,0.36-0.64,0.85-0.64,1.46c0,0.46,0.08,0.85,0.25,1.18c0.16,0.33,0.38,0.6,0.64,0.79c0.26,0.19,0.55,0.33,0.87,0.42
		c0.31,0.09,0.69,0.13,1.12,0.13c0.46,0,0.87-0.04,1.23-0.12c0.35-0.08,0.67-0.18,0.93-0.29c0.27-0.11,0.51-0.24,0.73-0.4v-4.68
		c0-0.49-0.08-0.9-0.23-1.23C165.01,123.52,164.8,123.26,164.54,123.07 M164.22,128.97c-0.17,0.09-0.4,0.17-0.66,0.22
		c-0.27,0.05-0.62,0.08-1.07,0.08c-0.53,0-0.94-0.11-1.24-0.32c-0.3-0.21-0.46-0.48-0.46-0.82c0-0.34,0.15-0.58,0.46-0.72
		c0.31-0.14,0.65-0.23,1.04-0.27c0.38-0.04,0.68-0.07,0.88-0.1c0.21-0.02,0.39-0.04,0.56-0.06c0.17-0.02,0.33-0.03,0.49-0.04V128.97
		z"/>
	<path class="st0" d="M174.05,122.67h-1.13l-2.06,6.66l-2.46-6.66h-1.02c-0.13,0-0.21,0.03-0.22,0.1c-0.02,0.07-0.01,0.15,0.02,0.23
		c0.01,0.02,0.08,0.19,0.19,0.49c0.12,0.3,0.26,0.68,0.44,1.14c0.18,0.46,0.37,0.96,0.58,1.52c0.21,0.56,0.41,1.09,0.61,1.6
		c0.2,0.51,0.37,0.98,0.53,1.4c0.16,0.42,0.28,0.73,0.35,0.93c0.08,0.15,0.19,0.23,0.31,0.23h0.37c-0.23,0.67-0.39,1.1-0.49,1.31
		c-0.1,0.2-0.2,0.38-0.29,0.52c-0.09,0.14-0.19,0.27-0.32,0.4c-0.12,0.13-0.26,0.23-0.42,0.32c-0.16,0.08-0.35,0.12-0.56,0.12
		c-0.19,0-0.36-0.02-0.53-0.05c-0.17-0.03-0.31-0.06-0.41-0.09l-0.19,0.89c-0.02,0.13-0.01,0.23,0.02,0.3
		c0.04,0.07,0.13,0.13,0.27,0.18c0.24,0.06,0.49,0.09,0.76,0.09c0.48,0,0.89-0.08,1.23-0.25c0.33-0.16,0.63-0.42,0.89-0.77
		c0.26-0.35,0.5-0.8,0.72-1.36c0.22-0.56,0.46-1.23,0.7-2.01c0.22-0.68,0.57-1.74,1.05-3.17c0.48-1.44,0.81-2.4,0.97-2.88
		c0.16-0.48,0.25-0.77,0.29-0.86c0.03-0.13,0.03-0.22,0-0.26C174.22,122.7,174.15,122.67,174.05,122.67"/>
	<path class="st0" d="M182.84,119.23c-0.05-0.17-0.11-0.31-0.17-0.42c-0.06-0.11-0.14-0.2-0.24-0.27c-0.1-0.08-0.21-0.11-0.35-0.11
		c-0.13,0-0.25,0.04-0.36,0.11c-0.1,0.08-0.18,0.17-0.23,0.27c-0.05,0.1-0.1,0.24-0.15,0.42l-3.56,10.7
		c-0.03,0.09-0.04,0.18-0.02,0.26c0.02,0.08,0.1,0.12,0.24,0.12h0.99l0.94-2.98h4.31l0.94,2.98h0.94c0.14,0,0.23-0.04,0.26-0.12
		c0.03-0.08,0.03-0.17,0-0.26L182.84,119.23z M180.35,126l1.73-5.61l1.73,5.61H180.35z"/>
	<path class="st0" d="M192.99,122.77c-0.06,0.06-0.09,0.17-0.09,0.31v5.63c-0.26,0.15-0.52,0.26-0.79,0.33
		c-0.27,0.07-0.63,0.11-1.08,0.11c-0.47,0-0.85-0.14-1.14-0.41c-0.28-0.28-0.42-0.64-0.42-1.1v-4.96h-0.91
		c-0.1,0-0.18,0.03-0.22,0.1c-0.05,0.06-0.07,0.17-0.07,0.31v4.52c0,0.33,0.05,0.66,0.14,0.99c0.09,0.33,0.24,0.64,0.46,0.91
		c0.21,0.28,0.49,0.5,0.85,0.68c0.36,0.18,0.8,0.26,1.32,0.26c0.49,0,0.93-0.04,1.31-0.13c0.38-0.09,0.71-0.19,1-0.32
		c0.29-0.12,0.55-0.27,0.77-0.45v-6.88h-0.88C193.13,122.67,193.05,122.7,192.99,122.77"/>
	<path class="st0" d="M199.6,129.08c-0.06,0.01-0.19,0.03-0.39,0.07c-0.2,0.04-0.37,0.05-0.51,0.05c-0.46,0-0.78-0.08-0.96-0.23
		c-0.18-0.15-0.27-0.44-0.28-0.86v-4.1h1.78c0.1,0,0.18-0.03,0.23-0.1c0.05-0.06,0.08-0.17,0.08-0.32v-0.91h-2.09v-2.14
		c0-0.12-0.01-0.2-0.05-0.24c-0.03-0.05-0.07-0.08-0.1-0.09c-0.04-0.01-0.08-0.01-0.13,0.02l-0.91,0.26v7.75
		c0,0.41,0.07,0.75,0.2,1.03c0.13,0.28,0.3,0.51,0.5,0.68c0.2,0.18,0.42,0.3,0.67,0.38c0.25,0.08,0.49,0.11,0.73,0.11
		c0.39,0,0.72-0.03,0.98-0.1c0.26-0.06,0.42-0.13,0.49-0.19v-0.81c0-0.13-0.02-0.21-0.06-0.25
		C199.75,129.06,199.69,129.05,199.6,129.08"/>
	<path class="st0" d="M204.71,122.67c-0.32,0-0.64,0.04-0.97,0.13c-0.33,0.09-0.64,0.22-0.94,0.39v-4.07c0-0.3-0.14-0.46-0.42-0.46
		h-0.8v11.64h0.93c0.1,0,0.18-0.03,0.22-0.1c0.05-0.06,0.07-0.17,0.07-0.31v-5.72c0.54-0.29,1.18-0.44,1.92-0.44
		c0.91,0,1.36,0.45,1.36,1.35v5.21h0.91c0.1,0,0.18-0.03,0.23-0.1c0.05-0.06,0.08-0.17,0.08-0.31v-4.77c0-0.8-0.2-1.41-0.61-1.83
		C206.27,122.89,205.62,122.67,204.71,122.67"/>
	<path class="st0" d="M212.18,122.53c-0.59,0-1.08,0.09-1.48,0.28c-0.4,0.19-0.73,0.45-0.97,0.8c-0.25,0.34-0.42,0.76-0.53,1.24
		c-0.11,0.49-0.16,1.03-0.16,1.62c0,1.29,0.24,2.27,0.73,2.94c0.49,0.67,1.3,1.01,2.42,1.01c0.59-0.02,1.08-0.12,1.48-0.31
		c0.4-0.18,0.73-0.44,0.97-0.77c0.25-0.33,0.43-0.74,0.53-1.22c0.11-0.48,0.16-1.03,0.16-1.65c0-1.29-0.25-2.27-0.73-2.94
		C214.11,122.87,213.3,122.53,212.18,122.53 M214.07,127.69c-0.05,0.35-0.15,0.65-0.29,0.88c-0.14,0.24-0.35,0.42-0.6,0.55
		c-0.26,0.13-0.59,0.2-0.99,0.21c-0.43-0.02-0.78-0.1-1.04-0.24c-0.26-0.13-0.45-0.32-0.59-0.57c-0.13-0.25-0.22-0.54-0.26-0.89
		c-0.04-0.34-0.06-0.73-0.06-1.17c0-0.48,0.03-0.9,0.09-1.25c0.06-0.36,0.16-0.65,0.31-0.88c0.15-0.23,0.35-0.41,0.59-0.53
		c0.25-0.12,0.57-0.18,0.96-0.18c0.43,0,0.78,0.07,1.04,0.22c0.26,0.15,0.46,0.34,0.6,0.6s0.23,0.55,0.27,0.9
		c0.04,0.35,0.06,0.73,0.06,1.12C214.14,126.93,214.12,127.34,214.07,127.69"/>
	<path class="st0" d="M221.88,122.99c-0.1-0.05-0.25-0.1-0.44-0.15c-0.19-0.05-0.42-0.09-0.67-0.12c-0.26-0.03-0.53-0.04-0.8-0.04
		c-0.47,0-0.89,0.07-1.24,0.22c-0.35,0.15-0.64,0.33-0.86,0.54c-0.23,0.22-0.4,0.46-0.51,0.72c-0.11,0.26-0.17,0.52-0.17,0.76v5.4
		H218c0.14,0,0.25-0.03,0.32-0.1c0.07-0.06,0.1-0.17,0.1-0.31v-4.73c0-0.12,0.02-0.24,0.07-0.38c0.05-0.13,0.13-0.26,0.25-0.38
		c0.12-0.12,0.29-0.22,0.5-0.3c0.21-0.08,0.48-0.12,0.81-0.12c0.29,0,0.55,0.02,0.77,0.05c0.23,0.03,0.42,0.07,0.59,0.11
		c0.17,0.03,0.31,0.07,0.43,0.1c0.05-0.18,0.11-0.37,0.17-0.6c0.05-0.18,0.07-0.32,0.05-0.44
		C222.04,123.12,221.98,123.03,221.88,122.99"/>
	<path class="st0" d="M224.27,121.57c0.22,0,0.4-0.08,0.55-0.24c0.15-0.16,0.22-0.37,0.22-0.64c0-0.27-0.08-0.48-0.22-0.63
		c-0.15-0.15-0.33-0.23-0.55-0.23c-0.21,0-0.39,0.08-0.54,0.23c-0.15,0.15-0.23,0.36-0.23,0.63c0,0.27,0.08,0.48,0.23,0.64
		C223.88,121.49,224.06,121.57,224.27,121.57"/>
	<path class="st0" d="M225.55,129.01h-0.21c-0.08,0-0.15-0.01-0.22-0.03c-0.07-0.02-0.12-0.06-0.17-0.12
		c-0.05-0.06-0.07-0.15-0.07-0.28v-5.52c0-0.16-0.03-0.27-0.08-0.31c-0.05-0.04-0.14-0.06-0.26-0.06h-0.86v5.95
		c0,0.33,0.04,0.6,0.12,0.82c0.08,0.22,0.18,0.39,0.29,0.53c0.12,0.13,0.25,0.23,0.39,0.28c0.14,0.05,0.28,0.08,0.41,0.08h0.93
		v-0.98c0-0.11-0.02-0.19-0.06-0.25C225.71,129.04,225.64,129.01,225.55,129.01"/>
	<path class="st0" d="M230.68,129.08c-0.06,0.01-0.19,0.03-0.39,0.07c-0.2,0.04-0.37,0.05-0.51,0.05c-0.46,0-0.78-0.08-0.96-0.23
		c-0.18-0.15-0.27-0.44-0.28-0.86v-4.1h1.78c0.1,0,0.18-0.03,0.23-0.1c0.05-0.06,0.08-0.17,0.08-0.32v-0.91h-2.09v-2.14
		c0-0.12-0.01-0.2-0.05-0.24c-0.03-0.05-0.06-0.08-0.1-0.09c-0.04-0.01-0.08-0.01-0.13,0.02l-0.91,0.26v7.75
		c0,0.41,0.07,0.75,0.2,1.03c0.13,0.28,0.3,0.51,0.5,0.68c0.2,0.18,0.42,0.3,0.67,0.38c0.25,0.08,0.49,0.11,0.73,0.11
		c0.39,0,0.72-0.03,0.98-0.1c0.26-0.06,0.42-0.13,0.49-0.19v-0.81c0-0.13-0.02-0.21-0.06-0.25
		C230.83,129.06,230.76,129.05,230.68,129.08"/>
	<path class="st0" d="M239.35,122.67h-1.13l-2.06,6.66l-2.46-6.66h-1.02c-0.13,0-0.21,0.03-0.22,0.1c-0.02,0.07-0.01,0.15,0.02,0.23
		c0.01,0.02,0.08,0.19,0.19,0.49c0.12,0.3,0.26,0.68,0.44,1.14c0.18,0.46,0.37,0.96,0.58,1.52c0.21,0.56,0.41,1.09,0.61,1.6
		c0.2,0.51,0.37,0.98,0.53,1.4c0.16,0.42,0.28,0.73,0.35,0.93c0.08,0.15,0.19,0.23,0.31,0.23h0.37c-0.23,0.67-0.39,1.1-0.49,1.31
		c-0.1,0.2-0.2,0.38-0.29,0.52c-0.09,0.14-0.19,0.27-0.32,0.4c-0.12,0.13-0.26,0.23-0.42,0.32c-0.16,0.08-0.35,0.12-0.56,0.12
		c-0.19,0-0.36-0.02-0.53-0.05c-0.17-0.03-0.31-0.06-0.41-0.09l-0.19,0.89c-0.02,0.13-0.01,0.23,0.02,0.3
		c0.04,0.07,0.13,0.13,0.27,0.18c0.24,0.06,0.49,0.09,0.76,0.09c0.48,0,0.89-0.08,1.23-0.25c0.33-0.16,0.63-0.42,0.89-0.77
		c0.26-0.35,0.5-0.8,0.72-1.36c0.22-0.56,0.46-1.23,0.7-2.01c0.22-0.68,0.57-1.74,1.05-3.17c0.48-1.44,0.81-2.4,0.97-2.88
		c0.16-0.48,0.25-0.77,0.29-0.86c0.03-0.13,0.03-0.22,0-0.26C239.52,122.7,239.46,122.67,239.35,122.67"/>
	<path class="st0" d="M67.33,104.38c-0.27-0.1-0.55-0.18-0.85-0.26c-0.3-0.07-0.59-0.1-0.88-0.1c-0.56,0-1.02,0.07-1.41,0.2
		c-0.38,0.13-0.69,0.33-0.93,0.58c-0.24,0.25-0.41,0.56-0.52,0.91c-0.11,0.36-0.16,0.76-0.16,1.22c0,0.46,0.05,0.87,0.14,1.23
		c0.09,0.36,0.25,0.67,0.46,0.92c0.22,0.25,0.5,0.44,0.85,0.58c0.35,0.13,0.78,0.2,1.3,0.2c0.33,0,0.64-0.04,0.94-0.11
		c0.3-0.08,0.54-0.17,0.71-0.27c0,0.48-0.17,0.8-0.49,0.97c-0.33,0.17-0.75,0.25-1.27,0.25h-4.67v0h-1.41
		c0.01-0.11,0.01-0.21,0.01-0.32v-1.21c0-0.81-0.1-1.49-0.29-2.04c-0.19-0.56-0.49-1-0.87-1.33c-0.39-0.33-0.87-0.57-1.44-0.72
		c-0.57-0.15-1.23-0.22-1.99-0.22c-0.29,0-0.59,0.01-0.92,0.04c-0.33,0.03-0.65,0.07-0.97,0.11c-0.32,0.05-0.63,0.1-0.93,0.17
		c-0.3,0.06-0.56,0.13-0.79,0.2l0.17,0.68c0.03,0.13,0.08,0.22,0.15,0.28c0.07,0.06,0.17,0.07,0.29,0.03l0.54-0.18
		c-0.27,0.21-0.49,0.53-0.66,0.95c-0.17,0.42-0.25,0.93-0.25,1.53c0,0.35,0.03,0.66,0.08,0.91c0.05,0.26,0.12,0.48,0.2,0.66
		c0.08,0.18,0.18,0.33,0.29,0.45h-2.5v0h-0.31c-0.3,0-0.55-0.03-0.75-0.09c-0.2-0.06-0.37-0.13-0.52-0.2
		c-0.15-0.08-0.26-0.17-0.36-0.29v-1.05c0-0.43-0.05-0.84-0.15-1.23c-0.1-0.39-0.29-0.74-0.55-1.06c-0.26-0.32-0.62-0.6-1.06-0.84
		c-0.44-0.24-0.89-0.42-1.35-0.54c-0.46-0.12-0.83-0.22-1.11-0.28c-0.28-0.06-0.61-0.14-0.97-0.22l-0.16,0.79
		c-0.06,0.32,0.1,0.51,0.48,0.6c0.21,0.05,0.44,0.1,0.7,0.17c0.26,0.06,0.55,0.14,0.88,0.22c0.33,0.08,0.64,0.19,0.93,0.32
		c0.29,0.13,0.53,0.29,0.71,0.49c0.18,0.2,0.31,0.45,0.39,0.75c0.08,0.3,0.12,0.69,0.12,1.16v1.32h-4.82c-0.2,0-0.29,0.12-0.29,0.35
		v0.96h4.71c0.43,0,0.76-0.06,0.97-0.19c0.22-0.13,0.37-0.31,0.45-0.54c0.25,0.27,0.54,0.46,0.87,0.57
		c0.33,0.11,0.62,0.17,0.86,0.17h0.31h11.27h4.7c0.57,0,1.04-0.08,1.41-0.24c0.37-0.16,0.66-0.37,0.88-0.63
		c0.21-0.26,0.37-0.57,0.46-0.91c0.09-0.35,0.13-0.7,0.13-1.08v-4.46C67.87,104.59,67.6,104.48,67.33,104.38 M66.93,108.32
		c-0.09,0.06-0.21,0.11-0.36,0.16c-0.14,0.05-0.32,0.09-0.52,0.11c-0.2,0.03-0.45,0.04-0.73,0.04c-0.22,0-0.42-0.02-0.61-0.07
		c-0.19-0.05-0.36-0.13-0.5-0.25c-0.14-0.12-0.26-0.29-0.34-0.49c-0.08-0.2-0.12-0.47-0.12-0.78c0-0.67,0.15-1.12,0.45-1.38
		c0.3-0.25,0.71-0.38,1.24-0.38c0.31,0,0.57,0.03,0.79,0.09c0.22,0.06,0.45,0.13,0.71,0.23V108.32z M54.74,109.67
		c0,0.32-0.04,0.57-0.12,0.75c-0.08,0.19-0.28,0.28-0.61,0.28h-0.53c-0.13,0-0.27-0.04-0.41-0.12c-0.14-0.08-0.26-0.2-0.37-0.37
		c-0.11-0.16-0.2-0.37-0.26-0.61c-0.07-0.24-0.1-0.51-0.1-0.82c0-0.52,0.07-0.94,0.21-1.28c0.14-0.34,0.32-0.61,0.54-0.81
		c0.22-0.2,0.48-0.34,0.77-0.42c0.29-0.08,0.58-0.11,0.88-0.1V109.67z M58.05,110.7h-2.23v-4.49c0.66,0.13,1.2,0.41,1.61,0.83
		c0.41,0.43,0.62,1.07,0.62,1.94V110.7z"/>
	<path class="st0" d="M65.75,102.58c0.22,0,0.4-0.08,0.55-0.25c0.15-0.17,0.22-0.38,0.22-0.62c0-0.24-0.08-0.45-0.22-0.62
		c-0.15-0.17-0.33-0.25-0.55-0.25s-0.4,0.09-0.55,0.25c-0.15,0.17-0.22,0.38-0.22,0.62c0,0.24,0.07,0.45,0.22,0.62
		C65.36,102.49,65.54,102.58,65.75,102.58"/>
	<path class="st0" d="M132.23,113.02c-0.22,0-0.4,0.08-0.55,0.25c-0.15,0.17-0.22,0.38-0.22,0.62c0,0.25,0.07,0.45,0.22,0.62
		c0.15,0.17,0.33,0.25,0.55,0.25c0.22,0,0.4-0.09,0.55-0.25c0.15-0.17,0.22-0.38,0.22-0.62c0-0.24-0.07-0.45-0.22-0.62
		C132.63,113.1,132.44,113.02,132.23,113.02"/>
	<path class="st0" d="M139.39,101.48c-0.08,0.09-0.12,0.21-0.12,0.35v7.21c0,0.54-0.14,0.95-0.41,1.24
		c-0.27,0.29-0.7,0.43-1.29,0.43h-0.19v0h-0.29c-0.3,0-0.55-0.03-0.76-0.09c-0.21-0.06-0.38-0.12-0.53-0.2
		c-0.14-0.08-0.26-0.17-0.35-0.27v-1.24c0-0.65-0.06-1.22-0.18-1.69c-0.12-0.47-0.31-0.85-0.58-1.15c-0.27-0.3-0.61-0.51-1.04-0.65
		c-0.42-0.13-0.94-0.2-1.55-0.2c-0.42,0-0.82,0.03-1.19,0.08c-0.37,0.05-0.71,0.11-1.03,0.17c-0.32,0.07-0.61,0.14-0.89,0.22
		l0.19,0.89c0.03,0.22,0.17,0.29,0.43,0.21c0.25-0.07,0.59-0.14,1.04-0.22c0.44-0.08,0.9-0.11,1.37-0.11c0.54,0,0.96,0.06,1.26,0.19
		c0.3,0.13,0.52,0.31,0.66,0.55c0.14,0.24,0.22,0.53,0.26,0.88c0.03,0.35,0.05,0.73,0.05,1.17v1.45h-6.21v0h-0.49
		c-0.3,0-0.55-0.03-0.75-0.08c-0.2-0.05-0.37-0.12-0.52-0.19c-0.14-0.08-0.26-0.17-0.35-0.27v-4.8h-0.79c-0.11,0-0.21,0.05-0.3,0.15
		c-0.09,0.1-0.13,0.22-0.13,0.36v3.55c0,0.38-0.09,0.7-0.26,0.93c-0.17,0.23-0.47,0.35-0.9,0.35h-0.06c-0.13,0-0.28,0-0.43-0.01
		c-0.15-0.01-0.3-0.03-0.46-0.07c-0.16-0.04-0.32-0.11-0.47-0.21c-0.15-0.1-0.3-0.24-0.43-0.41v-4.44h-0.77
		c-0.11,0-0.21,0.05-0.3,0.15c-0.09,0.1-0.13,0.21-0.13,0.34v3.56c0,0.25-0.05,0.44-0.14,0.59c-0.09,0.15-0.21,0.25-0.35,0.33
		c-0.14,0.07-0.29,0.12-0.46,0.14c-0.17,0.02-0.33,0.03-0.47,0.03c-0.3,0-0.55-0.03-0.74-0.08c-0.2-0.05-0.37-0.12-0.51-0.19
		c-0.15-0.08-0.26-0.17-0.36-0.27v-4.07h-0.77c-0.11,0-0.21,0.05-0.3,0.15c-0.09,0.1-0.13,0.21-0.13,0.34v2.81
		c0,0.37-0.08,0.69-0.24,0.94c-0.16,0.25-0.45,0.38-0.87,0.38h-0.06v0h-1.74c-0.26,0-0.48-0.02-0.67-0.07
		c-0.19-0.05-0.35-0.1-0.49-0.16c-0.13-0.06-0.24-0.12-0.31-0.18c-0.07-0.06-0.12-0.11-0.14-0.13v-4.54h-0.77
		c-0.11,0-0.21,0.05-0.3,0.15c-0.09,0.1-0.13,0.22-0.13,0.36v6.83c0,0.46-0.07,0.79-0.22,1c-0.14,0.21-0.4,0.32-0.77,0.32
		c-0.11,0-0.28-0.03-0.49-0.1c-0.21-0.06-0.42-0.15-0.64-0.25l-0.17,0.82c-0.04,0.18-0.01,0.3,0.08,0.36
		c0.1,0.06,0.22,0.13,0.36,0.18c0.45,0.14,0.87,0.21,1.24,0.2c0.38-0.01,0.7-0.1,0.97-0.27s0.47-0.44,0.62-0.79
		c0.14-0.35,0.22-0.8,0.22-1.35v-1.65c0.24,0.21,0.51,0.36,0.82,0.46c0.31,0.09,0.57,0.14,0.79,0.14h1.74h0.39
		c0.44,0,0.81-0.09,1.11-0.25c0.3-0.17,0.51-0.37,0.63-0.6c0.12,0.15,0.26,0.28,0.43,0.39c0.16,0.11,0.32,0.2,0.49,0.27
		c0.17,0.07,0.34,0.12,0.5,0.15c0.17,0.03,0.31,0.04,0.45,0.04c0.07,0,0.62,0.03,1.14-0.18c0.23-0.09,0.42-0.2,0.57-0.31
		c0.15-0.11,0.26-0.22,0.35-0.32c0.08-0.1,0.14-0.17,0.17-0.22c0.03,0.05,0.1,0.13,0.19,0.24c0.1,0.11,0.24,0.23,0.42,0.34
		c0.18,0.11,0.4,0.22,0.66,0.31c0.26,0.09,0.56,0.13,0.91,0.13h0.43c0.45,0,0.83-0.09,1.13-0.26c0.3-0.17,0.51-0.38,0.63-0.61
		c0.11,0.15,0.25,0.28,0.42,0.4c0.16,0.11,0.33,0.2,0.5,0.27c0.17,0.07,0.34,0.12,0.51,0.16c0.17,0.04,0.32,0.05,0.44,0.05h0.49
		h6.07c0.35,0,0.62-0.06,0.81-0.18c0.19-0.12,0.33-0.3,0.41-0.54c0.25,0.26,0.54,0.44,0.87,0.55c0.56,0.19,0.89,0.17,1.17,0.17h0.19
		c0.58,0,1.05-0.08,1.43-0.24c0.38-0.16,0.67-0.4,0.89-0.7c0.22-0.3,0.37-0.67,0.46-1.1c0.09-0.43,0.13-0.92,0.13-1.47v-7.16h-0.8
		C139.56,101.34,139.47,101.38,139.39,101.48"/>
	<path class="st0" d="M186.26,103.58c0.22,0,0.4-0.09,0.55-0.25c0.15-0.17,0.22-0.38,0.22-0.62c0-0.24-0.07-0.45-0.22-0.62
		c-0.15-0.17-0.33-0.25-0.55-0.25c-0.22,0-0.4,0.09-0.55,0.25c-0.15,0.17-0.22,0.38-0.22,0.62c0,0.25,0.07,0.45,0.22,0.62
		C185.86,103.5,186.05,103.58,186.26,103.58"/>
	<path class="st0" d="M188.24,103.58c0.22,0,0.4-0.09,0.55-0.25c0.15-0.17,0.22-0.38,0.22-0.62c0-0.24-0.08-0.45-0.22-0.62
		c-0.15-0.17-0.33-0.25-0.55-0.25c-0.22,0-0.4,0.09-0.55,0.25c-0.15,0.17-0.22,0.38-0.22,0.62c0,0.25,0.08,0.45,0.22,0.62
		C187.84,103.5,188.02,103.58,188.24,103.58"/>
	<path class="st0" d="M215.06,105.76c-0.09,0.1-0.13,0.22-0.13,0.36v2.74c0,0.61-0.11,1.07-0.33,1.38
		c-0.22,0.31-0.63,0.47-1.25,0.47c-0.25,0-0.51-0.04-0.79-0.12c-0.28-0.08-0.53-0.27-0.76-0.58v-4.04h-0.79
		c-0.11,0-0.21,0.05-0.3,0.15c-0.09,0.1-0.13,0.21-0.13,0.34v3.14c0,0.24-0.05,0.44-0.14,0.59c-0.09,0.15-0.21,0.26-0.35,0.33
		s-0.29,0.13-0.45,0.15c-0.16,0.02-0.31,0.03-0.46,0.03c-0.3,0-0.55-0.03-0.75-0.08c-0.2-0.05-0.37-0.12-0.52-0.19
		c-0.14-0.08-0.26-0.17-0.35-0.27v-3.83h-0.77c-0.11,0-0.21,0.05-0.3,0.15c-0.09,0.1-0.13,0.21-0.13,0.34v2.6
		c0,0.37-0.09,0.68-0.26,0.92c-0.17,0.24-0.48,0.36-0.91,0.36h-0.25h-0.43h-0.35c-0.3,0-0.55-0.03-0.75-0.08
		c-0.2-0.05-0.37-0.12-0.52-0.19c-0.14-0.08-0.26-0.17-0.35-0.27v-4.54h-0.79c-0.11,0-0.21,0.05-0.3,0.15
		c-0.09,0.1-0.13,0.22-0.13,0.36v3.3c0,0.38-0.09,0.7-0.26,0.93c-0.17,0.23-0.47,0.35-0.9,0.35h-0.06c-0.13,0-0.28,0-0.42-0.01
		c-0.15-0.01-0.3-0.03-0.46-0.07c-0.16-0.04-0.32-0.11-0.47-0.21c-0.15-0.1-0.3-0.24-0.43-0.41v-4.04h-0.77
		c-0.11,0-0.21,0.05-0.3,0.15c-0.09,0.1-0.13,0.21-0.13,0.34v3.16c0,0.25-0.05,0.44-0.14,0.59c-0.09,0.15-0.21,0.25-0.35,0.33
		c-0.14,0.07-0.29,0.12-0.46,0.14c-0.17,0.02-0.33,0.03-0.47,0.03c-0.3,0-0.55-0.03-0.74-0.08c-0.2-0.05-0.37-0.12-0.51-0.19
		c-0.14-0.08-0.26-0.17-0.36-0.27v-3.83h-0.77c-0.11,0-0.21,0.05-0.3,0.15c-0.09,0.1-0.13,0.21-0.13,0.34v2.56
		c0,0.37-0.08,0.69-0.24,0.94c-0.16,0.25-0.45,0.38-0.87,0.38h-0.98h-0.53c-0.18,0-0.33-0.06-0.46-0.17
		c-0.13-0.11-0.19-0.28-0.19-0.52v-4.58c-0.27-0.08-0.55-0.15-0.83-0.21c-0.29-0.06-0.6-0.11-0.94-0.16
		c-0.34-0.05-0.69-0.07-1.05-0.07c-0.54,0-0.99,0.09-1.35,0.26c-0.37,0.17-0.66,0.42-0.9,0.73c-0.23,0.31-0.4,0.67-0.5,1.09
		c-0.1,0.41-0.15,0.86-0.15,1.34c0,0.78,0.09,1.42,0.26,1.9c0.17,0.48,0.4,0.86,0.67,1.13c0.27,0.27,0.57,0.45,0.9,0.54
		c0.33,0.09,0.65,0.14,0.97,0.14c0.3,0,0.56-0.04,0.8-0.11c0.23-0.08,0.43-0.16,0.6-0.26c0.17-0.1,0.31-0.2,0.42-0.32
		c0.11-0.11,0.19-0.2,0.25-0.27c0.03,0.07,0.08,0.15,0.15,0.24c0.07,0.09,0.16,0.18,0.27,0.27c0.11,0.09,0.23,0.16,0.36,0.23
		c0.13,0.06,0.28,0.1,0.45,0.1h0.29h1.8c0.44,0,0.81-0.09,1.11-0.25c0.3-0.17,0.51-0.37,0.63-0.6c0.12,0.15,0.27,0.28,0.42,0.39
		c0.16,0.11,0.33,0.2,0.5,0.27c0.17,0.07,0.34,0.12,0.5,0.15c0.17,0.03,0.31,0.04,0.45,0.04h0.31c0.32-0.02,0.6-0.08,0.83-0.18
		c0.23-0.09,0.42-0.2,0.57-0.31c0.15-0.11,0.26-0.22,0.35-0.32c0.08-0.1,0.14-0.17,0.17-0.22c0.03,0.05,0.1,0.13,0.19,0.24
		c0.1,0.11,0.24,0.23,0.42,0.34c0.18,0.12,0.4,0.22,0.66,0.31c0.26,0.09,0.56,0.13,0.91,0.13h0.43c0.45,0,0.83-0.09,1.13-0.26
		c0.3-0.17,0.51-0.38,0.63-0.61c0.11,0.15,0.25,0.28,0.42,0.4c0.17,0.11,0.33,0.2,0.5,0.27c0.17,0.07,0.34,0.12,0.51,0.16
		c0.17,0.04,0.32,0.05,0.44,0.05h0.35h0.43h0.6c0.46,0,0.84-0.09,1.14-0.25c0.3-0.17,0.51-0.37,0.63-0.6
		c0.12,0.15,0.27,0.28,0.43,0.39c0.16,0.11,0.33,0.2,0.5,0.27c0.17,0.07,0.34,0.12,0.5,0.15c0.16,0.03,0.31,0.04,0.43,0.04h0.32
		c0.32-0.02,0.6-0.08,0.83-0.18c0.23-0.09,0.42-0.2,0.57-0.31c0.15-0.11,0.26-0.22,0.34-0.32c0.08-0.1,0.13-0.17,0.16-0.22
		c0.03,0.05,0.1,0.13,0.19,0.24c0.1,0.11,0.23,0.23,0.39,0.34c0.16,0.12,0.36,0.22,0.59,0.31c0.23,0.09,0.48,0.13,0.77,0.13
		c0.56,0,1.02-0.08,1.38-0.23c0.37-0.15,0.65-0.37,0.86-0.65c0.21-0.28,0.35-0.62,0.43-1.01c0.08-0.39,0.12-0.83,0.12-1.31v-3.21
		h-0.79C215.25,105.61,215.15,105.66,215.06,105.76 M188.4,110.15c-0.1,0.13-0.22,0.24-0.36,0.34c-0.14,0.1-0.31,0.18-0.5,0.25
		c-0.2,0.07-0.44,0.1-0.73,0.1c-0.55,0-0.97-0.19-1.27-0.56c-0.3-0.37-0.45-0.99-0.45-1.84c0-0.45,0.05-0.83,0.14-1.11
		c0.09-0.29,0.22-0.51,0.39-0.68c0.16-0.17,0.36-0.28,0.58-0.34c0.22-0.06,0.46-0.09,0.72-0.09c0.17,0,0.4,0.01,0.67,0.03
		c0.27,0.02,0.54,0.08,0.81,0.16V110.15z"/>
	<path class="st0" d="M221.81,103.51c0-0.06-0.02-0.12-0.05-0.18c-0.03-0.06-0.09-0.09-0.17-0.09h-0.79c-0.08,0-0.17-0.01-0.27-0.03
		c-0.1-0.02-0.18-0.05-0.26-0.1c-0.07-0.05-0.14-0.11-0.2-0.18c-0.06-0.08-0.09-0.2-0.09-0.36c0-0.12,0.05-0.24,0.16-0.38
		c0.11-0.13,0.33-0.2,0.66-0.2c0.18,0,0.34,0.02,0.49,0.04c0.15,0.03,0.24,0.04,0.25,0.04c0.06,0.01,0.12-0.01,0.16-0.06
		c0.05-0.05,0.08-0.13,0.1-0.22l0.08-0.51c-0.1-0.02-0.21-0.05-0.32-0.08c-0.11-0.03-0.23-0.05-0.36-0.07
		c-0.13-0.02-0.27-0.03-0.42-0.03c-0.21,0-0.4,0.02-0.59,0.07c-0.19,0.05-0.35,0.13-0.5,0.25c-0.14,0.12-0.26,0.27-0.34,0.47
		c-0.08,0.19-0.12,0.41-0.12,0.66c0,0.19,0.02,0.33,0.05,0.43c0.03,0.1,0.07,0.18,0.12,0.25h-0.12c-0.07,0-0.14,0.03-0.19,0.1
		c-0.06,0.06-0.08,0.16-0.08,0.29v0.46h2.8V103.51z"/>
	<path class="st0" d="M233.14,112.02h0.29c0.54-0.01,0.98-0.1,1.34-0.27c0.36-0.17,0.64-0.41,0.84-0.71c0.21-0.3,0.35-0.67,0.43-1.1
		c0.08-0.43,0.12-0.91,0.12-1.44v-7.16h-0.8c-0.11,0-0.21,0.05-0.29,0.14c-0.08,0.09-0.12,0.21-0.12,0.35v7.21
		c0,0.54-0.14,0.95-0.41,1.24c-0.27,0.29-0.7,0.43-1.29,0.43h-0.12c-0.27,0-0.5-0.03-0.7-0.08c-0.2-0.05-0.36-0.11-0.49-0.18
		c-0.13-0.06-0.23-0.13-0.3-0.18c-0.07-0.06-0.11-0.1-0.12-0.12v-4.47c-0.27-0.08-0.53-0.15-0.79-0.22
		c-0.26-0.06-0.53-0.12-0.82-0.17c-0.29-0.05-0.57-0.08-0.83-0.08c-0.54,0-1.01,0.08-1.44,0.25c-0.42,0.16-0.78,0.4-1.08,0.7
		c-0.3,0.3-0.53,0.67-0.69,1.1c-0.16,0.43-0.24,0.9-0.24,1.41c0,0.47,0.03,0.89,0.09,1.25c0.06,0.37,0.12,0.63,0.19,0.8h-1.48h-0.76
		v-5.03c-0.23-0.08-0.46-0.15-0.71-0.22c-0.25-0.06-0.52-0.12-0.81-0.18c-0.29-0.05-0.61-0.08-0.94-0.08
		c-0.49,0-0.95,0.07-1.37,0.22c-0.42,0.15-0.78,0.37-1.08,0.67c-0.3,0.3-0.53,0.67-0.69,1.12c-0.16,0.45-0.24,0.96-0.24,1.53
		c0,0.71,0.1,1.28,0.31,1.71c0.21,0.43,0.46,0.75,0.75,0.98c0.29,0.23,0.6,0.38,0.93,0.46c0.33,0.08,0.64,0.12,0.93,0.12h1.75
		c0,0.3-0.01,0.11-0.02,0.42c-0.01,0.32-0.06,0.6-0.16,0.86c-0.1,0.26-0.27,0.47-0.51,0.64c-0.24,0.17-0.6,0.26-1.06,0.26
		c-0.2,0-0.39-0.02-0.58-0.04c-0.19-0.03-0.37-0.07-0.54-0.11c-0.17-0.04-0.33-0.08-0.49-0.13l-0.17,0.84
		c-0.04,0.16-0.01,0.28,0.1,0.36c0.11,0.08,0.22,0.13,0.35,0.17c0.21,0.06,0.44,0.11,0.69,0.15c0.25,0.04,0.47,0.06,0.66,0.06
		c0.46,0,0.88-0.06,1.24-0.17c0.36-0.11,0.66-0.31,0.91-0.6c0.25-0.29,0.43-0.69,0.56-1.18c0.12-0.49,0.19-0.61,0.19-1.37v-0.16
		h1.27h5.41c0.43,0,0.91-0.39,1.02-0.75c0.12,0.13,0.26,0.24,0.42,0.33c0.15,0.09,0.31,0.17,0.47,0.24
		c0.16,0.06,0.32,0.11,0.47,0.14C232.89,112,233.02,112.02,233.14,112.02 M222.47,110.7h-1.61c-0.51,0-0.94-0.16-1.27-0.49
		c-0.33-0.33-0.49-0.85-0.49-1.56c0-0.43,0.06-0.8,0.19-1.1c0.12-0.3,0.29-0.53,0.51-0.7c0.22-0.17,0.46-0.29,0.72-0.36
		c0.26-0.07,0.53-0.1,0.8-0.09c0.33,0,0.72,0.06,1.16,0.19V110.7z M230.35,110.69h-0.36c0,0-2.63,0.08-2.85,0
		c-0.05-0.13-0.1-0.28-0.14-0.47c-0.04-0.18-0.07-0.39-0.1-0.63c-0.03-0.24-0.04-0.51-0.04-0.82c0-0.28,0.04-0.55,0.13-0.82
		c0.09-0.27,0.22-0.51,0.41-0.71c0.19-0.2,0.42-0.37,0.7-0.5c0.28-0.13,0.61-0.19,1-0.19c0.29,0,0.53,0.02,0.74,0.07
		c0.2,0.05,0.37,0.08,0.52,0.11V110.69z"/>
	<path class="st0" d="M238.79,101.34c-0.11,0-0.21,0.05-0.3,0.14c-0.09,0.09-0.13,0.21-0.13,0.35v10.19h0.79
		c0.13,0,0.24-0.05,0.32-0.14c0.08-0.09,0.12-0.21,0.12-0.35v-10.19H238.79z"/>
	<path class="st0" d="M147.16,103.58c0.22,0,0.4-0.09,0.55-0.25c0.15-0.17,0.22-0.38,0.22-0.62c0-0.24-0.07-0.45-0.22-0.62
		c-0.15-0.17-0.33-0.25-0.55-0.25c-0.22,0-0.4,0.09-0.55,0.25c-0.15,0.17-0.22,0.38-0.22,0.62c0,0.25,0.07,0.45,0.22,0.62
		C146.76,103.5,146.94,103.58,147.16,103.58"/>
	<path class="st0" d="M149.14,103.58c0.22,0,0.4-0.09,0.55-0.25c0.15-0.17,0.22-0.38,0.22-0.62c0-0.24-0.07-0.45-0.22-0.62
		c-0.15-0.17-0.33-0.25-0.55-0.25c-0.22,0-0.4,0.09-0.55,0.25c-0.15,0.17-0.22,0.38-0.22,0.62c0,0.25,0.07,0.45,0.22,0.62
		C148.74,103.5,148.92,103.58,149.14,103.58"/>
	<path class="st0" d="M174.98,101.48c-0.08,0.09-0.12,0.21-0.12,0.35v7.21c0,0.54-0.14,0.95-0.41,1.24
		c-0.27,0.29-0.7,0.43-1.29,0.43h-0.05v0h-2.84l1.84-2.44c0-0.57-0.09-1.07-0.27-1.48c-0.18-0.41-0.43-0.76-0.73-1.03
		c-0.31-0.27-0.66-0.47-1.06-0.59c-0.4-0.12-0.81-0.18-1.24-0.18c-0.43,0-0.86,0.07-1.27,0.2c-0.41,0.13-0.78,0.34-1.09,0.6
		c-0.32,0.27-0.57,0.61-0.77,1.02c-0.2,0.41-0.29,0.89-0.29,1.45l1.85,2.44h-2.33h-0.43c-0.59,0-1.02-0.14-1.29-0.42
		c-0.27-0.28-0.41-0.69-0.41-1.23v-7.22c0-0.14-0.04-0.26-0.13-0.35c-0.09-0.09-0.19-0.14-0.3-0.14h-0.77v7.17
		c0,0.54,0.04,1.02,0.13,1.46c0.09,0.43,0.24,0.8,0.46,1.1c0.22,0.3,0.51,0.54,0.89,0.7c0.33,0.14,0.74,0.24,1.21,0.24h0.16l8.69,0
		h0.05c0.58,0,1.05-0.08,1.43-0.24c0.38-0.16,0.67-0.4,0.89-0.7c0.22-0.3,0.37-0.67,0.46-1.1c0.09-0.43,0.13-0.92,0.13-1.47v-7.16
		h-0.8C175.16,101.34,175.06,101.38,174.98,101.48 M168.75,110.81c0,0-0.07-0.06-0.17-0.21l-2.01-2.61c0-0.17,0.05-0.37,0.15-0.58
		c0.1-0.21,0.25-0.41,0.44-0.6c0.19-0.19,0.42-0.35,0.7-0.47c0.28-0.13,0.59-0.19,0.94-0.19c0.35,0,0.66,0.06,0.92,0.18
		c0.26,0.12,0.48,0.27,0.66,0.46c0.18,0.19,0.32,0.39,0.41,0.6c0.09,0.22,0.14,0.42,0.14,0.61l-1.99,2.61
		C168.84,110.73,168.75,110.81,168.75,110.81"/>
	<path class="st0" d="M179.37,111.87c0.08-0.09,0.12-0.21,0.12-0.35v-10.19h-0.79c-0.11,0-0.21,0.05-0.3,0.14
		c-0.09,0.09-0.13,0.21-0.13,0.35v10.19h0.79C179.19,112.01,179.3,111.97,179.37,111.87"/>
	<path class="st0" d="M159.77,110.13v-4.47c-0.27-0.08-0.53-0.16-0.79-0.22c-0.26-0.06-0.53-0.12-0.82-0.18
		c-0.29-0.05-0.57-0.08-0.83-0.08c-0.54,0-1.02,0.08-1.44,0.25c-0.42,0.16-0.78,0.4-1.08,0.7c-0.3,0.3-0.53,0.67-0.69,1.1
		s-0.24,0.9-0.24,1.41c0,0.47,0.03,0.89,0.09,1.25c0.06,0.37,0.12,0.63,0.19,0.8l-3.01,0.01c-0.18,0-0.33-0.06-0.46-0.17
		c-0.13-0.11-0.19-0.28-0.19-0.52v-4.58c-0.27-0.08-0.55-0.15-0.83-0.21c-0.29-0.06-0.6-0.11-0.94-0.16
		c-0.34-0.05-0.69-0.07-1.05-0.07c-0.54,0-0.99,0.09-1.35,0.26c-0.37,0.17-0.66,0.42-0.9,0.73c-0.23,0.31-0.4,0.67-0.5,1.09
		c-0.1,0.41-0.15,0.86-0.15,1.34c0,0.78,0.09,1.42,0.26,1.9c0.17,0.48,0.4,0.86,0.67,1.13c0.27,0.27,0.57,0.45,0.9,0.54
		c0.33,0.09,0.65,0.14,0.97,0.14c0.3,0,0.56-0.04,0.8-0.11c0.23-0.08,0.43-0.16,0.6-0.26c0.17-0.1,0.31-0.2,0.42-0.32
		c0.11-0.11,0.19-0.2,0.26-0.27c0.03,0.07,0.08,0.15,0.15,0.24c0.07,0.09,0.16,0.18,0.27,0.27c0.11,0.09,0.23,0.16,0.36,0.23
		c0.13,0.06,0.28,0.1,0.45,0.1l7.71-0.01c0.42,0,0.91-0.17,1.06-0.64C159.78,110.99,159.77,110.84,159.77,110.13 M149.29,110.16
		c-0.1,0.13-0.22,0.24-0.36,0.34c-0.14,0.1-0.31,0.18-0.5,0.25c-0.2,0.07-0.44,0.1-0.73,0.1c-0.55,0-0.97-0.19-1.27-0.56
		c-0.3-0.37-0.45-0.99-0.45-1.84c0-0.45,0.05-0.83,0.14-1.11c0.09-0.29,0.22-0.51,0.39-0.68c0.16-0.17,0.36-0.28,0.58-0.34
		c0.22-0.06,0.46-0.09,0.72-0.09c0.18,0,0.4,0.01,0.67,0.03c0.27,0.02,0.54,0.08,0.81,0.16V110.16z M158.6,110.68h-0.36h-2.85
		c-0.05-0.13-0.1-0.28-0.14-0.46c-0.04-0.18-0.08-0.39-0.1-0.63c-0.03-0.24-0.04-0.51-0.04-0.82c0-0.28,0.04-0.55,0.13-0.82
		c0.09-0.27,0.22-0.51,0.41-0.71c0.19-0.2,0.42-0.37,0.7-0.5c0.28-0.13,0.61-0.19,1-0.19c0.29,0,0.53,0.02,0.74,0.07
		c0.2,0.05,0.37,0.08,0.52,0.11V110.68z"/>
	<path class="st0" d="M80.47,106.13c0-0.06-0.02-0.12-0.05-0.18c-0.03-0.06-0.09-0.09-0.17-0.09h-0.79c-0.08,0-0.17-0.01-0.27-0.03
		c-0.1-0.02-0.18-0.05-0.26-0.1c-0.07-0.05-0.14-0.11-0.2-0.18c-0.06-0.08-0.09-0.2-0.09-0.36c0-0.12,0.05-0.24,0.16-0.38
		c0.11-0.13,0.33-0.2,0.66-0.2c0.17,0,0.34,0.02,0.49,0.05c0.15,0.03,0.23,0.04,0.25,0.04c0.06,0.01,0.12-0.01,0.16-0.06
		c0.05-0.05,0.08-0.12,0.1-0.22l0.08-0.51c-0.1-0.02-0.21-0.05-0.32-0.08c-0.11-0.03-0.23-0.05-0.36-0.07
		c-0.13-0.02-0.27-0.03-0.42-0.03c-0.21,0-0.4,0.02-0.59,0.07c-0.19,0.05-0.35,0.13-0.49,0.25c-0.14,0.12-0.26,0.27-0.34,0.46
		c-0.08,0.19-0.12,0.41-0.12,0.66c0,0.19,0.01,0.33,0.05,0.43c0.03,0.1,0.07,0.18,0.12,0.25h-0.12c-0.07,0-0.14,0.03-0.19,0.1
		c-0.06,0.06-0.09,0.16-0.09,0.29v0.46h2.8V106.13z"/>
	<path class="st0" d="M104.32,101.48c-0.09,0.09-0.13,0.21-0.13,0.35v10.19h0.79c0.13,0,0.24-0.05,0.32-0.14
		c0.08-0.09,0.12-0.21,0.12-0.35v-10.19h-0.79C104.51,101.34,104.41,101.38,104.32,101.48"/>
	<path class="st0" d="M98.09,111.83c0.16,0.06,0.32,0.11,0.47,0.14c0.15,0.03,0.29,0.04,0.4,0.04h0.29c0.54-0.01,0.98-0.1,1.34-0.27
		s0.64-0.41,0.84-0.71c0.21-0.3,0.35-0.67,0.43-1.1c0.08-0.43,0.12-0.91,0.12-1.44v-7.16h-0.8c-0.11,0-0.21,0.05-0.29,0.14
		c-0.08,0.09-0.12,0.21-0.12,0.35v7.21c0,0.54-0.14,0.95-0.41,1.24c-0.27,0.29-0.7,0.43-1.29,0.43h-0.12c-0.27,0-0.5-0.03-0.7-0.08
		c-0.2-0.05-0.36-0.11-0.49-0.18c-0.13-0.06-0.23-0.13-0.3-0.18c-0.07-0.06-0.11-0.1-0.12-0.12v-4.47
		c-0.27-0.08-0.53-0.15-0.79-0.22c-0.26-0.06-0.53-0.12-0.82-0.17c-0.29-0.05-0.57-0.08-0.83-0.08c-0.54,0-1.01,0.08-1.44,0.25
		c-0.42,0.16-0.78,0.4-1.08,0.7c-0.3,0.3-0.53,0.67-0.69,1.1c-0.16,0.43-0.24,0.9-0.24,1.41c0,0.47,0.03,0.89,0.09,1.25
		c0.06,0.37,0.12,0.63,0.19,0.8H90.6c-0.3,0-0.55-0.03-0.75-0.09c-0.2-0.06-0.37-0.13-0.52-0.2c-0.14-0.08-0.26-0.17-0.36-0.27v-8.8
		h-0.82c-0.11,0-0.21,0.05-0.28,0.14c-0.07,0.09-0.11,0.21-0.11,0.35v7.59c0,0.39-0.09,0.7-0.26,0.93
		c-0.17,0.23-0.48,0.35-0.91,0.35h-0.19v0h-0.07c-1.16,0-1.61-0.54-1.62-0.56v-8.8h-0.8c-0.11,0-0.21,0.05-0.29,0.14
		c-0.08,0.09-0.12,0.21-0.12,0.35v7.59c0,0.39-0.09,0.7-0.26,0.93c-0.17,0.23-0.48,0.35-0.91,0.35H78.2c-0.29,0-2.56-0.03-2.83-0.1
		c-0.28-0.06-0.53-0.18-0.74-0.34c-0.22-0.16-0.39-0.4-0.53-0.69c-0.13-0.3-0.2-0.68-0.2-1.15c0-0.29,0.01-0.53,0.04-0.71
		c0.03-0.18,0.06-0.37,0.1-0.57c0.03-0.2,0.03-0.34-0.02-0.41c-0.04-0.08-0.12-0.14-0.23-0.18c-0.06-0.02-0.31-0.12-0.76-0.28
		c-0.07,0.2-0.13,0.41-0.19,0.62c-0.05,0.22-0.09,0.46-0.12,0.74c-0.03,0.28-0.05,0.59-0.05,0.93c0,0.47,0.07,0.91,0.21,1.33
		c0.14,0.42,0.35,0.79,0.64,1.1c0.29,0.31,0.66,0.56,1.1,0.74c0.45,0.18,1.19,0.27,1.8,0.27h6.28c1.34,0,1.78-0.87,1.76-0.9
		c0.65,0.9,1.6,0.9,1.94,0.9h0.54c0.46,0,0.84-0.09,1.14-0.27c0.3-0.18,0.51-0.39,0.63-0.62c0.63,0.84,1.48,0.9,1.87,0.9h0.29h5.29
		c0.43,0,0.91-0.39,1.02-0.75c0.12,0.13,0.26,0.24,0.42,0.33C97.77,111.69,97.93,111.77,98.09,111.83 M96.18,110.69h-0.36
		c0,0-2.63,0.08-2.85,0c-0.05-0.13-0.1-0.28-0.14-0.47c-0.04-0.18-0.07-0.39-0.1-0.63c-0.03-0.24-0.04-0.51-0.04-0.82
		c0-0.28,0.04-0.55,0.13-0.82c0.09-0.27,0.22-0.51,0.41-0.71c0.19-0.2,0.42-0.37,0.7-0.5c0.28-0.13,0.61-0.19,1-0.19
		c0.29,0,0.53,0.02,0.73,0.07c0.2,0.05,0.37,0.08,0.52,0.11V110.69z"/>
</g>
</svg>
