<?xml version="1.0" encoding="utf-8"?>
<!-- Generator: Adobe Illustrator 27.5.0, SVG Export Plug-In . SVG Version: 6.00 Build 0)  -->
<svg version="1.1" id="Layer_1" xmlns="http://www.w3.org/2000/svg" xmlns:xlink="http://www.w3.org/1999/xlink" x="0px" y="0px"
	 viewBox="0 0 189.15 189.15" style="enable-background:new 0 0 189.15 189.15;" xml:space="preserve">
<style type="text/css">
	.st0{fill:#7F7F7F;}
</style>
<g>
	<path class="st0" d="M81.02,94.22c0.03,0.31-0.26,0.55-0.56,0.48c-1.73-0.42-6.79-1.36-10.48,0.68c-0.72,0.4-1.36,0.77-1.94,1.13
		c-0.47,0.29-0.13,1,0.39,0.82c0.62-0.22,1.3-0.43,2.01-0.61c2.52-0.64,4.05-0.49,4.83-0.3c0.34,0.08,0.46,0.49,0.23,0.75
		c-1,1.11-3.7,3.75-7.47,4.89c-5.29,1.6-9.44,1-12.1,0.11c-0.38-0.13-0.42-0.64-0.07-0.83c1.19-0.67,3.49-2.12,6.6-4.82
		c4.6-4,11.01-6.36,18.31-2.67C80.91,93.92,81,94.06,81.02,94.22"/>
	<path class="st0" d="M82.68,98.41c-0.24-0.19-0.6-0.09-0.71,0.2c-0.61,1.68-2.6,6.41-6.34,8.37c-0.73,0.38-1.4,0.71-2.01,1
		c-0.5,0.23-0.91-0.45-0.47-0.78c0.53-0.4,1.07-0.84,1.62-1.34c1.92-1.75,2.64-3.11,2.91-3.87c0.12-0.33-0.16-0.66-0.5-0.6
		c-1.48,0.23-5.16,1.02-8.2,3.54c-4.25,3.54-6.04,7.33-6.76,10.03c-0.1,0.38,0.3,0.7,0.65,0.52c1.21-0.62,3.69-1.75,7.66-2.85
		c5.87-1.63,11.38-5.68,12.31-13.81C82.87,98.67,82.8,98.51,82.68,98.41"/>
	<path class="st0" d="M85.62,81.45c-0.31,0.23-0.75,0.09-0.86-0.27c-0.68-2.09-2.94-8-7.46-10.55c-0.88-0.5-1.69-0.93-2.43-1.31
		c-0.6-0.31-1.13,0.51-0.61,0.93c0.63,0.51,1.29,1.08,1.94,1.72c2.29,2.24,3.12,3.93,3.42,4.87c0.13,0.41-0.22,0.8-0.64,0.72
		c-1.81-0.34-6.31-1.46-9.94-4.69c-5.08-4.52-7.13-9.26-7.91-12.62c-0.11-0.48,0.4-0.85,0.82-0.62c1.46,0.82,4.47,2.3,9.3,3.82
		c7.16,2.25,13.77,7.45,14.59,17.49C85.87,81.14,85.78,81.33,85.62,81.45"/>
	<path class="st0" d="M82.3,85.89c0.04-0.38-0.29-0.69-0.67-0.62c-2.15,0.44-8.4,1.4-12.86-1.26c-0.87-0.52-1.64-1.01-2.34-1.47
		c-0.57-0.37-0.12-1.24,0.51-0.99c0.76,0.3,1.57,0.58,2.45,0.83c3.08,0.88,4.96,0.77,5.93,0.56c0.42-0.09,0.59-0.59,0.31-0.91
		c-1.19-1.4-4.39-4.76-9-6.31c-6.45-2.18-11.58-1.61-14.88-0.63c-0.47,0.14-0.55,0.77-0.13,1.02c1.43,0.87,4.21,2.75,7.92,6.19
		c5.5,5.11,13.29,8.28,22.42,4.02C82.15,86.26,82.27,86.08,82.3,85.89"/>
	<path class="st0" d="M94.17,74.02c0.34-0.23,0.36-0.73,0.03-0.98c-1.88-1.43-7.09-5.84-8.09-11.34c-1.22-6.74-0.83-9.88-0.83-9.88
		s0.27,4.28,2.58,9.24c2.32,4.95,4.55,5.69,4.55,5.69s1.48-6.44-1.09-12.65c-2.8-6.78-6.89-10.54-10.03-12.53
		c-0.45-0.28-1.01,0.1-0.92,0.62c0.31,1.78,0.75,5.37,0.58,10.82c-0.25,8.08,2.69,16.65,12.61,21.06
		C93.77,74.16,94,74.14,94.17,74.02"/>
	<path class="st0" d="M95.82,74.02c-0.34-0.23-0.36-0.73-0.03-0.98c1.88-1.43,7.09-5.84,8.09-11.34c1.22-6.74,0.83-9.88,0.83-9.88
		s-0.27,4.28-2.58,9.24c-2.32,4.95-4.55,5.69-4.55,5.69s-1.48-6.44,1.09-12.65c2.8-6.78,6.89-10.54,10.03-12.53
		c0.45-0.28,1.01,0.1,0.92,0.62c-0.31,1.78-0.75,5.37-0.58,10.82c0.25,8.08-2.69,16.65-12.61,21.06
		C96.22,74.16,95.99,74.14,95.82,74.02"/>
	<path class="st0" d="M104.37,81.45c0.31,0.23,0.75,0.09,0.86-0.27c0.68-2.09,2.94-8,7.46-10.55c0.88-0.5,1.69-0.93,2.43-1.31
		c0.6-0.31,1.13,0.51,0.61,0.93c-0.63,0.51-1.29,1.08-1.94,1.72c-2.29,2.24-3.12,3.93-3.42,4.87c-0.13,0.41,0.22,0.8,0.64,0.72
		c1.81-0.34,6.31-1.46,9.94-4.69c5.08-4.52,7.13-9.26,7.91-12.62c0.11-0.48-0.4-0.85-0.82-0.62c-1.46,0.82-4.47,2.3-9.3,3.82
		c-7.16,2.25-13.77,7.45-14.59,17.49C104.12,81.14,104.21,81.33,104.37,81.45"/>
	<path class="st0" d="M107.69,85.89c-0.04-0.38,0.29-0.69,0.67-0.62c2.15,0.44,8.4,1.4,12.86-1.26c0.87-0.52,1.64-1.01,2.34-1.47
		c0.57-0.37,0.12-1.24-0.51-0.99c-0.76,0.3-1.57,0.58-2.45,0.83c-3.08,0.88-4.96,0.77-5.93,0.56c-0.42-0.09-0.59-0.59-0.31-0.91
		c1.19-1.4,4.39-4.76,9-6.31c6.45-2.18,11.58-1.61,14.88-0.63c0.47,0.14,0.55,0.77,0.13,1.02c-1.43,0.87-4.21,2.75-7.92,6.19
		c-5.5,5.11-13.29,8.28-22.42,4.02C107.84,86.26,107.71,86.08,107.69,85.89"/>
	<path class="st0" d="M108.97,94.22c-0.03,0.31,0.26,0.55,0.56,0.48c1.73-0.42,6.79-1.36,10.48,0.68c0.72,0.4,1.36,0.77,1.94,1.13
		c0.47,0.29,0.13,1-0.39,0.82c-0.62-0.22-1.3-0.43-2.01-0.61c-2.52-0.64-4.05-0.49-4.83-0.3c-0.34,0.08-0.46,0.49-0.23,0.75
		c1,1.11,3.7,3.75,7.47,4.89c5.29,1.6,9.44,1,12.1,0.11c0.38-0.13,0.42-0.64,0.08-0.83c-1.19-0.67-3.49-2.12-6.6-4.82
		c-4.6-4-11.01-6.36-18.31-2.67C109.08,93.92,108.98,94.06,108.97,94.22"/>
	<path class="st0" d="M107.31,98.41c0.24-0.19,0.6-0.09,0.71,0.2c0.61,1.68,2.6,6.41,6.34,8.37c0.73,0.38,1.4,0.71,2.01,1
		c0.5,0.23,0.9-0.45,0.47-0.78c-0.53-0.4-1.07-0.84-1.62-1.34c-1.92-1.75-2.64-3.11-2.91-3.87c-0.12-0.33,0.16-0.66,0.5-0.6
		c1.48,0.23,5.16,1.02,8.2,3.54c4.25,3.54,6.04,7.33,6.76,10.03c0.1,0.38-0.3,0.7-0.65,0.52c-1.21-0.62-3.69-1.75-7.66-2.85
		c-5.87-1.63-11.38-5.68-12.31-13.81C107.12,98.67,107.18,98.51,107.31,98.41"/>
	<path class="st0" d="M105.44,105.41c-0.26-0.06-0.5,0.16-0.47,0.42c0.16,1.52,0.39,5.93-1.76,8.83c-2.63,3.56-4.29,4.77-4.29,4.77
		s1.9-2.02,3.21-5.31c1.31-3.29,0.67-4.66,0.67-4.66s-3.69,2.16-5.48,6.12c-1.96,4.32-1.92,7.92-1.46,10.28
		c0.06,0.34,0.49,0.43,0.7,0.16c0.7-0.93,2.2-2.73,4.84-5.07c3.92-3.46,6.66-8.65,4.33-15.27
		C105.68,105.54,105.57,105.44,105.44,105.41"/>
	<path class="st0" d="M84.55,105.41c0.26-0.06,0.5,0.16,0.47,0.42c-0.16,1.52-0.39,5.93,1.76,8.83c2.63,3.56,4.29,4.77,4.29,4.77
		s-1.9-2.02-3.21-5.31c-1.31-3.29-0.67-4.66-0.67-4.66s3.69,2.16,5.48,6.12c1.95,4.32,1.91,7.92,1.46,10.28
		c-0.06,0.34-0.49,0.43-0.7,0.16c-0.7-0.93-2.19-2.73-4.84-5.07c-3.92-3.46-6.66-8.65-4.33-15.27
		C84.3,105.54,84.42,105.44,84.55,105.41"/>
	<path class="st0" d="M95.01,92.26c1.22-0.3,2.31-1.05,2.08-2.44C95.84,90.13,94.78,90.85,95.01,92.26 M94.75,92.27
		c0.1-1.29-0.74-2.26-2.1-2.43C92.42,91.24,93.6,92,94.75,92.27 M95.03,94.85c0.82-0.22,1.56-0.53,2.16-1.09
		c0.58-0.54,0.69-1.2,0.59-1.93C96.02,92.04,94.92,93.24,95.03,94.85 M94.72,94.81c0.27-1.8-1.31-2.71-2.77-2.98
		C91.64,93.51,93.16,94.51,94.72,94.81 M95.25,89.73c-0.69-0.1-0.97-0.4-1.09-1.17c-0.17,0.49-0.09,0.86,0.26,1.12
		C94.66,89.88,94.94,89.89,95.25,89.73 M95.94,88.63c0.09,0.38,0,0.75-0.25,1.07c-0.45,0.57-1.24,0.53-1.64-0.07
		c-0.23-0.34-0.29-0.7-0.21-1.08c0.17-0.8,0.58-1.5,1.05-2.24C95.35,87.08,95.75,87.82,95.94,88.63 M95.37,97.28
		c0.39-0.1,0.78-0.21,1.17-0.29c1.25-0.26,1.99-0.98,2.28-2.15c0.03-0.12,0.04-0.24,0.07-0.39c-0.23,0.07-0.41,0.15-0.59,0.17
		c-0.43,0.05-0.86,0.08-1.3,0.11c-0.65,0.06-1.24,0.23-1.7,0.71c-0.23,0.23-0.41,0.46-0.18,0.79c0.05,0.08,0.06,0.18,0.08,0.27
		c0.6-1.18,1.84-1.49,2.62-1.39C96.23,95.47,95.6,96.25,95.37,97.28 M94.48,96.94c0.08,0.41,0.11,0.84,0.16,1.28
		c0.04,0.02,0.11,0.06,0.18,0.09c0.22,0.08,0.44-0.09,0.41-0.31c-0.05-0.37-0.09-0.74-0.17-1.1c-0.27-1.27-1.07-2.14-2.62-2.19
		c-0.53-0.02-1.09,0-1.58-0.34c0.02,0.13,0.04,0.23,0.06,0.32c0.25,1.15,0.9,1.95,2.14,2.25c0.37,0.09,0.75,0.18,1.12,0.27
		c-0.16-1.24-0.93-1.91-2.21-2.12C93.43,94.97,94.27,95.78,94.48,96.94 M102.57,97.13c-0.92-0.27-1.85-0.24-2.77-0.1
		c-1.22,0.18-2.34,0.64-3.4,1.24c-0.5,0.28-0.98,0.59-1.44,0.87c-0.41-0.24-0.82-0.44-1.2-0.7c-0.96-0.64-2.01-1.05-3.13-1.32
		c-1.05-0.25-2.1-0.32-3.16-0.05c-0.16,0.04-0.3,0.12-0.45,0.18l0.03,0.09c0.16,0,0.32,0.04,0.46,0c0.56-0.18,1.12-0.08,1.66,0.04
		c1.84,0.42,3.39,1.39,4.93,2.42c-0.39,0.34-0.76,0.65-1.13,0.97c-0.21-0.12-0.4-0.24-0.59-0.34c-0.19-0.1-0.39-0.1-0.49,0.09
		c-0.07,0.12-0.08,0.36,0,0.42c0.1,0.09,0.31,0.05,0.48,0.07l0.01-0.07c0.1,0.06,0.19,0.13,0.35,0.23c-0.34,0.24-0.6,0.45-0.89,0.61
		c-0.15,0.09-0.36,0.08-0.55,0.11c-0.08,0.01-0.25,0-0.25,0.04c-0.03,0.09-0.03,0.23,0.02,0.3c0.17,0.21,0.41,0.31,0.7,0.27
		c0.5-0.07,0.9-0.33,1.27-0.61c0.17-0.12,0.27-0.18,0.44-0.01c0.11,0.12,0.29,0.21,0.45,0.25c0.1,0.02,0.3-0.03,0.35-0.11
		c0.06-0.1,0.04-0.27-0.01-0.39c-0.06-0.15-0.2-0.13-0.35-0.06c-0.07,0.03-0.18-0.04-0.27-0.07l-0.02-0.1
		c0.42-0.32,0.84-0.63,1.27-0.95H95c0.38,0.27,0.76,0.54,1.12,0.83c0.05,0.04,0.05,0.16,0.03,0.23c-0.01,0.03-0.13,0.03-0.19,0.05
		c-0.1,0.02-0.27,0.03-0.3,0.08c-0.04,0.12-0.05,0.28,0,0.39c0.04,0.07,0.24,0.13,0.33,0.1c0.17-0.06,0.33-0.18,0.46-0.29
		c0.15-0.12,0.26-0.1,0.41,0c0.32,0.21,0.65,0.42,1.01,0.58c0.47,0.21,0.79,0.03,0.96-0.18c0.06-0.08,0.04-0.2,0.06-0.31
		c-0.09-0.01-0.18-0.03-0.27-0.04c-0.12,0-0.26,0.04-0.35,0c-0.37-0.21-0.71-0.44-1.07-0.67c0.23-0.29,0.23-0.27,0.52-0.22
		c0.09,0.01,0.26-0.05,0.28-0.11c0.04-0.1,0.04-0.29-0.03-0.36c-0.08-0.08-0.28-0.14-0.38-0.1c-0.24,0.08-0.45,0.22-0.69,0.35
		c-0.37-0.31-0.74-0.63-1.12-0.96l0.13-0.11c1.22-0.83,2.49-1.59,3.91-2.08c0.92-0.32,1.86-0.55,2.84-0.26
		c0.04,0.01,0.11-0.03,0.21-0.07C102.74,97.2,102.66,97.15,102.57,97.13 M91.64,83.6c-1.26-0.23-2.42,0.09-3.58,0.63
		c1.33-1.29,2.83-2.03,4.77-1.76v-0.13c-0.32-0.15-0.63-0.3-0.9-0.43c0.75-0.18,1.53-0.13,2.25,0.26c0.19-0.35,0.39-0.7,0.59-1.07
		c0.48,0.26,0.61,0.65,0.74,1.08c0.75-0.41,1.53-0.47,2.34-0.28c-0.32,0.14-0.63,0.28-0.94,0.42l0.02,0.11
		c0.88,0,1.76-0.04,2.59,0.31c0.81,0.35,1.49,0.86,2.11,1.47c-0.37-0.14-0.73-0.3-1.1-0.41c-0.39-0.11-0.79-0.21-1.19-0.26
		c-0.41-0.04-0.82-0.01-1.25,0.03c2,0.47,3.59,1.37,4.17,3.39c-1.22-1.12-2.59-1.97-4.33-2.17c0.74,0.53,1.35,1.17,1.8,1.94
		c0.46,0.77,0.77,1.57,0.56,2.56c-0.83-1.5-1.8-2.8-3.35-3.61c0.59,1.03,0.59,2.04-0.01,3c-0.26-0.58-0.47-1.2-0.8-1.76
		c-0.33-0.57-0.78-1.07-1.21-1.65c-0.98,1.06-1.78,2.12-2,3.47c-0.53-0.6-0.81-1.85-0.07-3.02l0.01-0.07l-0.05,0.03
		c-0.66,0.27-1.16,0.73-1.63,1.22c-0.67,0.69-1.23,1.46-1.67,2.32c-0.37-0.81,0.19-2.86,2.33-4.41c-0.42-0.06-1.61,0.25-2.34,0.69
		c-0.69,0.42-1.33,0.92-1.99,1.38C88.09,84.92,89.69,84.07,91.64,83.6"/>
	<g>
		<path class="st0" d="M68.13,147.88c-0.08-0.67-0.03-1.35-0.03-2.02c0-1.31,0.01-2.61,0.02-3.92c0.01-1.95,1.8-3.8,3.55-4.16
			c0.95-0.19,1.91-0.15,2.87-0.15c0.72,0,1.43,0.01,2.15,0.01c1.15,0.01,2.3,0.03,3.34,0.57c0.7,0.37,1.21,0.92,1.5,1.69
			c0.34,0.89,0.17,1.73-0.18,2.54c-0.37,0.87-1.11,1.35-1.98,1.65c-1.53,0.52-3.08,0.46-4.63,0.09c-1.64-0.39-2.41-1.53-2.48-3.2
			c-0.02-0.54-0.01-1.09-0.01-1.64c0-0.23-0.04-0.28-0.3-0.23c-1.1,0.22-2.53,1.41-2.5,3.29c0.02,1.67,0,3.33,0,5
			c0,0.16-0.02,0.31-0.02,0.47C68.99,147.88,68.56,147.88,68.13,147.88z M75.83,139.03c-0.65,0-1.29,0-1.94,0
			c-0.17,0-0.31,0-0.3,0.24c0.02,0.66-0.05,1.32,0.05,1.98c0.13,0.89,0.58,1.4,1.46,1.63c0.37,0.09,0.76,0.12,1.13,0.19
			c1.03,0.19,2.02,0.06,2.95-0.36c0.63-0.29,1.08-0.73,1.14-1.54c0.08-1.04-0.59-1.84-1.62-2.02
			C77.74,138.98,76.78,139.02,75.83,139.03z"/>
		<path class="st0" d="M94.52,144.19c0-0.29,0.03-0.59-0.01-0.87c-0.06-0.43,0.15-0.49,0.51-0.49c1.36,0.01,2.73-0.03,4.09,0.02
			c0.72,0.03,1.37-0.45,1.24-1.24c-0.07-0.42,0.02-0.84-0.12-1.27c-0.24-0.73-0.85-1.26-1.64-1.28c-0.69-0.02-1.38-0.02-2.07,0
			c-0.27,0.01-0.37-0.06-0.37-0.36c0-1.02-0.01-1.03,0.99-1.01c0.78,0.02,1.56-0.08,2.34,0.16c1.07,0.33,2.04,1.42,2.19,2.53
			c0.06,0.43,0.07,0.86,0.07,1.29c0,0.76,0.4,1.15,1.17,1.16c0.99,0.01,1.98,0,2.97,0c1.62,0,3.25,0,4.87,0
			c1.07,0,1.65-0.58,1.66-1.65c0.01-0.93,0.01-1.87-0.01-2.8c-0.01-0.29,0.09-0.36,0.37-0.36c0.99,0,0.99-0.01,0.99,0.98
			c0,0.8-0.01,1.61,0,2.41c0.01,0.93,0.46,1.38,1.37,1.38c1.55,0,3.1-0.02,4.65-0.01c0.36,0,0.42-0.12,0.42-0.45
			c-0.01-2.72,0-5.43-0.01-8.15c0-0.35,0.08-0.46,0.44-0.45c0.93,0.02,0.93,0.01,0.93,0.91c0,2.6,0,5.2,0,7.8
			c0,0.48-0.2,0.92-0.49,1.27c-0.29,0.35-0.75,0.42-1.21,0.42c-1.61,0-3.22,0-4.83,0.02c-0.7,0.01-1.34-0.14-1.82-0.69
			c-0.14-0.16-0.24-0.16-0.41-0.01c-0.53,0.47-1.16,0.72-1.88,0.71c-2.72,0-5.43,0-8.15,0c-0.55,0-1.05-0.15-1.48-0.5
			c-0.15-0.12-0.26-0.17-0.43-0.01c-0.43,0.4-0.97,0.51-1.55,0.51c-1.44-0.01-2.87,0-4.31,0C94.87,144.19,94.71,144.19,94.52,144.19
			z"/>
		<path class="st0" d="M91.1,144.43c-1.19,0-2.33,0-3.46,0c-0.82,0-1.62-0.1-2.39-0.42c-1.42-0.59-2.18-1.73-2.02-3.24
			c0.1-0.9,0.57-1.65,1.3-2.23c0.65-0.52,1.42-0.71,2.2-0.8c1.2-0.13,2.4-0.06,3.58,0.16c1.26,0.24,2.07,1.09,2.28,2.34
			c0.19,1.12,0.28,2.27,0.11,3.42c-0.27,1.85-1.28,3.12-3.01,3.81c-0.41,0.16-0.85,0.22-1.29,0.28c-0.25,0.04-0.35-0.06-0.32-0.3
			c0-0.03,0-0.06,0-0.09c0-0.29-0.09-0.63,0.04-0.85c0.13-0.22,0.51-0.14,0.77-0.22C89.87,146.01,90.63,145.45,91.1,144.43z
			 M89.03,143.06c0.67,0,1.35,0,2.02,0c0.15,0,0.33,0.03,0.32-0.22c-0.02-0.72,0.09-1.43-0.04-2.15c-0.15-0.86-0.75-1.44-1.53-1.53
			c-0.87-0.1-1.74-0.08-2.62-0.08c-0.46,0-0.92,0.09-1.34,0.28c-0.71,0.31-1.17,0.85-1.23,1.62c-0.07,1.01,0.42,1.59,1.5,1.9
			C87.07,143.15,88.05,143.05,89.03,143.06z"/>
		<path class="st0" d="M112.68,135.72c-0.53,0.06-0.74,0.52-0.45,0.96c0.21,0.31,0.5,0.35,0.82,0.32c0.34,0.02,0.72,0.02,0.84-0.36
			c0.02-0.07,0.04-0.15,0.05-0.23c0.04-0.37-0.25-0.7-0.62-0.7C113.11,135.71,112.85,135.7,112.68,135.72z"/>
		<path class="st0" d="M110.48,135.72c0.73,0,0.94,0.2,0.84,0.82c-0.01,0.06-0.02,0.12-0.05,0.16c-0.3,0.45-0.77,0.3-1.18,0.29
			c-0.31-0.01-0.51-0.25-0.58-0.55c-0.09-0.39,0.16-0.69,0.57-0.72C110.23,135.71,110.35,135.72,110.48,135.72z"/>
	</g>
</g>
</svg>
