<?xml version="1.0" encoding="utf-8"?>
<!-- Generator: Adobe Illustrator 27.5.0, SVG Export Plug-In . SVG Version: 6.00 Build 0)  -->
<svg version="1.1" id="Layer_1" xmlns="http://www.w3.org/2000/svg" xmlns:xlink="http://www.w3.org/1999/xlink" x="0px" y="0px"
	 viewBox="0 0 279.82 189.15" style="enable-background:new 0 0 279.82 189.15;" xml:space="preserve">
<style type="text/css">
	.st0{fill:#7F7F7F;}
	.st1{fill-rule:evenodd;clip-rule:evenodd;fill:#7F7F7F;}
</style>
<g>
	<g>
		<g>
			<path class="st0" d="M133.71,64.41v40.83c0,1.93-0.55,3.51-1.66,4.74c-0.95,1.07-2.16,1.69-3.62,1.89v7.01
				c3.64-0.21,6.8-1.53,9.47-3.98c2.89-2.66,4.33-5.88,4.33-9.66V64.41H133.71z"/>
		</g>
		<path class="st0" d="M180.36,58.07c0,0-0.01,0-0.02,0c-2.59-2.57-5.71-3.86-9.33-3.86c-3.65,0-6.77,1.29-9.37,3.86
			c-2.57,2.59-3.86,5.71-3.86,9.33c0,0,0,35.71,0.01,35.71v1.09c0,1.86-0.49,3.39-1.48,4.58c-0.85,1.03-3.95,1.63-5.25,1.82v8.47
			c3.26-0.2,6.98-1.63,9.51-3.68c2.6-2.1,4.07-5.3,4.59-8.55c0.14-0.87,0.21-1.76,0.21-2.64c0,0,0-24.35-0.01-24.35V67.4
			c0-1.77,0.49-3.15,1.48-4.13c0.98-0.98,2.37-1.48,4.16-1.48c1.79,0,3.17,0.5,4.16,1.48c0.99,0.99,1.48,2.36,1.48,4.13v43.24h7.58
			V67.4C184.21,63.77,182.93,60.66,180.36,58.07z"/>
		<path class="st0" d="M124.77,67.53c0-3.65-1.29-6.77-3.86-9.37c-2.59-2.57-5.7-3.86-9.33-3.86H99.54v0.01h-1.09v7.58l10.98,0
			v-0.01h2.15c1.77,0,3.14,0.49,4.13,1.48c0.98,0.98,1.48,2.37,1.48,4.16c0,1.79-0.5,3.17-1.48,4.16c-0.99,0.99-2.36,1.48-4.13,1.48
			H98.52v7.58h0v23.45c0,3.65,1.29,7.03,3.86,9.6c2.37,2.37,5.19,3.65,8.43,3.85l-0.01-7.04c-1.3-0.19-2.38-0.79-3.23-1.82
			c-0.99-1.19-1.48-2.72-1.48-4.58V80.74h5.49c3.63,0,6.74-1.29,9.33-3.86l0-0.01c0,0,0,0,0,0
			C123.49,74.27,124.77,71.16,124.77,67.53z"/>
		<path class="st1" d="M113.6,97.97c0.3,0.01,2.01-0.02,2.01-0.02c2.04,0,3.7-1.66,3.7-3.7c0-2.05-1.66-3.7-3.7-3.7
			c0,0-2.93-0.21-3.83,0.5"/>
		<path class="st1" d="M136.91,61.48c0.3,0.01,2.01-0.02,2.01-0.02c2.04,0,3.7-1.66,3.7-3.7c0-2.05-1.66-3.7-3.7-3.7
			c0,0-2.93-0.21-3.82,0.5"/>
	</g>
	<g>
		<g>
			<path class="st0" d="M97.01,133.29v-5.26h0.8l1.72,2.27l1.74-2.27h0.8v5.26h-0.74v-4.15l-1.8,2.36l-1.79-2.36v4.15H97.01z"/>
			<path class="st0" d="M107.4,133.29l2.1-5.26h0.72l2.09,5.26h-0.79l-0.57-1.48h-2.2l-0.57,1.48H107.4z M109.02,131.13h1.67
				l-0.84-2.18L109.02,131.13z"/>
			<path class="st0" d="M117.52,133.29v-0.61l2.78-3.97h-2.7v-0.69h3.64v0.61l-2.76,3.96h2.76v0.69H117.52z"/>
			<path class="st0" d="M126.56,133.05v-0.75c0.31,0.25,0.65,0.37,1.04,0.37c0.3,0,0.52-0.06,0.67-0.19
				c0.15-0.13,0.22-0.37,0.22-0.72v-3.73h0.74v3.66c0,0.34-0.05,0.63-0.16,0.87c-0.1,0.24-0.24,0.41-0.41,0.52
				c-0.17,0.11-0.34,0.18-0.49,0.22c-0.16,0.04-0.32,0.06-0.5,0.06C127.26,133.36,126.89,133.26,126.56,133.05z"/>
		</g>
		<path class="st0" d="M144.06,131.7c0,0.52-0.42,0.95-0.95,0.95c-0.52,0-0.95-0.42-0.95-0.95c0-0.52,0.42-0.95,0.95-0.95
			C143.63,130.75,144.06,131.18,144.06,131.7z"/>
		<g>
			<path class="st0" d="M156.38,128.43c3-0.79,4.5,0.03,4.5,2.78v0.15l-0.12,0.06c-0.67,0.32-1.44,0.35-2.18,0.38
				c-1.25,0.04-2.18,0.08-2.18,1.4c0,1.64,2.19,1.59,3.92,1.5l-0.15,0.47c-2.15,0.16-4.19-0.11-4.19-1.97c0-1.5,0.84-1.8,2.59-1.86
				c0.66-0.02,1.33-0.05,1.88-0.28c-0.06-2.49-1.53-2.82-3.97-2.2L156.38,128.43z M159.77,133.34c-0.13,0.11-0.28,0.25-0.38,0.38
				c-0.11-0.13-0.25-0.27-0.37-0.38c0.13-0.11,0.27-0.25,0.37-0.37C159.49,133.09,159.64,133.24,159.77,133.34z"/>
			<path class="st0" d="M178.45,131.33v0.46h-15.03c-0.21,0-0.39-0.05-0.52-0.15c0.01,0.17,0.01,0.33,0.01,0.47
				c0,1.37-0.86,1.87-1.96,1.91l-0.12-0.45c0.79,0.02,1.66-0.23,1.66-1.47c0-0.84-0.1-1.94-0.28-3.84l0.41-0.25
				c0.1,1.08,0.19,1.96,0.23,2.67c0.04,0.42,0.19,0.64,0.55,0.64H178.45z M161.78,126.68c0.13-0.11,0.28-0.25,0.38-0.38
				c0.11,0.13,0.25,0.28,0.38,0.38c-0.13,0.11-0.28,0.25-0.38,0.38C162.05,126.93,161.9,126.79,161.78,126.68z"/>
			<path class="st0" d="M182.99,131.39v0.27v0.13h-2.53c-0.43,0-0.74-0.28-0.92-0.59c-0.14,0.32-0.35,0.59-0.69,0.59h-0.47
				c-0.16,0-14.94-0.09-14.94-0.23c0-0.15,14.79-0.23,14.94-0.23h0.47c0.21,0,0.33-0.28,0.46-0.78c0.33-1.23,1.26-2.49,2.49-2.49
				c1.11,0,1.18,2.15,1.19,3.27V131.39z M180.46,131.33h2.11c0-0.96-0.05-2.81-0.77-2.81c-1.02,0-1.77,1.06-2.08,2.15
				c0.01,0.06,0.06,0.2,0.14,0.33C180,131.22,180.19,131.33,180.46,131.33z"/>
		</g>
		<g>
			<g>
				<path class="st0" d="M133.13,64.41v39.79c0,1.86-0.49,3.39-1.48,4.58c-0.85,1.03-1.92,1.63-3.23,1.82v6.78
					c3.24-0.2,6.05-1.48,8.43-3.85c2.57-2.57,3.86-5.68,3.86-9.33V64.41H133.13z"/>
			</g>
			<path class="st0" d="M178.35,58.07l-0.01,0c0,0,0,0-0.01,0c-2.59-2.57-5.71-3.86-9.33-3.86c-3.65,0-6.77,1.29-9.37,3.86
				c-2.57,2.59-3.86,5.71-3.86,9.33v35.71h0.01v1.09c0,1.86-0.49,3.39-1.48,4.58c-0.85,1.03-1.92,1.63-3.23,1.82v6.78
				c3.24-0.2,6.05-1.48,8.43-3.85c2.57-2.57,3.86-5.68,3.86-9.33V79.84h-0.01V67.4c0-1.77,0.49-3.15,1.48-4.13
				c0.98-0.98,2.37-1.48,4.16-1.48c1.79,0,3.17,0.5,4.16,1.48c0.99,0.99,1.48,2.36,1.48,4.13v43.24h7.58V67.4
				C182.21,63.77,180.92,60.66,178.35,58.07z"/>
			<path class="st0" d="M122.77,67.53c0-3.65-1.29-6.77-3.86-9.37c-2.59-2.57-5.71-3.86-9.33-3.86H97.54v0.01h-1.09v7.58l10.98,0
				v-0.01h2.15c1.77,0,3.14,0.49,4.13,1.48c0.98,0.98,1.48,2.37,1.48,4.16c0,1.79-0.5,3.17-1.48,4.16
				c-0.99,0.99-2.36,1.48-4.13,1.48H96.51v7.58h0v23.45c0,3.65,1.29,6.76,3.86,9.33c2.37,2.37,5.19,3.65,8.43,3.85v-6.78
				c-1.3-0.19-2.38-0.79-3.23-1.82c-0.99-1.19-1.48-2.72-1.48-4.58V80.74h5.49c3.63,0,6.74-1.29,9.33-3.86l0-0.01c0,0,0,0,0,0
				C121.48,74.27,122.77,71.16,122.77,67.53z"/>
			<path class="st1" d="M113.6,90.57c-2.04,0-3.7,1.66-3.7,3.7c0,2.04,1.66,3.7,3.7,3.7c2.04,0,3.7-1.66,3.7-3.7
				C117.3,92.22,115.64,90.57,113.6,90.57z"/>
			<path class="st1" d="M136.91,54.08c-2.05,0-3.7,1.66-3.7,3.7c0,2.04,1.66,3.7,3.7,3.7c2.04,0,3.7-1.66,3.7-3.7
				C140.61,55.73,138.95,54.08,136.91,54.08z"/>
		</g>
	</g>
</g>
</svg>
