<?xml version="1.0" encoding="utf-8"?>
<!-- Generator: Adobe Illustrator 27.5.0, SVG Export Plug-In . SVG Version: 6.00 Build 0)  -->
<svg version="1.1" id="Layer_1" xmlns="http://www.w3.org/2000/svg" xmlns:xlink="http://www.w3.org/1999/xlink" x="0px" y="0px"
	 viewBox="0 0 362.17 189.15" style="enable-background:new 0 0 362.17 189.15;" xml:space="preserve">
<style type="text/css">
	.st0{fill:#7F7F7F;}
</style>
<g>
	<polygon class="st0" points="222.85,98.28 222.85,105.9 222.85,113.49 224.51,113.49 226.17,113.49 226.17,110.75 226.17,108.06 
		230.85,108.06 235.54,108.06 235.54,106.61 235.54,105.12 230.85,105.12 226.17,105.12 226.17,103.17 226.17,101.22 231.48,101.22 
		236.78,101.22 236.78,99.73 236.78,98.28 229.82,98.28 	"/>
	<path class="st0" d="M246.73,97.9c-2.82,0-5.06,0.75-6.63,2.16c-1.53,1.37-2.4,3.4-2.4,5.93s0.95,4.48,2.53,5.8
		c1.49,1.24,3.61,1.95,6.05,2.03l0,0h0.37h0.04c2.61,0,4.85-0.7,6.47-2.03c1.62-1.33,2.53-3.32,2.53-5.8c0-2.53-0.83-4.56-2.4-5.93
		C251.83,98.69,249.55,97.9,246.73,97.9 M250.21,110.13c-1.2,0.7-2.61,0.83-3.48,0.83c-0.87,0-2.28-0.12-3.48-0.83
		c-1.2-0.7-2.2-1.99-2.2-4.27c0-1.58,0.54-2.82,1.49-3.69c0.99-0.87,2.4-1.33,4.19-1.33s3.19,0.46,4.19,1.33
		c0.99,0.87,1.49,2.11,1.49,3.69C252.41,108.14,251.42,109.43,250.21,110.13"/>
	<polygon class="st0" points="301.82,110.55 301.82,104.41 301.82,98.28 300.17,98.28 298.51,98.28 298.51,105.9 298.51,113.49 
		305.06,113.49 311.61,113.49 311.61,112.04 311.61,110.55 306.72,110.55 	"/>
	<polygon class="st0" points="317,110.55 317,104.41 317,98.28 315.34,98.28 313.68,98.28 313.68,105.9 313.68,113.49 
		320.52,113.49 327.32,113.49 327.32,112.04 327.32,110.55 322.18,110.55 	"/>
	<path class="st0" d="M269.2,107.81c0.99-0.12,1.99-0.62,2.74-1.45c0.75-0.79,1.2-1.95,1.2-3.32c0-2.03-0.79-3.23-1.95-3.9
		c-1.16-0.66-2.74-0.87-4.27-0.87h-9v15.21h3.32v-5.43h4.15l2.16,2.69l2.16,2.69h4.1l-2.28-2.82L269.2,107.81z M266.46,105.24h-5.22
		v-4.02h5.22c1.29,0,2.11,0.17,2.61,0.46c0.5,0.33,0.7,0.83,0.7,1.53c0,0.7-0.21,1.2-0.7,1.53
		C268.58,105.07,267.75,105.24,266.46,105.24"/>
	<path class="st0" d="M243.58,87.25h5.1c1.29,0,2.98-0.08,4.35-0.75c1.37-0.66,2.45-1.91,2.45-4.27c0-2.36-1.08-3.61-2.45-4.23
		c-1.37-0.62-3.11-0.66-4.35-0.66h-8.46v15.21h3.32v-5.31H243.58z M243.58,80.28h5.76c0.95,0,1.66,0.12,2.16,0.46
		c0.5,0.33,0.7,0.83,0.7,1.58c0,0.83-0.29,1.37-0.83,1.66c-0.5,0.29-1.24,0.37-2.03,0.37h-5.76V80.28z"/>
	<path class="st0" d="M265.93,77.01c-2.82,0-5.06,0.75-6.63,2.16c-1.53,1.37-2.4,3.4-2.4,5.93c0,2.53,0.95,4.48,2.57,5.8
		s3.86,2.03,6.47,2.03s4.85-0.7,6.47-2.03c1.62-1.33,2.53-3.32,2.53-5.8c0-2.53-0.83-4.56-2.4-5.93
		C270.98,77.76,268.74,77.01,265.93,77.01 M269.41,89.2c-1.2,0.7-2.65,0.83-3.48,0.83c-0.87,0-2.28-0.12-3.48-0.83
		c-1.2-0.7-2.2-1.99-2.2-4.27c0-1.58,0.54-2.82,1.53-3.69c0.99-0.87,2.4-1.33,4.19-1.33s3.19,0.46,4.19,1.33s1.53,2.11,1.53,3.69
		C271.6,87.25,270.61,88.49,269.41,89.2"/>
	<polygon class="st0" points="300.75,86.42 300.75,92.6 302.4,92.6 304.06,92.6 304.06,86.42 304.06,80.28 307.38,80.28 
		310.7,80.28 310.7,78.83 310.7,77.38 302.4,77.38 294.16,77.38 294.16,78.83 294.16,80.28 297.47,80.28 300.75,80.28 	"/>
	<path class="st0" d="M280.43,87.17h4.23l2.16,2.69l2.16,2.69h4.1l-2.28-2.82l-2.28-2.82c0.99-0.12,1.99-0.62,2.74-1.45
		c0.75-0.83,1.2-1.95,1.2-3.32c0-2.03-0.79-3.23-1.95-3.9c-1.16-0.7-2.74-0.87-4.27-0.87h-9.08V92.6h3.32v-5.43H280.43z
		 M280.43,80.33h5.35c1.29,0,2.11,0.17,2.61,0.46c0.5,0.33,0.7,0.83,0.7,1.53c0,0.7-0.21,1.2-0.7,1.53
		c-0.5,0.33-1.37,0.46-2.61,0.46h-5.35V80.33z"/>
	<path class="st0" d="M325.91,91.64c1.29-0.87,1.95-2.11,1.95-3.69c0-1.24-0.46-2.2-1.37-2.94c-0.91-0.75-2.28-1.24-4.1-1.53
		l-1.74-0.25l-1.74-0.25c-1.58-0.21-2.32-0.46-2.74-0.75c-0.37-0.29-0.37-0.54-0.37-0.7c0-0.58,0.46-0.99,1.16-1.29
		c0.7-0.25,1.62-0.37,2.53-0.37c1.91,0,3.32,0.46,4.23,0.95c0.95,0.46,1.41,0.95,1.41,0.95l1.24-0.83l1.24-0.83
		c0,0-0.54-0.75-1.82-1.49c-1.29-0.75-3.27-1.49-6.22-1.49c-2.28,0-4.06,0.41-5.26,1.2c-1.2,0.79-1.82,1.95-1.82,3.44
		c0,1.2,0.5,2.16,1.41,2.9c0.91,0.75,2.32,1.24,4.1,1.49l1.78,0.25l1.78,0.25c0.7,0.08,1.45,0.25,2.03,0.5
		c0.58,0.25,0.99,0.62,0.99,1.16s-0.41,0.99-1.16,1.33c-0.7,0.33-1.74,0.5-2.94,0.5c-2.36,0-3.81-0.66-4.73-1.33
		c-0.87-0.66-1.16-1.33-1.16-1.33l-1.29,0.79l-1.29,0.79c0,0,0.41,0.99,1.66,2.03c1.24,0.99,3.36,2.03,6.72,2.03
		C322.76,92.93,324.62,92.47,325.91,91.64"/>
	<path class="st0" d="M236.66,84.97c-0.91-0.75-2.28-1.24-4.1-1.53l-1.74-0.25l-1.74-0.25c-1.58-0.21-2.32-0.46-2.74-0.75
		c-0.37-0.29-0.37-0.54-0.37-0.7c0-0.58,0.5-0.99,1.16-1.29c0.7-0.25,1.62-0.37,2.53-0.37c1.91,0,3.32,0.46,4.23,0.95
		c0.95,0.46,1.41,0.95,1.41,0.95l1.24-0.83l1.24-0.83c0,0-0.54-0.75-1.82-1.49c-1.29-0.75-3.27-1.49-6.22-1.49
		c-2.28,0-4.06,0.41-5.26,1.2c-1.2,0.79-1.82,1.95-1.82,3.44c0,1.2,0.5,2.16,1.41,2.9c0.91,0.75,2.32,1.24,4.1,1.49l1.78,0.25
		l1.78,0.25c0.7,0.08,1.45,0.25,2.03,0.5c0.58,0.25,0.99,0.62,0.99,1.16c0,0.54-0.41,0.99-1.16,1.33c-0.75,0.33-1.74,0.5-2.94,0.5
		c-2.36,0-3.81-0.66-4.73-1.33c-0.87-0.66-1.16-1.33-1.16-1.33l-1.29,0.79l-1.29,0.79c0,0,0.41,0.99,1.66,2.03
		c1.24,0.99,3.36,2.03,6.72,2.03c2.36,0,4.27-0.46,5.51-1.33c1.29-0.87,1.95-2.11,1.95-3.69C237.98,86.71,237.53,85.71,236.66,84.97
		"/>
	<path class="st0" d="M290.05,98.28h-1.78h-1.78c-0.54,1.16-2.36,4.93-4.02,8.46c-1.66,3.52-3.19,6.72-3.19,6.72h1.78h1.78
		l1.12-2.53h4.27h4.27l1.12,2.53h1.78h1.78c0,0-1.41-3.03-3.03-6.47C292.54,103.62,290.76,99.81,290.05,98.28 M288.27,108.14h-3.07
		l0.33-0.75l2.74-6.09l2.69,6.09l0.33,0.75H288.27z"/>
	<path class="st0" d="M111.59,115.06c-0.33-0.25-0.75-0.41-1.2-0.37s-0.87,0.21-1.16,0.5c-0.29,0.29-0.46,0.66-0.46,1.08
		s0.21,0.79,0.54,1.04c0.33,0.25,0.75,0.41,1.2,0.37c0.46,0,0.87-0.21,1.16-0.5c0.29-0.29,0.46-0.66,0.46-1.08
		C112.13,115.69,111.92,115.31,111.59,115.06"/>
	<path class="st0" d="M137.33,110.42h-6.34V98.28h-3.61v12.15h-9.12v-1.82l0,0c-0.04-2.32-0.79-4.39-2.45-5.85
		c-2.07-1.78-4.23-1.66-5.93-1.66h-4.97v2.98h4.77c1.24,0,2.53,0.17,3.77,1.24c0.79,0.66,1.24,2.2,1.24,3.52v1.62H99.82
		c-1.91,0-3.27-0.41-4.1-1.24s-0.79-1.82-0.79-1.95v-0.04c0-2.03-0.66-3.65-1.95-4.77c-1.24-1.12-3.11-1.7-5.39-1.7
		c-2.32,0-4.15,0.62-5.39,1.7c-1.24,1.12-1.95,2.74-1.95,4.77v0.12c0,0.29-0.08,1.16-0.79,1.87c-0.83,0.83-3.36,1.24-5.26,1.24
		h-7.05v-9.33h-3.61v9.33H47.63l-1.37-1.7l4.35-2.86c1.53-0.99,2.2-2.78,1.66-4.56c-0.54-1.74-2.03-2.9-3.9-2.9H36.35v2.69v0.29
		l5.31,6.76l-1.04,0.66c-3.57,2.24-5.39,4.97-5.43,8.04c-0.04,2.82,1.45,5.31,3.94,6.67c1.33,0.75,2.86,1.12,4.56,1.12h0.08
		c1.87,0,5.18-0.75,8.95-2.78l-1.45-2.61c-3.07,1.7-5.97,2.45-7.5,2.45h-0.04c-1.2,0-2.24-0.25-3.15-0.75
		c-1.53-0.83-2.4-2.32-2.4-4.02c0-2.03,1.33-3.81,4.06-5.55l1.24-0.83l1.62,2.07l0.66,0.87h4.19h24.21c2.61,0,5.8-0.87,7.21-2.2
		c0.46,0.62,1.04,1.12,1.66,1.49c1.58,0.91,3.4,1.08,4.52,1.08c1.12,0,2.94-0.17,4.52-1.08c0.58-0.33,1.12-0.79,1.58-1.37
		c1.41,1.37,3.48,2.07,6.18,2.07h41.12V98.4h-3.61L137.33,110.42L137.33,110.42z M40.33,101.38h8.04c0.75,0,0.95,0.58,1.04,0.75
		c0.04,0.17,0.17,0.79-0.46,1.2l-4.6,3.03L40.33,101.38z M90.49,109.92c-0.7,0.41-1.74,0.62-2.9,0.62c-1.16,0-2.2-0.25-2.9-0.62
		c-0.62-0.37-1.24-0.95-1.24-2.78c0-1.62,0.66-2.16,0.87-2.36c0.66-0.58,1.87-0.91,3.32-0.91s2.61,0.33,3.32,0.91
		c0.21,0.21,0.87,0.75,0.87,2.36C91.73,108.97,91.11,109.59,90.49,109.92"/>
	<rect x="137.33" y="77.47" class="st0" width="3.61" height="15.13"/>
	<polygon class="st0" points="103.13,80.28 99.49,80.28 99.49,89.61 89.91,89.61 89.91,77.47 86.3,77.47 86.3,92.6 103.13,92.6 	"/>
	<path class="st0" d="M82.95,88.82c0-4.73-3.86-8.58-8.58-8.58H57.04v9.33h-5.97v-9.29h-6.14c-4.73,0-8.58,3.86-8.58,8.58v3.77H82.9
		v-3.81H82.95z M47.5,89.61h-7.92v-0.95c0-2.98,2.45-5.39,5.39-5.39h2.53V89.61z M79.79,89.61H60.68v-6.34h13.68
		c2.98,0,5.39,2.45,5.39,5.39v0.95H79.79z"/>
	<path class="st0" d="M68.81,78.54c0.29,0.29,0.7,0.46,1.16,0.46s0.87-0.17,1.16-0.46c0.29-0.29,0.5-0.66,0.5-1.04
		c0-0.41-0.17-0.79-0.5-1.04c-0.29-0.29-0.7-0.46-1.16-0.46s-0.87,0.17-1.16,0.46s-0.5,0.66-0.5,1.04
		C68.35,77.88,68.52,78.25,68.81,78.54"/>
	<path class="st0" d="M46.34,78.54c0.29,0.29,0.7,0.46,1.16,0.46c0.46,0,0.87-0.17,1.16-0.46c0.29-0.29,0.5-0.66,0.5-1.04
		c0-0.41-0.17-0.79-0.5-1.04c-0.29-0.29-0.7-0.46-1.16-0.46c-0.46,0-0.87,0.17-1.16,0.46c-0.29,0.29-0.5,0.66-0.5,1.04
		C45.84,77.88,46.01,78.25,46.34,78.54"/>
	<path class="st0" d="M40.79,78.54c0.29,0.29,0.7,0.46,1.16,0.46s0.87-0.17,1.16-0.46c0.29-0.29,0.5-0.66,0.5-1.04
		c0-0.41-0.17-0.79-0.5-1.04c-0.29-0.29-0.7-0.46-1.16-0.46s-0.87,0.17-1.16,0.46s-0.5,0.66-0.5,1.04
		C40.29,77.88,40.5,78.25,40.79,78.54"/>
	<path class="st0" d="M109.89,96.91c0.83,0,1.82,0,2.82-0.17c0.99-0.21,2.07-0.62,3.11-1.49c0.62-0.54,1.08-1.12,1.45-1.82
		c0.12-0.25,0.25-0.54,0.37-0.79h13.35v-2.98V77.51h-3.61v12.15h-9.08v-9.37h-3.61v3.77v5.14c0,0.62-0.12,1.33-0.33,1.99
		c-0.21,0.62-0.5,1.2-0.91,1.53c-0.62,0.54-1.24,0.83-1.91,1.04c-0.62,0.17-1.29,0.21-1.87,0.21h-2.36h-2.4v1.49v1.49h2.49h2.49
		V96.91z"/>
	<path class="st0" d="M99.49,93.88c-0.46,0-0.87,0.17-1.16,0.46c-0.29,0.29-0.5,0.62-0.5,1.04c0,0.41,0.17,0.79,0.5,1.04
		c0.29,0.29,0.7,0.46,1.16,0.46c0.46,0,0.87-0.17,1.16-0.46c0.29-0.29,0.5-0.66,0.5-1.04c0-0.41-0.17-0.79-0.5-1.04
		C100.36,94.05,99.98,93.88,99.49,93.88"/>
	<path class="st0" d="M94.06,93.88c-0.46,0-0.87,0.17-1.16,0.46c-0.29,0.29-0.5,0.62-0.5,1.04c0,0.41,0.17,0.79,0.5,1.04
		c0.29,0.29,0.7,0.46,1.16,0.46c0.46,0,0.87-0.17,1.16-0.46c0.29-0.29,0.5-0.66,0.5-1.04c0-0.41-0.17-0.79-0.5-1.04
		C94.93,94.05,94.51,93.88,94.06,93.88"/>
	<path class="st0" d="M64.71,115.15c-0.29-0.29-0.7-0.46-1.16-0.46c-0.46,0-0.87,0.17-1.16,0.46c-0.29,0.29-0.5,0.66-0.5,1.04
		c0,0.41,0.17,0.79,0.5,1.04c0.29,0.29,0.7,0.46,1.16,0.46c0.46,0,0.87-0.17,1.16-0.46c0.29-0.29,0.5-0.66,0.5-1.04
		C65.16,115.77,65,115.4,64.71,115.15"/>
	<path class="st0" d="M59.23,115.15c-0.29-0.29-0.7-0.46-1.16-0.46s-0.87,0.17-1.16,0.46c-0.29,0.29-0.5,0.66-0.5,1.04
		c0,0.41,0.17,0.79,0.5,1.04c0.29,0.29,0.7,0.46,1.16,0.46s0.87-0.17,1.16-0.46c0.29-0.29,0.5-0.66,0.5-1.04
		C59.73,115.77,59.52,115.4,59.23,115.15"/>
	<path class="st0" d="M173.98,99.98c7.46-11.65,3.81-22.1-14.97-51.07l-12.27,10.7l1.7,2.16C162.91,80.37,171.08,90.86,173.98,99.98
		"/>
	<path class="st0" d="M174.19,103.83c-0.17-1.04-0.41-2.07-0.75-3.11c-4.85,7.13-13.76,14.88-25.83,27.69l11.73,11.36
		C170.91,122.32,175.8,113.66,174.19,103.83"/>
	<path class="st0" d="M173.98,99.98c-2.9-9.12-11.07-19.61-25.54-38.22l-1.7-2.16l-0.54,0.46l1.66,2.11
		c14.3,18.36,22.8,29.31,25.58,38.55c0.33,1.04,0.58,2.07,0.75,3.11c1.62,9.78-3.27,18.49-14.84,35.9l0.5,0.5l0.04-0.04
		c11.69-17.62,16.62-26.41,14.97-36.48C174.68,102.5,174.39,101.26,173.98,99.98"/>
	<path class="st0" d="M216.3,59.6l-12.27-10.7c-18.78,28.98-22.43,39.42-14.97,51.07c2.9-9.12,11.07-19.61,25.54-38.22L216.3,59.6z"
		/>
	<path class="st0" d="M189.61,100.72c-0.33,1.04-0.58,2.07-0.75,3.11c-1.62,9.78,3.27,18.49,14.84,35.9l11.73-11.36
		C203.33,115.6,194.42,107.89,189.61,100.72"/>
	<path class="st0" d="M188.86,103.83c0.17-1.04,0.41-2.07,0.75-3.11c2.78-9.24,11.32-20.19,25.58-38.55l1.66-2.11l-0.54-0.46
		l-1.7,2.16c-14.51,18.61-22.63,29.1-25.54,38.22c-0.41,1.29-0.7,2.53-0.91,3.77c-1.66,10.07,3.32,18.82,14.97,36.48l0.04,0.04
		l0.5-0.5C192.14,122.32,187.24,113.66,188.86,103.83"/>
</g>
</svg>
