<?xml version="1.0" encoding="utf-8"?>
<!-- Generator: Adobe Illustrator 27.5.0, SVG Export Plug-In . SVG Version: 6.00 Build 0)  -->
<svg version="1.1" id="Layer_1" xmlns="http://www.w3.org/2000/svg" xmlns:xlink="http://www.w3.org/1999/xlink" x="0px" y="0px"
	 viewBox="0 0 189.15 189.15" style="enable-background:new 0 0 189.15 189.15;" xml:space="preserve">
<style type="text/css">
	.st0{fill:#7F7F7F;}
</style>
<g>
	<path class="st0" d="M166.77,94.59c0,24.37-32.13,44.14-71.77,44.14s-71.77-19.76-71.77-44.14s32.13-44.14,71.77-44.14
		S166.77,70.21,166.77,94.59z M164.98,94.59c0-23.38-31.33-42.34-69.99-42.34S25,71.2,25,94.59s31.33,42.34,69.99,42.34
		S164.98,117.97,164.98,94.59z"/>
	<path class="st0" d="M163.94,94.71c-0.04,22.86-30.99,41.34-69.14,41.27c-38.14-0.07-69.03-18.66-68.99-41.51
		c0.04-22.86,30.99-41.34,69.14-41.27C133.09,53.27,163.98,71.85,163.94,94.71z M163.43,94.58c0-22.57-30.72-40.86-68.61-40.86
		s-68.61,18.3-68.61,40.86s30.72,40.86,68.61,40.86S163.43,117.14,163.43,94.58z"/>
	<path class="st0" d="M158.66,94.46c0,20.28-28.36,36.72-63.33,36.72s-63.33-16.44-63.33-36.72s28.36-36.72,63.33-36.72
		S158.66,74.18,158.66,94.46z M146.77,75.41c-4.76-3.96-10.03-7.05-15.83-9.27c-11.84-4.54-24.06-6.71-36.65-6.52
		c-3.65,0.06-7.17,0.26-10.56,0.6c-9.28,0.95-18.23,3.32-26.84,7.11c-3.32,1.46-6.86,3.52-10.61,6.17
		c-4.88,3.46-8.52,7.86-10.92,13.23c-0.06,0.14,0,0.3,0.14,0.36c3.54,1.62,5.31,4.27,5.31,7.96c0,3.66-1.59,6.23-4.78,7.7
		c-0.13,0.06-0.2,0.22-0.14,0.34c1.59,3.46,4.04,6.68,7.34,9.66c3.09,2.79,6.49,5.13,10.19,7.02c8.13,4.16,16.72,6.93,25.77,8.29
		c10.92,1.65,21.84,1.62,32.75-0.09c8.69-1.36,16.96-4.01,24.81-7.95c2.86-1.44,5.91-3.42,9.14-5.95c3.74-2.93,6.73-6.57,8.96-10.9
		c0.07-0.13,0.01-0.29-0.13-0.34c-2-0.76-3.39-2.16-4.17-4.2c-0.92-2.39-0.91-4.78,0.04-7.16c0.8-2.02,2.32-3.46,4.55-4.32
		c0.15-0.05,0.22-0.22,0.16-0.37C153.37,82.33,150.53,78.54,146.77,75.41z M153.11,90.72c-0.68,0.89-1.11,1.89-1.28,2.99
		c-0.51,3.22,0.6,5.66,3.36,7.31c0.21,0.13,0.49,0.02,0.57-0.22c1.21-3.83,1.33-7.69,0.37-11.59c-0.05-0.2-0.25-0.3-0.44-0.24
		C154.57,89.35,153.71,89.94,153.11,90.72z M36.56,89.9c-0.48-0.47-1.04-0.78-1.69-0.95c-0.11-0.03-0.22,0.04-0.24,0.15
		c-1.01,3.82-0.91,7.7,0.31,11.63c0.06,0.19,0.25,0.29,0.44,0.22c0.9-0.3,1.63-0.88,2.17-1.75C39.71,95.8,39.38,92.7,36.56,89.9z"/>
	<path class="st0" d="M91.94,74.37l3.25,0.02c0.16,0,0.3,0.11,0.33,0.26c0.21,1.04-0.03,1.55-0.7,1.5
		c-0.31-0.02-0.49-0.03-0.52-0.03c-1.38,0.04-2.76,0.01-4.14-0.08c-0.15-0.01-0.26-0.14-0.26-0.29l0.06-13.5
		c0-0.16,0.11-0.29,0.26-0.31c0.39-0.05,0.77-0.02,1.14,0.09c0.16,0.04,0.26,0.19,0.26,0.35l0.03,4.26c0,0.26,0.2,0.47,0.44,0.46
		l4.21-0.1c0.24-0.01,0.44,0.13,0.5,0.34c0.28,1.04,0.11,1.56-0.51,1.54c-1.37-0.04-2.8-0.05-4.27-0.05c-0.2,0-0.37,0.16-0.36,0.36
		l0.03,4.9C91.68,74.25,91.8,74.37,91.94,74.37z"/>
	<path class="st0" d="M78.41,63.24l1.1-0.22c0.17-0.03,0.34,0.08,0.37,0.25L82.5,76.5c0.03,0.17-0.08,0.34-0.25,0.37l-1.1,0.22
		c-0.17,0.03-0.34-0.08-0.37-0.25l-2.62-13.23C78.12,63.44,78.24,63.28,78.41,63.24z"/>
	<path class="st0" d="M105.45,67.2c2.53-0.11,5.04,0.01,7.55,0.37c0.17,0.03,0.3,0.15,0.33,0.3c0.06,0.38,0.03,0.76-0.12,1.12
		c-0.06,0.14-0.21,0.23-0.38,0.22c-1.52-0.09-3.04-0.17-4.57-0.25c-0.04,0-0.4-0.05-1.1-0.15c-0.75-0.11-1.32,0.1-1.74,0.6
		c-0.26,0.32-0.41,0.85-0.45,1.59c-0.1,1.69-0.22,3.38-0.36,5.07c-0.01,0.17-0.12,0.32-0.27,0.36c-0.43,0.13-0.84,0.08-1.23-0.17
		c-0.13-0.08-0.21-0.24-0.2-0.42l0.53-9.5c0.01-0.16,0.12-0.3,0.28-0.34c1.09-0.29,1.59,0.03,1.5,0.94
		C105.21,67.09,105.32,67.21,105.45,67.2z"/>
	<path class="st0" d="M66.54,78.84c0.27,0.65,0.74,0.84,1.41,0.59c2.82-1.06,3.61-3.05,2.37-5.95c-0.64-1.49-1.22-3-1.75-4.53
		c-0.05-0.15-0.01-0.32,0.11-0.41c0.34-0.26,0.73-0.4,1.16-0.4c0.15-0.01,0.29,0.1,0.35,0.26l3.51,8.51
		c0.05,0.13,0.21,0.17,0.33,0.11c0.96-0.53,1.48-0.18,1.55,1.06c0.01,0.15-0.08,0.3-0.24,0.35c-0.4,0.15-0.79,0.3-1.18,0.45
		c-0.04,0.02-0.28,0.14-0.74,0.39c-0.53,0.29-0.89,0.06-1.09-0.66c-0.09-0.34-0.23-0.36-0.42-0.07c-1.07,1.65-2.57,2.56-4.51,2.74
		c-1.05,0.1-1.87-0.48-2.45-1.74c-1.17-2.57-2.27-5.17-3.28-7.81c-0.06-0.16-0.02-0.33,0.1-0.42c0.34-0.28,0.73-0.41,1.16-0.41
		c0.15,0.01,0.29,0.11,0.35,0.26L66.54,78.84z"/>
	<path class="st0" d="M121.8,79.91c-0.94,0.2-2.02,0.15-3.25-0.12c-1.83-0.41-2.86-1.33-3.12-2.76c-0.21-1.14,0.07-2.31,0.82-3.51
		c0.87-1.38,2.11-2.19,3.72-2.43c1.6-0.24,3.5,0.1,5.68,0.99c0.14,0.06,0.21,0.21,0.17,0.35l-1.99,8.17
		c-0.04,0.16-0.16,0.29-0.32,0.32c-0.72,0.15-1.19-0.12-1.4-0.8C122.09,79.97,121.95,79.89,121.8,79.91z M123.41,73.34
		c-2.86-0.96-4.85-0.29-5.98,2.03c-0.57,1.17-0.22,2.01,1.06,2.5c1.57,0.61,2.81,0.51,3.72-0.31c0.4-0.37,0.71-0.97,0.94-1.82
		c0.16-0.63,0.32-1.31,0.47-2.04C123.65,73.54,123.56,73.38,123.41,73.34z"/>
	<path class="st0" d="M129.59,89.87c0.13,0.18,0.37,0.25,0.58,0.19c2.37-0.72,4.17-0.15,5.4,1.72c0.46,0.7,0.67,1.49,0.61,2.36
		c-0.05,0.76-0.3,1.49-0.76,2.2c-1.09,1.7-2.78,2.26-5.09,1.67c-0.96,1.54-1.87,2.66-2.71,3.38c-3.01,2.54-6.67,4.43-10.97,5.68
		c-8.75,2.54-17.63,3.49-26.63,2.85c-4.13-0.29-7.63-0.72-10.52-1.29c-5.35-1.05-10.26-2.98-14.71-5.79
		c-1.7-1.07-3.22-2.68-4.57-4.84c-1.97,0.59-3.56,0.2-4.76-1.19c-1.01-1.15-1.33-2.4-0.99-3.73c0.32-1.23,1-2.17,2.05-2.81
		c1.19-0.72,2.55-0.77,4.1-0.14c2.34-2.96,5.25-5.16,8.73-6.63c2-0.84,4.05-1.55,6.15-2.11c7.72-2.05,15.52-2.89,23.43-2.51
		c3.84,0.19,7.34,0.56,10.52,1.13c3.92,0.7,7.75,1.81,11.47,3.31C124.48,84.73,127.36,86.92,129.59,89.87z M122.72,85.64
		c-3.72-1.84-7.56-3.18-11.54-4.05c-3.11-0.67-6.61-1.13-10.5-1.38c-4.34-0.27-9.02-0.18-14.06,0.27
		c-6.21,0.56-12.22,2.14-18.01,4.74c-0.32,0.14-0.52,0.46-0.52,0.8l0.03,17.06c0,0.16,0.1,0.31,0.24,0.38
		c3.82,1.87,7.92,3.21,12.3,4.02c6.8,1.26,13.58,1.64,20.32,1.14c4.02-0.3,7.52-0.77,10.5-1.42c3.87-0.85,7.58-2.16,11.12-3.92
		c0.18-0.09,0.29-0.27,0.29-0.47V85.92C122.9,85.8,122.83,85.69,122.72,85.64z M67.3,86.29c0-0.08-0.06-0.14-0.14-0.14H66.5
		c-0.08,0-0.14,0.06-0.14,0.14v16.2c0,0.08,0.06,0.14,0.14,0.14h0.66c0.08,0,0.14-0.06,0.14-0.14V86.29z M124.71,86.58
		c0-0.08-0.06-0.14-0.14-0.14l-0.78,0c-0.08,0-0.14,0.06-0.14,0.14l-0.06,15.77c0,0.08,0.06,0.14,0.14,0.14l0.78,0
		c0.08,0,0.14-0.06,0.14-0.14L124.71,86.58z M63.4,99.97l1.87,1.75c0.2,0.19,0.3,0.14,0.3-0.14V87.59c0-0.5-0.17-0.59-0.51-0.26
		l-1.67,1.59c-0.1,0.1-0.16,0.27-0.16,0.48l-0.03,10.06C63.19,99.66,63.27,99.84,63.4,99.97z M126.24,88
		c-0.15-0.22-0.33-0.39-0.55-0.5c-0.12-0.06-0.27,0.02-0.29,0.16c-0.08,0.57-0.11,1.13-0.07,1.7c0.06,1.03,0.09,1.55,0.09,1.58
		c0.03,3.44-0.01,6.87-0.11,10.3c0,0.08,0.08,0.15,0.16,0.12c1.29-0.52,1.89-1.42,1.8-2.69c-0.06-0.87-0.1-1.32-0.1-1.35
		c0.04-2.4,0.03-4.8-0.01-7.2C127.16,89.6,126.85,88.89,126.24,88z M127.89,98.64c-0.01,0.47,0.14,0.52,0.43,0.15
		c2.02-2.62,2.08-5.43,0.19-8.45c-0.39-0.62-0.59-0.57-0.59,0.17L127.89,98.64z M62.06,90.37c-1.75,2.73-1.77,5.42-0.05,8.08
		c0.4,0.63,0.6,0.57,0.6-0.19l-0.06-7.74C62.54,89.92,62.37,89.87,62.06,90.37z"/>
	<path class="st0" d="M136.32,83.79c0,0.04,0.17,0.15,0.53,0.33c0.74,0.38,0.88,0.82,0.43,1.31c-0.1,0.11-0.27,0.12-0.39,0.02
		c-0.92-0.76-1.6-1.41-2.05-1.93c-0.81-0.94-0.6-1.33,0.64-1.19c1.13,0.13,2.19,0.03,3.16-0.32c0.17-0.06,0.31-0.17,0.4-0.31
		c0.46-0.75,0.2-1.28-0.78-1.6c-0.93-0.3-1.01-0.62-0.25-0.96c0.16-0.07,0.34-0.08,0.51-0.04c0.75,0.2,1.29,0.6,1.64,1.2
		c0.43,0.75,0.38,1.39-0.14,1.92c-0.58,0.59-1.63,0.92-3.14,1C136.55,83.22,136.31,83.48,136.32,83.79z"/>
	<path class="st0" d="M54.35,82.84c0.58,0.24,0.68,0.55,0.3,0.92c-0.12,0.12-0.3,0.15-0.45,0.08l-1.72-0.87
		c-0.21-0.11-0.44-0.07-0.57,0.09c-0.98,1.18-1.88,1.27-2.7,0.28c-0.43-0.52-0.51-1.1-0.22-1.72c0.37-0.78,0.88-1.11,1.53-0.99
		c0.26,0.05,0.7,0.31,1.34,0.78C52.63,81.98,53.46,82.45,54.35,82.84z M51.12,82.25c0-0.4-0.32-0.72-0.72-0.72
		c-0.4,0-0.72,0.32-0.72,0.72c0,0.4,0.32,0.72,0.72,0.72C50.8,82.97,51.12,82.65,51.12,82.25z"/>
	<path class="st0" d="M48.19,89.06c-0.1-0.24-0.49-0.44-1.18-0.61c-0.34-0.08-0.61-0.33-0.72-0.67c-0.08-0.26,0.12-0.38,0.61-0.37
		c1.04,0.03,1.8,0.46,2.27,1.3c0.07,0.13,0.08,0.31,0.03,0.48c-0.2,0.59-0.25,1.09-0.16,1.48c0.06,0.3,0.3,0.53,0.6,0.59
		c1.27,0.25,1.95,0.55,2.07,0.87c0.04,0.12-0.11,0.24-0.29,0.23l-4.87-0.27c-0.2-0.01-0.37-0.07-0.47-0.17
		c-0.24-0.24-0.25-0.48-0.04-0.69c0.06-0.07,0.24-0.13,0.47-0.15l1.05-0.11c0.17-0.02,0.32-0.13,0.38-0.3
		c0.08-0.23-0.06-0.39-0.4-0.49c-0.4-0.12-0.8-0.23-1.2-0.34c-0.18-0.05-0.31-0.17-0.32-0.32c-0.04-0.31,0.17-0.43,0.62-0.37
		c0.43,0.06,0.87,0.11,1.3,0.14C48.1,89.32,48.25,89.18,48.19,89.06z"/>
	<path class="st0" d="M144.39,89.15c0.2,1.23-1.02,2.45-2.71,2.72c-1.7,0.27-3.23-0.51-3.43-1.74c-0.2-1.23,1.02-2.45,2.71-2.72
		C142.66,87.15,144.19,87.92,144.39,89.15z M143.37,89.27c-0.1-0.57-1.1-0.85-2.24-0.64c-1.13,0.21-1.97,0.84-1.86,1.4
		c0.1,0.57,1.1,0.85,2.24,0.64C142.64,90.46,143.47,89.84,143.37,89.27z"/>
	<path class="st0" d="M95.66,95.88l-0.04,3.71c-0.01,0.25-0.17,0.47-0.4,0.48l-1.69,0.07c-0.14,0.01-0.25-0.15-0.25-0.35l-0.02-3.79
		c-0.01-0.24-0.19-0.42-0.43-0.43l-3.79-0.02c-0.15,0-0.28-0.12-0.28-0.27v-1.79c0-0.15,0.13-0.27,0.28-0.27l3.94-0.03
		c0.15,0,0.26-0.12,0.26-0.26v-4.79c0-0.17,0.19-0.28,0.34-0.2l1.63,0.9c0.25,0.14,0.41,0.41,0.41,0.69v3.24
		c0,0.23,0.19,0.42,0.42,0.42l3.78,0.02c0.16,0,0.3,0.11,0.34,0.26c0.17,0.6,0.17,1.21,0,1.81c-0.04,0.15-0.18,0.25-0.34,0.25
		l-3.92,0.06C95.77,95.61,95.66,95.73,95.66,95.88z"/>
	<path class="st0" d="M142.78,97.68c-0.21-0.74-0.04-1.01,0.48-0.83c0.22,0.08,0.38,0.23,0.49,0.45c0.29,0.6,0.3,1.22,0.02,1.84
		c-0.06,0.14-0.22,0.21-0.38,0.16c-1.47-0.46-2.95-0.85-4.46-1.16c-0.32-0.07-0.55-0.17-0.68-0.33c-0.26-0.29-0.21-0.55,0.16-0.78
		c0.13-0.08,0.31-0.1,0.49-0.06l3.69,0.9C142.71,97.9,142.81,97.8,142.78,97.68z"/>
	<path class="st0" d="M50.75,98.97c0.06-0.07,0.05-0.37-0.03-0.87c-0.2-1.16,0.05-1.48,0.75-0.97c0.14,0.1,0.23,0.25,0.27,0.43
		c0.23,1.07-0.04,1.99-0.79,2.74c-0.12,0.12-0.29,0.18-0.46,0.15c-0.51-0.08-0.94-0.31-1.29-0.7c-0.09-0.1-0.24-0.08-0.31,0.02
		c-0.89,1.32-1.74,1.27-2.52-0.16c-0.1-0.19-0.17-0.39-0.23-0.6c-0.35-1.48-0.02-1.46,1.01,0.05c0.59,0.87,0.91,0.77,0.96-0.3
		c0.06-1.23,0.58-1.18,1.56,0.16C49.92,99.27,50.45,99.3,50.75,98.97z"/>
	<path class="st0" d="M139.66,106.74c0.45-0.48,0.79-1.03,1.02-1.65c0.07-0.18,0.19-0.32,0.33-0.37c0.35-0.12,0.57,0.01,0.65,0.38
		c0.03,0.15-0.01,0.32-0.1,0.5l-1.4,2.56c-0.38,0.7-0.75,0.7-1.12-0.01c-0.7-1.37-1.61-2.59-2.71-3.65
		c-0.48-0.47-0.51-0.95-0.07-1.45c0.11-0.12,0.29-0.12,0.4-0.01c1.11,1.15,2,2.37,2.69,3.65
		C139.42,106.81,139.57,106.84,139.66,106.74z"/>
	<path class="st0" d="M48.09,106.45l4.95-2.6c0.08-0.04,0.17-0.01,0.21,0.07l0.31,0.59c0.04,0.08,0.01,0.17-0.07,0.21l-4.95,2.6
		c-0.08,0.04-0.17,0.01-0.21-0.07l-0.31-0.59C47.99,106.59,48.02,106.49,48.09,106.45z"/>
	<path class="st0" d="M125.57,110.56c0.9-0.27,1.6-0.63,2.09-1.09c0.59-0.55,1.06-0.33,1.42,0.66c0.05,0.14-0.01,0.3-0.14,0.37
		l-3.39,1.9c-0.41,0.23-0.92,0.08-1.15-0.33c-1.62-2.79-1.16-4.82,1.34-6.1c0.17-0.08,0.37-0.04,0.49,0.11
		c0.51,0.64,0.46,1.12-0.14,1.44c-1.32,0.7-1.63,1.66-0.91,2.88C125.25,110.55,125.42,110.61,125.57,110.56z"/>
	<path class="st0" d="M67,108.29l0.77,0.36c0.16,0.08,0.23,0.27,0.15,0.43l-4.54,9.59c-0.08,0.16-0.27,0.23-0.43,0.15l-0.77-0.36
		c-0.16-0.08-0.23-0.27-0.15-0.43l4.54-9.59C66.65,108.28,66.84,108.21,67,108.29z"/>
	<path class="st0" d="M118.9,109.79l0.87-0.34c0.14-0.05,0.3,0.01,0.35,0.15l3.89,9.97c0.05,0.14-0.01,0.3-0.15,0.35l-0.87,0.34
		c-0.14,0.05-0.3-0.01-0.35-0.15l-3.89-9.97C118.69,110,118.76,109.84,118.9,109.79z"/>
	<path class="st0" d="M108.97,119.11c-7.14,2-14.42,2.63-21.82,1.89c-4.21-0.42-8.42-1.48-12.61-3.2c-0.97,4.11-3.44,5.64-7.39,4.58
		c-0.16-0.04-0.29-0.17-0.32-0.32c-0.23-0.96,0.13-1.3,1.1-1.04c2.14,0.59,3.7-0.04,4.67-1.89c0.2-0.37,0.49-1.38,0.89-3.02
		c0.03-0.14,0.18-0.22,0.31-0.16c11.19,4.31,22.61,4.9,34.25,1.79c0.5-0.13,0.94-0.39,1.31-0.76c0.59-0.59,0.94-0.57,1.06,0.06
		l0.82,4.42c0.11,0.57,0.67,0.97,1.23,0.83c0.97-0.25,1.56-0.78,1.76-1.58c0.1-0.39,0.05-1.07-0.13-2.08
		c-0.42-2.24-0.77-4.49-1.06-6.75c-0.02-0.17,0.06-0.32,0.2-0.39c0.38-0.16,0.71-0.15,0.99,0.06c0.19,0.14,0.31,0.4,0.36,0.77
		c0.33,2.37,0.68,4.73,1.05,7.09c0.35,2.23-0.53,3.64-2.65,4.22c-1,0.28-1.81,0.13-2.42-0.43c-0.38-0.35-0.67-1.01-0.88-1.98
		c-0.14-0.64-0.28-1.29-0.41-1.93C109.25,119.16,109.11,119.07,108.97,119.11z"/>
	<path class="st0" d="M104.51,114.9l-0.02-0.64c0.36,0.01,0.59-0.16,0.69-0.52c0.14-0.49,0.65-0.53,1.53-0.13
		c0.74,0.34,0.83,0.77,0.27,1.29c-0.12,0.11-0.21,0.25-0.28,0.42c-0.14,0.34-0.39,0.49-0.73,0.42c-0.12-0.03-0.26-0.14-0.38-0.32
		C105.37,115.06,105.01,114.89,104.51,114.9z"/>
	<path class="st0" d="M104.49,114.26l0.02,0.64c-0.13,0.6-0.4,0.96-0.8,1.07c-0.34,0.1-0.7,0.01-1.09-0.27
		c-0.77-0.56-0.62-1.29,0.45-2.2c0.2-0.16,0.49-0.13,0.64,0.08C103.97,113.97,104.23,114.19,104.49,114.26z"/>
</g>
</svg>
