<?xml version="1.0" encoding="utf-8"?>
<!-- Generator: Adobe Illustrator 27.5.0, SVG Export Plug-In . SVG Version: 6.00 Build 0)  -->
<svg version="1.1" id="Layer_1" xmlns="http://www.w3.org/2000/svg" xmlns:xlink="http://www.w3.org/1999/xlink" x="0px" y="0px"
	 viewBox="0 0 279.82 189.15" style="enable-background:new 0 0 279.82 189.15;" xml:space="preserve">
<style type="text/css">
	.st0{fill:#7F7F7F;}
</style>
<path class="st0" d="M166.49,123.64l5.9-16.91l5.91,16.91H166.49z M169.68,100.66l-12.72,34.94h5.36l2.6-7.46h14.95l2.61,7.46h5.49
	l-12.58-34.94H169.68z M153.92,100.66h-22.6v34.94h5.13v-14.91h16.09v-4.57h-16.09v-10.89h17.47V100.66z M101.83,123.64l5.9-16.91
	l5.91,16.91H101.83z M105.02,100.66L92.3,135.61h5.36l2.61-7.46h14.95l2.61,7.46h5.49l-12.58-34.94H105.02z M72.26,99.75
	c-7.69,0-13.29,4.09-13.29,10.31c0,5.48,3.27,8.33,10.56,9.91l4.9,1.08c4.81,1.05,7.29,2.25,7.29,5.33c0,2.98-2.75,5.04-8.77,5.04
	c-4.84,0-9.32-2.21-11.76-5.36l-3.89,3.43c2.66,3.79,8.55,7.03,15.49,7.03c8.4,0,14.15-3.75,14.15-10.74c0-6.2-4.39-8.37-11.4-9.97
	l-4.41-0.97c-4.14-0.91-6.85-1.7-6.85-5.11c0-3.32,2.97-4.88,7.81-4.88c3.85,0,7.43,1.21,10.54,3.67l3.03-4.03
	C82.13,101.31,76.97,99.75,72.26,99.75 M110.84,87.62l10.38-34.97h-5.37l-8.57,29.76l-8.51-29.76h-5.78l-8.45,29.6l-8.57-29.6h-5.49
	l10.35,34.97h7.32l7.71-27.23l7.69,27.23H110.84z M143.82,66.78c-0.8,0.6-1.54,1.32-2.18,2.15c-3,3.89-6.36,8.19-10.39,13.44
	c-2.64,3.44-3.8,4.78-5.56,4.78c-1.52,0-2.75-1.21-2.75-2.81c0-1.06,0.34-1.98,2.33-5.88c2.86-5.59,9.22-18.05,12.28-24.07
	L143.82,66.78z M160.18,87.63l-10.58-20.5c1.42-1.03,2.79-1.42,4.53-1.42c1.03,0,2.21,0.09,3.25,0.23c-2-0.95-4.18-1.57-6.33-1.57
	c-0.9,0-1.81,0.11-2.72,0.31l-6.2-12.03h-4.95c-4.42,8.66-10.35,20.3-13.18,25.8c-1.92,3.73-2.27,4.75-2.27,5.96
	c0,2.31,1.79,4.09,4.39,4.09c4.2,0,8.96-3.42,13.97-9.95c1.54-2.01,3.21-4.18,5.08-6.64c0.26-0.34,0.51-0.67,0.75-0.98l8.47,16.69
	H160.18z M191.4,70.14c0,4.22-1.13,7.52-3.2,9.83c-2.12,2.36-4.51,3.04-11.02,3.04h-4.79V57.27h4.79c6.51,0,8.9,0.68,11.02,3.04
	C190.27,62.62,191.4,65.92,191.4,70.14 M191.62,83.79c3.1-3,4.91-8.1,4.91-13.65s-1.81-10.66-4.91-13.65
	c-3.45-3.33-6.75-3.83-15-3.83h-9.37v34.97h9.37C184.87,87.62,188.17,87.12,191.62,83.79 M205.17,87.62h5.13V52.65h-5.13V87.62z
	 M217.61,110.7c0,3.81-2.37,5.79-7.57,5.79h-8.67v-11.48h8.98C215.38,105.02,217.61,107.13,217.61,110.7 M222.41,110.86
	c0-3.03-0.9-5.46-2.63-7.15c-2.16-2.11-5.58-3.08-10.72-3.08h-12.82v34.97h5.13v-14.65h7.96l8.18,14.65h5.84l-8.53-15.04
	C219.24,119.24,222.41,116.28,222.41,110.86"/>
</svg>
